ply
format ascii 1.0
element vertex 2016
property float x
property float y
property float z
element face 336
property list uchar int vertex_indices
end_header
-473.34 123.59918312645777 0.0
-462.84 123.59918312645777 0.0
-436.44 77.87304180663942 0.0
-441.69 68.77977506690281 0.0
-494.48999999999995 68.77977506690281 0.0
-499.73999999999995 77.87304180663942 0.0
-425.543 78.12081687354222 0.0
-436.043 78.12081687354222 0.0
-462.443 123.84695819336059 0.0
-457.193 132.9402249330972 0.0
-404.39300000000003 132.94022493309717 0.0
-399.14300000000003 123.84695819336056 0.0
-500.123 78.10681687354223 0.0
-510.623 78.10681687354223 0.0
-537.023 123.83295819336058 0.0
-531.773 132.9262249330972 0.0
-478.973 132.9262249330972 0.0
-473.723 123.83295819336058 0.0
-462.845 13.476816873542226 0.0
-473.345 13.476816873542226 0.0
-499.745 59.20295819336059 0.0
-494.495 68.29622493309719 0.0
-441.69500000000005 68.29622493309718 0.0
-436.44500000000005 59.20295819336057 0.0
-395.342 258.73518312645774 0.0
-384.842 258.73518312645774 0.0
-358.442 213.00904180663943 0.0
-363.692 203.91577506690282 0.0
-416.49199999999996 203.91577506690282 0.0
-421.74199999999996 213.00904180663943 0.0
-347.532 213.25981687354223 0.0
-358.032 213.25981687354223 0.0
-384.43199999999996 258.9859581933606 0.0
-379.18199999999996 268.0792249330972 0.0
-326.382 268.0792249330972 0.0
-321.132 258.9859581933606 0.0
-422.132 213.23381687354222 0.0
-432.632 213.23381687354222 0.0
-459.032 258.95995819336054 0.0
-453.782 268.05322493309717 0.0
-400.982 268.05322493309717 0.0
-395.732 258.95995819336054 0.0
-384.854 148.61581687354223 0.0
-395.354 148.61581687354223 0.0
-421.75399999999996 194.3419581933606 0.0
-416.50399999999996 203.4352249330972 0.0
-363.704 203.43522493309717 0.0
-358.454 194.34195819336057 0.0
-462.82 146.64481687354223 0.0
-473.32 146.64481687354223 0.0
-499.71999999999997 192.3709581933606 0.0
-494.46999999999997 201.4642249330972 0.0
-441.67 201.46422493309717 0.0
-436.42 192.37095819336056 0.0
-473.306 256.75918312645774 0.0
-462.806 256.75918312645774 0.0
-436.406 211.03304180663943 0.0
-441.656 201.93977506690283 0.0
-494.45599999999996 201.93977506690283 0.0
-499.70599999999996 211.03304180663943 0.0
-510.612 192.12218312645777 0.0
-500.112 192.12218312645777 0.0
-473.71200000000005 146.39604180663943 0.0
-478.96200000000005 137.30277506690283 0.0
-531.7620000000001 137.30277506690283 0.0
-537.0120000000001 146.39604180663943 0.0
-436.033 192.14118312645778 0.0
-425.533 192.14118312645778 0.0
-399.13300000000004 146.41504180663944 0.0
-404.38300000000004 137.32177506690283 0.0
-457.183 137.32177506690283 0.0
-462.433 146.41504180663944 0.0
-317.31 393.8511831264578 0.0
-306.81 393.8511831264578 0.0
-280.41 348.12504180663944 0.0
-285.66 339.0317750669028 0.0
-338.46 339.0317750669028 0.0
-343.71 348.12504180663944 0.0
-269.493 348.37081687354225 0.0
-279.993 348.37081687354225 0.0
-306.393 394.0969581933606 0.0
-301.143 403.1902249330972 0.0
-248.343 403.1902249330972 0.0
-243.093 394.0969581933606 0.0
-344.104 348.33981687354225 0.0
-354.604 348.33981687354225 0.0
-381.00399999999996 394.0659581933606 0.0
-375.75399999999996 403.1592249330972 0.0
-322.954 403.1592249330972 0.0
-317.704 394.0659581933606 0.0
-306.826 283.74381687354224 0.0
-317.326 283.74381687354224 0.0
-343.726 329.4699581933606 0.0
-338.476 338.5632249330972 0.0
-285.67600000000004 338.5632249330972 0.0
-280.42600000000004 329.4699581933606 0.0
-384.808 281.7648168735422 0.0
-395.308 281.7648168735422 0.0
-421.70799999999997 327.49095819336054 0.0
-416.45799999999997 336.5842249330972 0.0
-363.658 336.5842249330972 0.0
-358.408 327.49095819336054 0.0
-395.289 391.8681831264578 0.0
-384.789 391.8681831264578 0.0
-358.389 346.14204180663944 0.0
-363.639 337.0487750669028 0.0
-416.43899999999996 337.0487750669028 0.0
-421.68899999999996 346.14204180663944 0.0
-432.613 327.24118312645777 0.0
-422.113 327.24118312645777 0.0
-395.713 281.51504180663943 0.0
-400.963 272.4217750669028 0.0
-453.763 272.4217750669028 0.0
-459.013 281.51504180663943 0.0
-358.016 327.27118312645774 0.0
-347.516 327.27118312645774 0.0
-321.11600000000004 281.5450418066394 0.0
-326.36600000000004 272.45177506690277 0.0
-379.166 272.45177506690277 0.0
-384.416 281.5450418066394 0.0
-473.32 -146.64481687354223 0.0
-462.82 -146.64481687354223 0.0
-436.42 -192.37095819336056 0.0
-441.67 -201.46422493309717 0.0
-494.46999999999997 -201.46422493309717 0.0
-499.71999999999997 -192.37095819336056 0.0
-425.533 -192.14118312645778 0.0
-436.033 -192.14118312645778 0.0
-462.433 -146.4150418066394 0.0
-457.183 -137.3217750669028 0.0
-404.38300000000004 -137.32177506690283 0.0
-399.13300000000004 -146.41504180663944 0.0
-500.112 -192.12218312645777 0.0
-510.612 -192.12218312645777 0.0
-537.0120000000001 -146.3960418066394 0.0
-531.7620000000001 -137.3027750669028 0.0
-478.96200000000005 -137.30277506690283 0.0
-473.71200000000005 -146.39604180663943 0.0
-462.806 -256.75918312645774 0.0
-473.306 -256.75918312645774 0.0
-499.70599999999996 -211.0330418066394 0.0
-494.45599999999996 -201.9397750669028 0.0
-441.656 -201.93977506690283 0.0
-436.406 -211.03304180663943 0.0
-395.375 -11.532816873542231 0.0
-384.875 -11.532816873542231 0.0
-358.475 -57.258958193360584 0.0
-363.725 -66.35222493309719 0.0
-416.525 -66.35222493309719 0.0
-421.775 -57.258958193360584 0.0
-347.569 -57.01518312645777 0.0
-358.069 -57.01518312645777 0.0
-384.469 -11.289041806639414 0.0
-379.219 -2.195775066902809 0.0
-326.41900000000004 -2.195775066902814 0.0
-321.16900000000004 -11.289041806639421 0.0
-422.178 -57.01218312645777 0.0
-432.678 -57.01218312645777 0.0
-459.078 -11.286041806639414 0.0
-453.828 -2.1927750669028088 0.0
-401.028 -2.192775066902814 0.0
-395.778 -11.286041806639421 0.0
-384.871 -121.66018312645778 0.0
-395.371 -121.66018312645778 0.0
-421.77099999999996 -75.93404180663941 0.0
-416.52099999999996 -66.84077506690281 0.0
-363.721 -66.84077506690281 0.0
-358.471 -75.93404180663941 0.0
-462.84 -123.59918312645777 0.0
-473.34 -123.59918312645777 0.0
-499.73999999999995 -77.87304180663942 0.0
-494.48999999999995 -68.77977506690281 0.0
-441.69 -68.77977506690281 0.0
-436.44 -77.87304180663942 0.0
-473.345 -13.476816873542226 0.0
-462.845 -13.476816873542226 0.0
-436.44500000000005 -59.20295819336059 0.0
-441.69500000000005 -68.29622493309719 0.0
-494.495 -68.29622493309719 0.0
-499.745 -59.20295819336059 0.0
-510.623 -78.10681687354223 0.0
-500.123 -78.10681687354223 0.0
-473.723 -123.83295819336058 0.0
-478.973 -132.9262249330972 0.0
-531.773 -132.9262249330972 0.0
-537.023 -123.83295819336058 0.0
-436.043 -78.12081687354222 0.0
-425.543 -78.12081687354222 0.0
-399.14300000000003 -123.84695819336056 0.0
-404.39300000000003 -132.94022493309717 0.0
-457.193 -132.94022493309717 0.0
-462.443 -123.84695819336056 0.0
-317.376 123.61818312645775 0.0
-306.876 123.61818312645775 0.0
-280.476 77.89204180663941 0.0
-285.726 68.7987750669028 0.0
-338.52599999999995 68.7987750669028 0.0
-343.77599999999995 77.89204180663941 0.0
-269.557 78.14181687354223 0.0
-280.057 78.14181687354223 0.0
-306.457 123.86795819336058 0.0
-301.207 132.96122493309718 0.0
-248.407 132.96122493309718 0.0
-243.157 123.86795819336058 0.0
-344.186 78.13381687354223 0.0
-354.686 78.13381687354223 0.0
-381.08599999999996 123.8599581933606 0.0
-375.83599999999996 132.9532249330972 0.0
-323.036 132.95322493309718 0.0
-317.786 123.85995819336057 0.0
-306.879 13.486816873542232 0.0
-317.379 13.486816873542232 0.0
-343.779 59.21295819336059 0.0
-338.529 68.3062249330972 0.0
-285.72900000000004 68.30622493309718 0.0
-280.47900000000004 59.21295819336058 0.0
-384.875 11.532816873542231 0.0
-395.375 11.532816873542231 0.0
-421.775 57.258958193360584 0.0
-416.525 66.35222493309719 0.0
-363.725 66.35222493309719 0.0
-358.475 57.258958193360584 0.0
-395.371 121.66018312645778 0.0
-384.871 121.66018312645778 0.0
-358.471 75.93404180663941 0.0
-363.721 66.84077506690281 0.0
-416.52099999999996 66.84077506690281 0.0
-421.77099999999996 75.93404180663941 0.0
-432.678 57.01218312645777 0.0
-422.178 57.01218312645777 0.0
-395.778 11.286041806639417 0.0
-401.028 2.1927750669028114 0.0
-453.828 2.1927750669028114 0.0
-459.078 11.286041806639417 0.0
-358.069 57.01518312645777 0.0
-347.569 57.01518312645777 0.0
-321.16900000000004 11.289041806639418 0.0
-326.41900000000004 2.1957750669028115 0.0
-379.219 2.1957750669028115 0.0
-384.469 11.289041806639418 0.0
-239.345 258.77318312645775 0.0
-228.845 258.77318312645775 0.0
-202.445 213.04704180663944 0.0
-207.695 203.95377506690284 0.0
-260.495 203.95377506690284 0.0
-265.745 213.04704180663944 0.0
-191.519 213.29581687354224 0.0
-202.019 213.29581687354224 0.0
-228.419 259.02195819336055 0.0
-223.169 268.1152249330972 0.0
-170.369 268.1152249330972 0.0
-165.119 259.02195819336055 0.0
-266.159 213.28181687354223 0.0
-276.659 213.28181687354223 0.0
-303.05899999999997 259.00795819336054 0.0
-297.80899999999997 268.10122493309717 0.0
-245.009 268.10122493309717 0.0
-239.759 259.00795819336054 0.0
-228.851 148.64581687354223 0.0
-239.351 148.64581687354223 0.0
-265.751 194.3719581933606 0.0
-260.501 203.4652249330972 0.0
-207.701 203.46522493309718 0.0
-202.451 194.37195819336057 0.0
-306.863 146.68381687354224 0.0
-317.363 146.68381687354224 0.0
-343.763 192.4099581933606 0.0
-338.513 201.50322493309721 0.0
-285.713 201.5032249330972 0.0
-280.463 192.40995819336058 0.0
-317.354 256.80718312645774 0.0
-306.854 256.80718312645774 0.0
-280.454 211.08104180663943 0.0
-285.704 201.98777506690283 0.0
-338.50399999999996 201.98777506690283 0.0
-343.75399999999996 211.08104180663943 0.0
-354.679 192.15918312645778 0.0
-344.179 192.15918312645778 0.0
-317.779 146.4330418066394 0.0
-323.029 137.3397750669028 0.0
-375.82899999999995 137.3397750669028 0.0
-381.07899999999995 146.4330418066394 0.0
-280.051 192.17118312645778 0.0
-269.551 192.17118312645778 0.0
-243.15099999999998 146.4450418066394 0.0
-248.40099999999998 137.3517750669028 0.0
-301.20099999999996 137.3517750669028 0.0
-306.45099999999996 146.4450418066394 0.0
-161.3 393.8971831264578 0.0
-150.8 393.8971831264578 0.0
-124.4 348.17104180663944 0.0
-129.65 339.0777750669028 0.0
-182.45000000000002 339.0777750669028 0.0
-187.70000000000002 348.17104180663944 0.0
-113.475 348.41281687354217 0.0
-123.975 348.41281687354217 0.0
-150.375 394.1389581933606 0.0
-145.125 403.2322249330972 0.0
-92.32499999999999 403.2322249330972 0.0
-87.07499999999999 394.1389581933606 0.0
-188.114 348.3968168735422 0.0
-198.614 348.3968168735422 0.0
-225.014 394.12295819336055 0.0
-219.764 403.2162249330972 0.0
-166.964 403.2162249330972 0.0
-161.714 394.12295819336055 0.0
-150.808 283.78481687354224 0.0
-161.308 283.78481687354224 0.0
-187.708 329.5109581933606 0.0
-182.458 338.6042249330972 0.0
-129.658 338.6042249330972 0.0
-124.40799999999999 329.5109581933606 0.0
-228.825 281.8198168735422 0.0
-239.325 281.8198168735422 0.0
-265.72499999999997 327.54595819336055 0.0
-260.47499999999997 336.6392249330972 0.0
-207.67499999999998 336.6392249330972 0.0
-202.42499999999998 327.54595819336055 0.0
-239.313 391.92918312645776 0.0
-228.813 391.9291831264578 0.0
-202.41299999999998 346.20304180663936 0.0
-207.66299999999998 337.1097750669028 0.0
-260.46299999999997 337.1097750669028 0.0
-265.71299999999997 346.2030418066394 0.0
-276.647 327.29718312645775 0.0
-266.147 327.29718312645775 0.0
-239.74699999999999 281.5710418066394 0.0
-244.99699999999999 272.4777750669028 0.0
-297.79699999999997 272.4777750669028 0.0
-303.04699999999997 281.5710418066394 0.0
-202.011 327.3151831264578 0.0
-191.511 327.3151831264578 0.0
-165.111 281.58904180663944 0.0
-170.361 272.4957750669028 0.0
-223.161 272.4957750669028 0.0
-228.411 281.58904180663944 0.0
-83.262 528.9551831264578 0.0
-72.762 528.9551831264578 0.0
-46.362 483.22904180663943 0.0
-51.612 474.1357750669028 0.0
-104.412 474.1357750669028 0.0
-109.662 483.22904180663943 0.0
-35.443000000000005 483.4548168735422 0.0
-45.943 483.45481687354226 0.0
-72.34299999999999 529.1809581933607 0.0
-67.09299999999999 538.2742249330972 0.0
-14.293 538.2742249330972 0.0
-9.042999999999997 529.1809581933607 0.0
-110.074 483.44481687354227 0.0
-120.574 483.44481687354227 0.0
-146.974 529.1709581933607 0.0
-141.724 538.2642249330972 0.0
-88.924 538.2642249330972 0.0
-83.674 529.1709581933607 0.0
-72.767 418.86681687354223 0.0
-83.267 418.86681687354223 0.0
-109.667 464.5929581933606 0.0
-104.417 473.6862249330972 0.0
-51.617 473.6862249330972 0.0
-46.367 464.5929581933606 0.0
-150.78 416.90481687354225 0.0
-161.28 416.90481687354225 0.0
-187.68 462.6309581933606 0.0
-182.43 471.7242249330972 0.0
-129.63 471.7242249330972 0.0
-124.38 462.6309581933606 0.0
-161.269 526.9921831264578 0.0
-150.769 526.9921831264578 0.0
-124.369 481.26604180663935 0.0
-129.619 472.1727750669028 0.0
-182.419 472.1727750669028 0.0
-187.669 481.26604180663935 0.0
-198.601 462.39318312645776 0.0
-188.101 462.39318312645776 0.0
-161.701 416.6670418066394 0.0
-166.951 407.5737750669028 0.0
-219.751 407.5737750669028 0.0
-225.001 416.6670418066394 0.0
-123.967 462.4111831264578 0.0
-113.467 462.4111831264578 0.0
-87.06700000000001 416.68504180663945 0.0
-92.31700000000001 407.5917750669028 0.0
-145.117 407.5917750669028 0.0
-150.367 416.68504180663945 0.0
-395.308 -281.7648168735422 0.0
-384.808 -281.7648168735422 0.0
-358.408 -327.49095819336054 0.0
-363.658 -336.5842249330972 0.0
-416.45799999999997 -336.5842249330972 0.0
-421.70799999999997 -327.49095819336054 0.0
-347.516 -327.27118312645774 0.0
-358.016 -327.27118312645774 0.0
-384.416 -281.5450418066394 0.0
-379.166 -272.45177506690277 0.0
-326.36600000000004 -272.45177506690277 0.0
-321.11600000000004 -281.5450418066394 0.0
-422.113 -327.24118312645777 0.0
-432.613 -327.24118312645777 0.0
-459.013 -281.51504180663943 0.0
-453.763 -272.4217750669028 0.0
-400.963 -272.4217750669028 0.0
-395.713 -281.51504180663943 0.0
-384.789 -391.8681831264578 0.0
-395.289 -391.8681831264578 0.0
-421.68899999999996 -346.14204180663944 0.0
-416.43899999999996 -337.0487750669028 0.0
-363.639 -337.0487750669028 0.0
-358.389 -346.14204180663944 0.0
-317.363 -146.68381687354224 0.0
-306.863 -146.68381687354224 0.0
-280.463 -192.4099581933606 0.0
-285.713 -201.50322493309721 0.0
-338.513 -201.50322493309721 0.0
-343.763 -192.4099581933606 0.0
-269.551 -192.17118312645778 0.0
-280.051 -192.17118312645778 0.0
-306.45099999999996 -146.4450418066394 0.0
-301.20099999999996 -137.3517750669028 0.0
-248.40099999999998 -137.35177506690283 0.0
-243.15099999999998 -146.44504180663944 0.0
-344.179 -192.15918312645778 0.0
-354.679 -192.15918312645778 0.0
-381.07899999999995 -146.4330418066394 0.0
-375.82899999999995 -137.3397750669028 0.0
-323.029 -137.33977506690283 0.0
-317.779 -146.43304180663944 0.0
-306.854 -256.80718312645774 0.0
-317.354 -256.80718312645774 0.0
-343.75399999999996 -211.0810418066394 0.0
-338.50399999999996 -201.9877750669028 0.0
-285.704 -201.98777506690283 0.0
-280.454 -211.08104180663943 0.0
-384.842 -258.73518312645774 0.0
-395.342 -258.73518312645774 0.0
-421.74199999999996 -213.0090418066394 0.0
-416.49199999999996 -203.9157750669028 0.0
-363.692 -203.91577506690282 0.0
-358.442 -213.00904180663943 0.0
-395.354 -148.61581687354223 0.0
-384.854 -148.61581687354223 0.0
-358.454 -194.34195819336057 0.0
-363.704 -203.43522493309717 0.0
-416.50399999999996 -203.43522493309717 0.0
-421.75399999999996 -194.34195819336057 0.0
-432.632 -213.23381687354222 0.0
-422.132 -213.23381687354222 0.0
-395.732 -258.95995819336054 0.0
-400.982 -268.05322493309717 0.0
-453.782 -268.05322493309717 0.0
-459.032 -258.95995819336054 0.0
-358.032 -213.25981687354223 0.0
-347.532 -213.25981687354223 0.0
-321.132 -258.9859581933606 0.0
-326.382 -268.0792249330972 0.0
-379.18199999999996 -268.0792249330972 0.0
-384.43199999999996 -258.9859581933606 0.0
-239.363 -11.539816873542229 0.0
-228.863 -11.539816873542227 0.0
-202.463 -57.265958193360575 0.0
-207.713 -66.35922493309718 0.0
-260.513 -66.35922493309718 0.0
-265.763 -57.265958193360575 0.0
-191.537 -57.01818312645777 0.0
-202.037 -57.01818312645777 0.0
-228.437 -11.292041806639414 0.0
-223.187 -2.198775066902809 0.0
-170.387 -2.1987750669028143 0.0
-165.137 -11.292041806639421 0.0
-266.186 -57.017183126457766 0.0
-276.686 -57.017183126457766 0.0
-303.08599999999996 -11.291041806639413 0.0
-297.83599999999996 -2.1977750669028078 0.0
-245.03599999999997 -2.197775066902813 0.0
-239.78599999999997 -11.291041806639418 0.0
-228.861 -121.67418312645779 0.0
-239.361 -121.67418312645779 0.0
-265.76099999999997 -75.94804180663942 0.0
-260.51099999999997 -66.85477506690282 0.0
-207.71099999999998 -66.85477506690282 0.0
-202.46099999999998 -75.94804180663942 0.0
-306.876 -123.61818312645775 0.0
-317.376 -123.61818312645775 0.0
-343.77599999999995 -77.89204180663941 0.0
-338.52599999999995 -68.7987750669028 0.0
-285.726 -68.7987750669028 0.0
-280.476 -77.89204180663941 0.0
-317.379 -13.486816873542232 0.0
-306.879 -13.486816873542232 0.0
-280.47900000000004 -59.21295819336058 0.0
-285.72900000000004 -68.30622493309718 0.0
-338.529 -68.30622493309718 0.0
-343.779 -59.21295819336058 0.0
-354.686 -78.13381687354223 0.0
-344.186 -78.13381687354223 0.0
-317.786 -123.8599581933606 0.0
-323.036 -132.9532249330972 0.0
-375.83599999999996 -132.9532249330972 0.0
-381.08599999999996 -123.8599581933606 0.0
-280.057 -78.14181687354223 0.0
-269.557 -78.14181687354223 0.0
-243.157 -123.86795819336058 0.0
-248.407 -132.96122493309718 0.0
-301.207 -132.96122493309718 0.0
-306.457 -123.86795819336058 0.0
-161.33 123.62818312645777 0.0
-150.83 123.62818312645777 0.0
-124.43 77.90204180663942 0.0
-129.68 68.80877506690281 0.0
-182.48000000000002 68.80877506690281 0.0
-187.73000000000002 77.90204180663942 0.0
-113.5 78.15181687354223 0.0
-124.0 78.15181687354223 0.0
-150.4 123.8779581933606 0.0
-145.15 132.9712249330972 0.0
-92.35 132.97122493309718 0.0
-87.1 123.87795819336057 0.0
-188.157 78.14881687354223 0.0
-198.657 78.14881687354223 0.0
-225.05700000000002 123.87495819336058 0.0
-219.80700000000002 132.9682249330972 0.0
-167.007 132.9682249330972 0.0
-161.757 123.87495819336058 0.0
-150.832 13.491816873542225 0.0
-161.332 13.491816873542227 0.0
-187.732 59.21795819336059 0.0
-182.482 68.3112249330972 0.0
-129.682 68.31122493309718 0.0
-124.43199999999999 59.21795819336057 0.0
-228.863 11.539816873542227 0.0
-239.363 11.539816873542229 0.0
-265.763 57.26595819336059 0.0
-260.513 66.3592249330972 0.0
-207.713 66.35922493309718 0.0
-202.463 57.265958193360575 0.0
-239.361 121.67418312645779 0.0
-228.861 121.67418312645779 0.0
-202.46099999999998 75.94804180663942 0.0
-207.71099999999998 66.85477506690282 0.0
-260.51099999999997 66.85477506690282 0.0
-265.76099999999997 75.94804180663942 0.0
-276.686 57.017183126457766 0.0
-266.186 57.017183126457766 0.0
-239.78599999999997 11.291041806639416 0.0
-245.03599999999997 2.1977750669028104 0.0
-297.83599999999996 2.1977750669028104 0.0
-303.08599999999996 11.291041806639416 0.0
-202.037 57.01818312645777 0.0
-191.537 57.01818312645777 0.0
-165.137 11.292041806639418 0.0
-170.387 2.1987750669028117 0.0
-223.187 2.1987750669028117 0.0
-228.437 11.292041806639418 0.0
-83.288 258.7901831264578 0.0
-72.788 258.7901831264578 0.0
-46.388 213.06404180663944 0.0
-51.638 203.97077506690283 0.0
-104.43799999999999 203.97077506690283 0.0
-109.68799999999999 213.06404180663944 0.0
-35.45700000000001 213.30981687354222 0.0
-45.95700000000001 213.30981687354222 0.0
-72.357 259.03595819336056 0.0
-67.107 268.1292249330972 0.0
-14.307000000000002 268.1292249330972 0.0
-9.057000000000002 259.03595819336056 0.0
-110.115 213.30581687354223 0.0
-120.615 213.30581687354223 0.0
-147.015 259.03195819336054 0.0
-141.765 268.1252249330972 0.0
-88.965 268.1252249330972 0.0
-83.715 259.03195819336054 0.0
-72.789 148.65881687354224 0.0
-83.289 148.65881687354224 0.0
-109.689 194.3849581933606 0.0
-104.439 203.4782249330972 0.0
-51.639 203.47822493309718 0.0
-46.389 194.38495819336057 0.0
-150.825 146.70481687354223 0.0
-161.325 146.70481687354223 0.0
-187.725 192.4309581933606 0.0
-182.475 201.5242249330972 0.0
-129.67499999999998 201.52422493309717 0.0
-124.42499999999998 192.43095819336057 0.0
-161.321 256.8341831264578 0.0
-150.821 256.8341831264578 0.0
-124.42099999999999 211.10804180663942 0.0
-129.671 202.0147750669028 0.0
-182.471 202.0147750669028 0.0
-187.721 211.10804180663942 0.0
-198.654 192.18118312645777 0.0
-188.154 192.18118312645777 0.0
-161.754 146.4550418066394 0.0
-167.004 137.3617750669028 0.0
-219.804 137.3617750669028 0.0
-225.054 146.4550418066394 0.0
-123.998 192.18618312645776 0.0
-113.498 192.18618312645776 0.0
-87.09800000000001 146.4600418066394 0.0
-92.34800000000001 137.3667750669028 0.0
-145.148 137.3667750669028 0.0
-150.398 146.4600418066394 0.0
-5.249999999999998 393.9131831264578 0.0
5.249999999999998 393.9131831264578 0.0
31.65 348.18704180663946 0.0
26.4 339.0937750669028 0.0
-26.4 339.0937750669028 0.0
-31.65 348.18704180663946 0.0
42.574999999999996 348.4208168735422 0.0
32.074999999999996 348.4208168735422 0.0
5.675000000000004 394.14695819336055 0.0
10.925000000000004 403.2402249330972 0.0
63.724999999999994 403.2402249330972 0.0
68.975 394.14695819336055 0.0
-32.07500000000001 348.4208168735422 0.0
-42.57500000000001 348.4208168735422 0.0
-68.975 394.14695819336055 0.0
-63.724999999999994 403.2402249330972 0.0
-10.925000000000004 403.2402249330972 0.0
-5.675000000000007 394.14695819336055 0.0
5.249999999999993 283.79781687354216 0.0
-5.250000000000003 283.7978168735422 0.0
-31.650000000000002 329.52395819336056 0.0
-26.4 338.6172249330972 0.0
26.4 338.6172249330972 0.0
31.65 329.5239581933606 0.0
-72.782 281.8458168735422 0.0
-83.282 281.8458168735422 0.0
-109.68199999999999 327.57195819336056 0.0
-104.43199999999999 336.6652249330972 0.0
-51.632 336.6652249330972 0.0
-46.382 327.57195819336056 0.0
-83.278 391.96018312645776 0.0
-72.778 391.96018312645776 0.0
-46.37800000000001 346.2340418066394 0.0
-51.62800000000001 337.1407750669028 0.0
-104.428 337.1407750669028 0.0
-109.678 346.2340418066394 0.0
-120.61 327.32818312645776 0.0
-110.11 327.32818312645776 0.0
-83.71000000000001 281.6020418066394 0.0
-88.96000000000001 272.5087750669028 0.0
-141.76 272.5087750669028 0.0
-147.01 281.6020418066394 0.0
-45.955 327.33318312645775 0.0
-35.455 327.33318312645775 0.0
-9.054999999999998 281.6070418066394 0.0
-14.305 272.5137750669028 0.0
-67.10499999999999 272.5137750669028 0.0
-72.35499999999999 281.6070418066394 0.0
72.762 528.9551831264578 0.0
83.262 528.9551831264578 0.0
109.662 483.22904180663943 0.0
104.412 474.1357750669028 0.0
51.612 474.1357750669028 0.0
46.362 483.22904180663943 0.0
120.574 483.44481687354227 0.0
110.074 483.44481687354227 0.0
83.674 529.1709581933607 0.0
88.924 538.2642249330972 0.0
141.724 538.2642249330972 0.0
146.974 529.1709581933607 0.0
45.94299999999999 483.45481687354226 0.0
35.44299999999999 483.45481687354226 0.0
9.042999999999996 529.1809581933607 0.0
14.293 538.2742249330972 0.0
67.09299999999999 538.2742249330972 0.0
72.34299999999999 529.1809581933607 0.0
83.267 418.86681687354223 0.0
72.767 418.86681687354223 0.0
46.367 464.5929581933606 0.0
51.617 473.6862249330972 0.0
104.417 473.6862249330972 0.0
109.667 464.5929581933606 0.0
5.249999999999997 416.92381687354225 0.0
-5.250000000000005 416.92381687354225 0.0
-31.65 462.6499581933606 0.0
-26.4 471.7432249330972 0.0
26.4 471.7432249330972 0.0
31.649999999999995 462.6499581933606 0.0
-5.250000000000001 527.0131831264578 0.0
5.250000000000001 527.0131831264578 0.0
31.65 481.2870418066394 0.0
26.4 472.1937750669028 0.0
-26.4 472.1937750669028 0.0
-31.65 481.2870418066394 0.0
-42.572 462.4201831264578 0.0
-32.072 462.42018312645774 0.0
-5.672000000000002 416.6940418066394 0.0
-10.922000000000004 407.60077506690277 0.0
-63.72200000000001 407.60077506690277 0.0
-68.97200000000001 416.69404180663935 0.0
32.072 462.42018312645774 0.0
42.572 462.4201831264578 0.0
68.97200000000001 416.69404180663935 0.0
63.72200000000001 407.60077506690277 0.0
10.922000000000004 407.60077506690277 0.0
5.672000000000002 416.6940418066394 0.0
-239.325 -281.8198168735422 0.0
-228.825 -281.8198168735422 0.0
-202.42499999999998 -327.54595819336055 0.0
-207.67499999999998 -336.6392249330972 0.0
-260.47499999999997 -336.6392249330972 0.0
-265.72499999999997 -327.54595819336055 0.0
-191.511 -327.3151831264578 0.0
-202.011 -327.3151831264578 0.0
-228.411 -281.58904180663944 0.0
-223.161 -272.4957750669028 0.0
-170.361 -272.4957750669028 0.0
-165.111 -281.58904180663944 0.0
-266.147 -327.29718312645775 0.0
-276.647 -327.29718312645775 0.0
-303.04699999999997 -281.5710418066394 0.0
-297.79699999999997 -272.4777750669028 0.0
-244.99699999999999 -272.4777750669028 0.0
-239.74699999999999 -281.5710418066394 0.0
-228.813 -391.9291831264578 0.0
-239.313 -391.92918312645776 0.0
-265.71299999999997 -346.2030418066394 0.0
-260.46299999999997 -337.1097750669028 0.0
-207.66299999999998 -337.1097750669028 0.0
-202.41299999999998 -346.20304180663936 0.0
-306.81 -393.8511831264578 0.0
-317.31 -393.8511831264578 0.0
-343.71 -348.12504180663944 0.0
-338.46 -339.0317750669028 0.0
-285.66 -339.0317750669028 0.0
-280.41 -348.12504180663944 0.0
-317.326 -283.74381687354224 0.0
-306.826 -283.74381687354224 0.0
-280.42600000000004 -329.4699581933606 0.0
-285.67600000000004 -338.5632249330972 0.0
-338.476 -338.5632249330972 0.0
-343.726 -329.4699581933606 0.0
-354.604 -348.33981687354225 0.0
-344.104 -348.33981687354225 0.0
-317.704 -394.0659581933606 0.0
-322.954 -403.1592249330972 0.0
-375.75399999999996 -403.1592249330972 0.0
-381.00399999999996 -394.0659581933606 0.0
-279.993 -348.37081687354225 0.0
-269.493 -348.37081687354225 0.0
-243.093 -394.0969581933606 0.0
-248.343 -403.1902249330972 0.0
-301.143 -403.1902249330972 0.0
-306.393 -394.0969581933606 0.0
-161.325 -146.70481687354223 0.0
-150.825 -146.70481687354223 0.0
-124.42499999999998 -192.43095819336057 0.0
-129.67499999999998 -201.52422493309717 0.0
-182.475 -201.52422493309717 0.0
-187.725 -192.43095819336057 0.0
-113.498 -192.18618312645776 0.0
-123.998 -192.18618312645776 0.0
-150.398 -146.4600418066394 0.0
-145.148 -137.3667750669028 0.0
-92.34800000000001 -137.36677506690282 0.0
-87.09800000000001 -146.46004180663942 0.0
-188.154 -192.18118312645777 0.0
-198.654 -192.18118312645777 0.0
-225.054 -146.4550418066394 0.0
-219.804 -137.3617750669028 0.0
-167.004 -137.36177506690282 0.0
-161.754 -146.45504180663943 0.0
-150.821 -256.8341831264578 0.0
-161.321 -256.8341831264578 0.0
-187.721 -211.1080418066394 0.0
-182.471 -202.01477506690279 0.0
-129.671 -202.0147750669028 0.0
-124.42099999999999 -211.10804180663942 0.0
-228.845 -258.77318312645775 0.0
-239.345 -258.77318312645775 0.0
-265.745 -213.0470418066394 0.0
-260.495 -203.9537750669028 0.0
-207.695 -203.95377506690284 0.0
-202.445 -213.04704180663944 0.0
-239.351 -148.64581687354223 0.0
-228.851 -148.64581687354223 0.0
-202.451 -194.3719581933606 0.0
-207.701 -203.4652249330972 0.0
-260.501 -203.4652249330972 0.0
-265.751 -194.3719581933606 0.0
-276.659 -213.28181687354223 0.0
-266.159 -213.28181687354223 0.0
-239.759 -259.00795819336054 0.0
-245.009 -268.10122493309717 0.0
-297.80899999999997 -268.10122493309717 0.0
-303.05899999999997 -259.00795819336054 0.0
-202.019 -213.29581687354224 0.0
-191.519 -213.29581687354224 0.0
-165.119 -259.02195819336055 0.0
-170.369 -268.1152249330972 0.0
-223.169 -268.1152249330972 0.0
-228.419 -259.02195819336055 0.0
-83.293 -11.542816873542229 0.0
-72.793 -11.542816873542229 0.0
-46.39300000000001 -57.26895819336059 0.0
-51.64300000000001 -66.3622249330972 0.0
-104.44300000000001 -66.3622249330972 0.0
-109.69300000000001 -57.26895819336059 0.0
-35.46000000000001 -57.019183126457776 0.0
-45.96000000000001 -57.019183126457776 0.0
-72.36 -11.293041806639415 0.0
-67.11 -2.19977506690281 0.0
-14.310000000000002 -2.1997750669028155 0.0
-9.060000000000002 -11.293041806639422 0.0
-110.125 -57.019183126457776 0.0
-120.625 -57.019183126457776 0.0
-147.025 -11.293041806639415 0.0
-141.775 -2.19977506690281 0.0
-88.975 -2.1997750669028155 0.0
-83.725 -11.293041806639422 0.0
-72.792 -121.68018312645776 0.0
-83.292 -121.68018312645776 0.0
-109.69200000000001 -75.95404180663942 0.0
-104.44200000000001 -66.86077506690282 0.0
-51.642 -66.86077506690282 0.0
-46.392 -75.95404180663942 0.0
-150.83 -123.62818312645777 0.0
-161.33 -123.62818312645777 0.0
-187.73000000000002 -77.90204180663942 0.0
-182.48000000000002 -68.80877506690281 0.0
-129.68 -68.80877506690281 0.0
-124.43 -77.90204180663942 0.0
-161.332 -13.491816873542225 0.0
-150.832 -13.491816873542225 0.0
-124.43199999999999 -59.21795819336057 0.0
-129.682 -68.31122493309718 0.0
-182.482 -68.31122493309718 0.0
-187.732 -59.21795819336057 0.0
-198.657 -78.14881687354223 0.0
-188.157 -78.14881687354223 0.0
-161.757 -123.87495819336058 0.0
-167.007 -132.9682249330972 0.0
-219.80700000000002 -132.9682249330972 0.0
-225.05700000000002 -123.87495819336058 0.0
-124.0 -78.15181687354223 0.0
-113.5 -78.15181687354223 0.0
-87.1 -123.87795819336057 0.0
-92.35 -132.97122493309718 0.0
-145.15 -132.97122493309718 0.0
-150.4 -123.87795819336057 0.0
-5.25 123.63118312645778 0.0
5.25 123.63118312645778 0.0
31.65 77.90504180663942 0.0
26.4 68.81177506690281 0.0
-26.4 68.81177506690281 0.0
-31.65 77.90504180663942 0.0
42.581999999999994 78.15381687354223 0.0
32.081999999999994 78.15381687354223 0.0
5.682000000000001 123.87995819336058 0.0
10.932000000000002 132.97322493309719 0.0
63.732 132.97322493309719 0.0
68.982 123.87995819336058 0.0
-32.08200000000001 78.15381687354223 0.0
-42.58200000000001 78.15381687354223 0.0
-68.982 123.87995819336058 0.0
-63.732 132.97322493309719 0.0
-10.932000000000002 132.97322493309719 0.0
-5.682000000000003 123.87995819336058 0.0
5.249999999999996 13.49281687354223 0.0
-5.250000000000004 13.492816873542232 0.0
-31.65 59.21895819336059 0.0
-26.4 68.3122249330972 0.0
26.4 68.31222493309718 0.0
31.65 59.21895819336058 0.0
-72.793 11.542816873542229 0.0
-83.293 11.542816873542229 0.0
-109.69300000000001 57.26895819336059 0.0
-104.44300000000001 66.3622249330972 0.0
-51.64300000000001 66.36222493309718 0.0
-46.39300000000001 57.268958193360575 0.0
-83.292 121.68018312645776 0.0
-72.792 121.68018312645776 0.0
-46.392 75.95404180663942 0.0
-51.642 66.86077506690282 0.0
-104.44200000000001 66.86077506690282 0.0
-109.69200000000001 75.95404180663942 0.0
-120.625 57.019183126457776 0.0
-110.125 57.019183126457776 0.0
-83.725 11.293041806639419 0.0
-88.975 2.199775066902813 0.0
-141.775 2.199775066902813 0.0
-147.025 11.293041806639419 0.0
-45.96 57.019183126457776 0.0
-35.46 57.019183126457776 0.0
-9.060000000000002 11.293041806639419 0.0
-14.310000000000002 2.199775066902813 0.0
-67.11 2.199775066902813 0.0
-72.36 11.293041806639419 0.0
72.788 258.7901831264578 0.0
83.288 258.7901831264578 0.0
109.68799999999999 213.06404180663944 0.0
104.43799999999999 203.97077506690283 0.0
51.638 203.97077506690283 0.0
46.388 213.06404180663944 0.0
120.615 213.30581687354223 0.0
110.115 213.30581687354223 0.0
83.715 259.03195819336054 0.0
88.965 268.1252249330972 0.0
141.765 268.1252249330972 0.0
147.015 259.03195819336054 0.0
45.956999999999994 213.30981687354222 0.0
35.456999999999994 213.30981687354222 0.0
9.057000000000002 259.03595819336056 0.0
14.307000000000002 268.1292249330972 0.0
67.107 268.1292249330972 0.0
72.357 259.03595819336056 0.0
83.289 148.65881687354224 0.0
72.789 148.65881687354224 0.0
46.389 194.3849581933606 0.0
51.639 203.4782249330972 0.0
104.439 203.47822493309718 0.0
109.689 194.38495819336057 0.0
5.249999999999997 146.71081687354223 0.0
-5.250000000000004 146.71081687354223 0.0
-31.65 192.4369581933606 0.0
-26.4 201.5302249330972 0.0
26.4 201.53022493309717 0.0
31.649999999999995 192.43695819336057 0.0
-5.249999999999998 256.84218312645777 0.0
5.249999999999998 256.84218312645777 0.0
31.65 211.1160418066394 0.0
26.4 202.0227750669028 0.0
-26.4 202.0227750669028 0.0
-31.65 211.1160418066394 0.0
-42.582 192.18918312645778 0.0
-32.082 192.18918312645778 0.0
-5.682000000000003 146.46304180663944 0.0
-10.932000000000002 137.36977506690283 0.0
-63.732 137.36977506690283 0.0
-68.982 146.46304180663944 0.0
32.082 192.18918312645778 0.0
42.582 192.18918312645778 0.0
68.982 146.46304180663944 0.0
63.732 137.36977506690283 0.0
10.932000000000002 137.36977506690283 0.0
5.682000000000003 146.46304180663944 0.0
150.8 393.8971831264578 0.0
161.3 393.8971831264578 0.0
187.70000000000002 348.17104180663944 0.0
182.45000000000002 339.0777750669028 0.0
129.65 339.0777750669028 0.0
124.4 348.17104180663944 0.0
198.614 348.3968168735422 0.0
188.114 348.3968168735422 0.0
161.714 394.12295819336055 0.0
166.964 403.2162249330972 0.0
219.764 403.2162249330972 0.0
225.014 394.12295819336055 0.0
123.975 348.41281687354217 0.0
113.475 348.41281687354217 0.0
87.07499999999999 394.1389581933606 0.0
92.32499999999999 403.2322249330972 0.0
145.125 403.2322249330972 0.0
150.375 394.1389581933606 0.0
161.308 283.78481687354224 0.0
150.808 283.78481687354224 0.0
124.40799999999999 329.5109581933606 0.0
129.658 338.6042249330972 0.0
182.458 338.6042249330972 0.0
187.708 329.5109581933606 0.0
83.282 281.8458168735422 0.0
72.782 281.8458168735422 0.0
46.382 327.57195819336056 0.0
51.632 336.6652249330972 0.0
104.43199999999999 336.6652249330972 0.0
109.68199999999999 327.57195819336056 0.0
72.778 391.96018312645776 0.0
83.278 391.96018312645776 0.0
109.678 346.2340418066394 0.0
104.428 337.1407750669028 0.0
51.62800000000001 337.1407750669028 0.0
46.37800000000001 346.2340418066394 0.0
35.455 327.33318312645775 0.0
45.955 327.33318312645775 0.0
72.35499999999999 281.6070418066394 0.0
67.10499999999999 272.5137750669028 0.0
14.305 272.5137750669028 0.0
9.054999999999998 281.6070418066394 0.0
110.11 327.32818312645776 0.0
120.61 327.32818312645776 0.0
147.01 281.6020418066394 0.0
141.76 272.5087750669028 0.0
88.96000000000001 272.5087750669028 0.0
83.71000000000001 281.6020418066394 0.0
161.28 416.90481687354225 0.0
150.78 416.90481687354225 0.0
124.38 462.6309581933606 0.0
129.63 471.7242249330972 0.0
182.43 471.7242249330972 0.0
187.68 462.6309581933606 0.0
150.769 526.9921831264578 0.0
161.269 526.9921831264578 0.0
187.669 481.26604180663935 0.0
182.419 472.1727750669028 0.0
129.619 472.1727750669028 0.0
124.369 481.26604180663935 0.0
113.467 462.4111831264578 0.0
123.967 462.4111831264578 0.0
150.367 416.68504180663945 0.0
145.117 407.5917750669028 0.0
92.31700000000001 407.5917750669028 0.0
87.06700000000001 416.68504180663945 0.0
188.101 462.39318312645776 0.0
198.601 462.39318312645776 0.0
225.001 416.6670418066394 0.0
219.751 407.5737750669028 0.0
166.951 407.5737750669028 0.0
161.701 416.6670418066394 0.0
-161.28 -416.90481687354225 0.0
-150.78 -416.90481687354225 0.0
-124.38 -462.6309581933606 0.0
-129.63 -471.7242249330972 0.0
-182.43 -471.7242249330972 0.0
-187.68 -462.6309581933606 0.0
-113.467 -462.4111831264578 0.0
-123.967 -462.4111831264578 0.0
-150.367 -416.68504180663945 0.0
-145.117 -407.5917750669028 0.0
-92.31700000000001 -407.5917750669028 0.0
-87.06700000000001 -416.68504180663945 0.0
-188.101 -462.39318312645776 0.0
-198.601 -462.39318312645776 0.0
-225.001 -416.6670418066394 0.0
-219.751 -407.5737750669028 0.0
-166.951 -407.5737750669028 0.0
-161.701 -416.6670418066394 0.0
-150.769 -526.9921831264578 0.0
-161.269 -526.9921831264578 0.0
-187.669 -481.26604180663935 0.0
-182.419 -472.1727750669028 0.0
-129.619 -472.1727750669028 0.0
-124.369 -481.26604180663935 0.0
-83.282 -281.8458168735422 0.0
-72.782 -281.8458168735422 0.0
-46.382 -327.57195819336056 0.0
-51.632 -336.6652249330972 0.0
-104.43199999999999 -336.6652249330972 0.0
-109.68199999999999 -327.57195819336056 0.0
-35.455000000000005 -327.3331831264578 0.0
-45.955 -327.33318312645775 0.0
-72.35499999999999 -281.6070418066394 0.0
-67.10499999999999 -272.5137750669028 0.0
-14.305 -272.5137750669028 0.0
-9.054999999999998 -281.60704180663936 0.0
-110.11 -327.32818312645776 0.0
-120.61 -327.32818312645776 0.0
-147.01 -281.6020418066394 0.0
-141.76 -272.5087750669028 0.0
-88.96000000000001 -272.5087750669028 0.0
-83.71000000000001 -281.6020418066394 0.0
-72.778 -391.96018312645776 0.0
-83.278 -391.96018312645776 0.0
-109.678 -346.2340418066394 0.0
-104.428 -337.1407750669028 0.0
-51.62800000000001 -337.1407750669028 0.0
-46.37800000000001 -346.2340418066394 0.0
-150.8 -393.8971831264578 0.0
-161.3 -393.8971831264578 0.0
-187.70000000000002 -348.17104180663944 0.0
-182.45000000000002 -339.0777750669028 0.0
-129.65 -339.0777750669028 0.0
-124.4 -348.17104180663944 0.0
-161.308 -283.78481687354224 0.0
-150.808 -283.78481687354224 0.0
-124.40799999999999 -329.5109581933606 0.0
-129.658 -338.6042249330972 0.0
-182.458 -338.6042249330972 0.0
-187.708 -329.5109581933606 0.0
-198.614 -348.3968168735422 0.0
-188.114 -348.3968168735422 0.0
-161.714 -394.12295819336055 0.0
-166.964 -403.2162249330972 0.0
-219.764 -403.2162249330972 0.0
-225.014 -394.12295819336055 0.0
-123.975 -348.41281687354217 0.0
-113.475 -348.41281687354217 0.0
-87.07499999999999 -394.1389581933606 0.0
-92.32499999999999 -403.2322249330972 0.0
-145.125 -403.2322249330972 0.0
-150.375 -394.1389581933606 0.0
-5.25 -146.71081687354223 0.0
5.25 -146.71081687354223 0.0
31.65 -192.4369581933606 0.0
26.4 -201.5302249330972 0.0
-26.4 -201.5302249330972 0.0
-31.65 -192.4369581933606 0.0
42.581999999999994 -192.18918312645778 0.0
32.081999999999994 -192.18918312645778 0.0
5.682000000000001 -146.4630418066394 0.0
10.932000000000002 -137.3697750669028 0.0
63.732 -137.36977506690283 0.0
68.982 -146.46304180663944 0.0
-32.08200000000001 -192.18918312645778 0.0
-42.58200000000001 -192.18918312645778 0.0
-68.982 -146.4630418066394 0.0
-63.732 -137.3697750669028 0.0
-10.932000000000002 -137.36977506690283 0.0
-5.682000000000005 -146.46304180663944 0.0
5.249999999999995 -256.8421831264578 0.0
-5.250000000000003 -256.84218312645777 0.0
-31.650000000000002 -211.1160418066394 0.0
-26.4 -202.0227750669028 0.0
26.4 -202.02277506690282 0.0
31.65 -211.11604180663943 0.0
-72.788 -258.7901831264578 0.0
-83.288 -258.79018312645775 0.0
-109.68799999999999 -213.0640418066394 0.0
-104.43799999999999 -203.9707750669028 0.0
-51.638 -203.97077506690283 0.0
-46.388 -213.06404180663944 0.0
-83.289 -148.65881687354224 0.0
-72.789 -148.65881687354224 0.0
-46.389 -194.38495819336057 0.0
-51.639 -203.47822493309718 0.0
-104.439 -203.47822493309718 0.0
-109.689 -194.38495819336057 0.0
-120.615 -213.30581687354223 0.0
-110.115 -213.30581687354223 0.0
-83.715 -259.03195819336054 0.0
-88.965 -268.1252249330972 0.0
-141.765 -268.1252249330972 0.0
-147.015 -259.03195819336054 0.0
-45.957 -213.30981687354222 0.0
-35.457 -213.30981687354222 0.0
-9.057000000000002 -259.03595819336056 0.0
-14.307000000000002 -268.1292249330972 0.0
-67.107 -268.1292249330972 0.0
-72.357 -259.03595819336056 0.0
72.793 -11.542816873542229 0.0
83.293 -11.542816873542229 0.0
109.69300000000001 -57.26895819336059 0.0
104.44300000000001 -66.3622249330972 0.0
51.64300000000001 -66.3622249330972 0.0
46.39300000000001 -57.26895819336059 0.0
120.625 -57.019183126457776 0.0
110.125 -57.019183126457776 0.0
83.725 -11.293041806639415 0.0
88.975 -2.19977506690281 0.0
141.775 -2.1997750669028155 0.0
147.025 -11.293041806639422 0.0
45.959999999999994 -57.019183126457776 0.0
35.459999999999994 -57.019183126457776 0.0
9.060000000000002 -11.293041806639415 0.0
14.310000000000002 -2.19977506690281 0.0
67.11 -2.1997750669028155 0.0
72.36 -11.293041806639422 0.0
83.292 -121.68018312645776 0.0
72.792 -121.68018312645776 0.0
46.392 -75.95404180663942 0.0
51.642 -66.86077506690282 0.0
104.44200000000001 -66.86077506690282 0.0
109.69200000000001 -75.95404180663942 0.0
5.249999999999995 -123.63118312645778 0.0
-5.250000000000004 -123.63118312645778 0.0
-31.65 -77.90504180663942 0.0
-26.4 -68.81177506690281 0.0
26.4 -68.81177506690281 0.0
31.65 -77.90504180663942 0.0
-5.250000000000001 -13.492816873542232 0.0
5.250000000000001 -13.492816873542232 0.0
31.65 -59.21895819336058 0.0
26.4 -68.31222493309718 0.0
-26.4 -68.31222493309718 0.0
-31.65 -59.21895819336058 0.0
-42.582 -78.15381687354223 0.0
-32.082 -78.15381687354223 0.0
-5.682000000000002 -123.87995819336058 0.0
-10.932000000000002 -132.97322493309719 0.0
-63.732 -132.97322493309719 0.0
-68.982 -123.87995819336058 0.0
32.082 -78.15381687354223 0.0
42.582 -78.15381687354223 0.0
68.982 -123.87995819336058 0.0
63.732 -132.97322493309719 0.0
10.932000000000002 -132.97322493309719 0.0
5.682000000000002 -123.87995819336058 0.0
150.83 123.62818312645777 0.0
161.33 123.62818312645777 0.0
187.73000000000002 77.90204180663942 0.0
182.48000000000002 68.80877506690281 0.0
129.68 68.80877506690281 0.0
124.43 77.90204180663942 0.0
198.657 78.14881687354223 0.0
188.157 78.14881687354223 0.0
161.757 123.87495819336058 0.0
167.007 132.9682249330972 0.0
219.80700000000002 132.9682249330972 0.0
225.05700000000002 123.87495819336058 0.0
124.0 78.15181687354223 0.0
113.5 78.15181687354223 0.0
87.1 123.8779581933606 0.0
92.35 132.9712249330972 0.0
145.15 132.97122493309718 0.0
150.4 123.87795819336057 0.0
161.332 13.491816873542225 0.0
150.832 13.491816873542227 0.0
124.43199999999999 59.21795819336059 0.0
129.682 68.3112249330972 0.0
182.482 68.31122493309718 0.0
187.732 59.21795819336057 0.0
83.293 11.542816873542227 0.0
72.793 11.542816873542229 0.0
46.39300000000001 57.26895819336059 0.0
51.64300000000001 66.3622249330972 0.0
104.44300000000001 66.36222493309718 0.0
109.69300000000001 57.268958193360575 0.0
72.792 121.68018312645776 0.0
83.292 121.68018312645776 0.0
109.69200000000001 75.95404180663942 0.0
104.44200000000001 66.86077506690282 0.0
51.642 66.86077506690282 0.0
46.392 75.95404180663942 0.0
35.46 57.019183126457776 0.0
45.96 57.019183126457776 0.0
72.36 11.293041806639419 0.0
67.11 2.199775066902813 0.0
14.310000000000002 2.199775066902813 0.0
9.060000000000002 11.293041806639419 0.0
110.125 57.019183126457776 0.0
120.625 57.019183126457776 0.0
147.025 11.293041806639419 0.0
141.775 2.199775066902813 0.0
88.975 2.199775066902813 0.0
83.725 11.293041806639419 0.0
228.845 258.77318312645775 0.0
239.345 258.77318312645775 0.0
265.745 213.04704180663944 0.0
260.495 203.95377506690284 0.0
207.695 203.95377506690284 0.0
202.445 213.04704180663944 0.0
276.659 213.28181687354223 0.0
266.159 213.28181687354223 0.0
239.759 259.00795819336054 0.0
245.009 268.10122493309717 0.0
297.80899999999997 268.10122493309717 0.0
303.05899999999997 259.00795819336054 0.0
202.019 213.29581687354224 0.0
191.519 213.29581687354224 0.0
165.119 259.02195819336055 0.0
170.369 268.1152249330972 0.0
223.169 268.1152249330972 0.0
228.419 259.02195819336055 0.0
239.351 148.64581687354223 0.0
228.851 148.64581687354223 0.0
202.451 194.3719581933606 0.0
207.701 203.4652249330972 0.0
260.501 203.46522493309718 0.0
265.751 194.37195819336057 0.0
161.325 146.70481687354223 0.0
150.825 146.70481687354223 0.0
124.42499999999998 192.4309581933606 0.0
129.67499999999998 201.5242249330972 0.0
182.475 201.52422493309717 0.0
187.725 192.43095819336057 0.0
150.821 256.8341831264578 0.0
161.321 256.8341831264578 0.0
187.721 211.10804180663942 0.0
182.471 202.0147750669028 0.0
129.671 202.0147750669028 0.0
124.42099999999999 211.10804180663942 0.0
113.498 192.18618312645776 0.0
123.998 192.18618312645776 0.0
150.398 146.4600418066394 0.0
145.148 137.3667750669028 0.0
92.34800000000001 137.3667750669028 0.0
87.09800000000001 146.4600418066394 0.0
188.154 192.18118312645777 0.0
198.654 192.18118312645777 0.0
225.054 146.4550418066394 0.0
219.804 137.3617750669028 0.0
167.004 137.3617750669028 0.0
161.754 146.4550418066394 0.0
306.81 393.8511831264578 0.0
317.31 393.8511831264578 0.0
343.71 348.12504180663944 0.0
338.46 339.0317750669028 0.0
285.66 339.0317750669028 0.0
280.41 348.12504180663944 0.0
354.604 348.33981687354225 0.0
344.104 348.33981687354225 0.0
317.704 394.0659581933606 0.0
322.954 403.1592249330972 0.0
375.75399999999996 403.1592249330972 0.0
381.00399999999996 394.0659581933606 0.0
279.993 348.37081687354225 0.0
269.493 348.37081687354225 0.0
243.093 394.0969581933606 0.0
248.343 403.1902249330972 0.0
301.143 403.1902249330972 0.0
306.393 394.0969581933606 0.0
317.326 283.74381687354224 0.0
306.826 283.74381687354224 0.0
280.42600000000004 329.4699581933606 0.0
285.67600000000004 338.5632249330972 0.0
338.476 338.5632249330972 0.0
343.726 329.4699581933606 0.0
239.325 281.8198168735422 0.0
228.825 281.8198168735422 0.0
202.42499999999998 327.54595819336055 0.0
207.67499999999998 336.6392249330972 0.0
260.47499999999997 336.6392249330972 0.0
265.72499999999997 327.54595819336055 0.0
228.813 391.9291831264578 0.0
239.313 391.92918312645776 0.0
265.71299999999997 346.2030418066394 0.0
260.46299999999997 337.1097750669028 0.0
207.66299999999998 337.1097750669028 0.0
202.41299999999998 346.20304180663936 0.0
191.511 327.3151831264578 0.0
202.011 327.3151831264578 0.0
228.411 281.58904180663944 0.0
223.161 272.4957750669028 0.0
170.361 272.4957750669028 0.0
165.111 281.58904180663944 0.0
266.147 327.29718312645775 0.0
276.647 327.29718312645775 0.0
303.04699999999997 281.5710418066394 0.0
297.79699999999997 272.4777750669028 0.0
244.99699999999999 272.4777750669028 0.0
239.74699999999999 281.5710418066394 0.0
-5.250000000000001 -416.92381687354225 0.0
5.250000000000001 -416.92381687354225 0.0
31.65 -462.6499581933606 0.0
26.4 -471.7432249330972 0.0
-26.4 -471.7432249330972 0.0
-31.65 -462.6499581933606 0.0
42.571999999999996 -462.4201831264578 0.0
32.071999999999996 -462.42018312645774 0.0
5.6720000000000015 -416.6940418066394 0.0
10.922000000000004 -407.60077506690277 0.0
63.72200000000001 -407.60077506690277 0.0
68.97200000000001 -416.69404180663935 0.0
-32.07200000000001 -462.4201831264578 0.0
-42.57200000000001 -462.42018312645774 0.0
-68.97200000000001 -416.6940418066394 0.0
-63.72200000000001 -407.60077506690277 0.0
-10.922000000000004 -407.60077506690277 0.0
-5.672000000000002 -416.69404180663935 0.0
5.249999999999997 -527.0131831264578 0.0
-5.250000000000005 -527.0131831264578 0.0
-31.65 -481.2870418066394 0.0
-26.4 -472.1937750669028 0.0
26.4 -472.1937750669028 0.0
31.649999999999995 -481.2870418066394 0.0
-72.762 -528.9551831264578 0.0
-83.262 -528.9551831264578 0.0
-109.662 -483.22904180663943 0.0
-104.412 -474.1357750669028 0.0
-51.612 -474.1357750669028 0.0
-46.362 -483.22904180663943 0.0
-83.267 -418.86681687354223 0.0
-72.767 -418.86681687354223 0.0
-46.367 -464.5929581933606 0.0
-51.617 -473.6862249330972 0.0
-104.417 -473.6862249330972 0.0
-109.667 -464.5929581933606 0.0
-120.574 -483.44481687354227 0.0
-110.074 -483.44481687354227 0.0
-83.674 -529.1709581933607 0.0
-88.924 -538.2642249330972 0.0
-141.724 -538.2642249330972 0.0
-146.974 -529.1709581933607 0.0
-45.943 -483.45481687354226 0.0
-35.443 -483.45481687354226 0.0
-9.042999999999997 -529.1809581933607 0.0
-14.293 -538.2742249330972 0.0
-67.09299999999999 -538.2742249330972 0.0
-72.34299999999999 -529.1809581933607 0.0
72.782 -281.8458168735422 0.0
83.282 -281.8458168735422 0.0
109.68199999999999 -327.57195819336056 0.0
104.43199999999999 -336.6652249330972 0.0
51.632 -336.6652249330972 0.0
46.382 -327.57195819336056 0.0
120.61 -327.32818312645776 0.0
110.11 -327.32818312645776 0.0
83.71000000000001 -281.6020418066394 0.0
88.96000000000001 -272.5087750669028 0.0
141.76 -272.5087750669028 0.0
147.01 -281.6020418066394 0.0
45.95499999999999 -327.33318312645775 0.0
35.45499999999999 -327.33318312645775 0.0
9.054999999999996 -281.6070418066394 0.0
14.305 -272.5137750669028 0.0
67.10499999999999 -272.5137750669028 0.0
72.35499999999999 -281.6070418066394 0.0
83.278 -391.96018312645776 0.0
72.778 -391.96018312645776 0.0
46.37800000000001 -346.2340418066394 0.0
51.62800000000001 -337.1407750669028 0.0
104.428 -337.1407750669028 0.0
109.678 -346.2340418066394 0.0
5.249999999999993 -393.91318312645785 0.0
-5.250000000000003 -393.9131831264578 0.0
-31.650000000000002 -348.18704180663946 0.0
-26.4 -339.0937750669028 0.0
26.4 -339.0937750669028 0.0
31.65 -348.1870418066394 0.0
-5.249999999999998 -283.7978168735422 0.0
5.249999999999998 -283.7978168735422 0.0
31.65 -329.52395819336056 0.0
26.4 -338.6172249330972 0.0
-26.4 -338.6172249330972 0.0
-31.65 -329.52395819336056 0.0
-42.575 -348.4208168735422 0.0
-32.075 -348.4208168735422 0.0
-5.675000000000005 -394.14695819336055 0.0
-10.925000000000004 -403.2402249330972 0.0
-63.724999999999994 -403.2402249330972 0.0
-68.975 -394.14695819336055 0.0
32.075 -348.4208168735422 0.0
42.575 -348.4208168735422 0.0
68.975 -394.14695819336055 0.0
63.724999999999994 -403.2402249330972 0.0
10.925000000000004 -403.2402249330972 0.0
5.675000000000005 -394.14695819336055 0.0
150.825 -146.70481687354223 0.0
161.325 -146.70481687354223 0.0
187.725 -192.43095819336057 0.0
182.475 -201.52422493309717 0.0
129.67499999999998 -201.52422493309717 0.0
124.42499999999998 -192.43095819336057 0.0
198.654 -192.18118312645777 0.0
188.154 -192.18118312645777 0.0
161.754 -146.4550418066394 0.0
167.004 -137.3617750669028 0.0
219.804 -137.36177506690282 0.0
225.054 -146.45504180663943 0.0
123.998 -192.18618312645776 0.0
113.498 -192.18618312645776 0.0
87.09800000000001 -146.4600418066394 0.0
92.34800000000001 -137.3667750669028 0.0
145.148 -137.36677506690282 0.0
150.398 -146.46004180663942 0.0
161.321 -256.8341831264578 0.0
150.821 -256.8341831264578 0.0
124.42099999999999 -211.1080418066394 0.0
129.671 -202.01477506690279 0.0
182.471 -202.0147750669028 0.0
187.721 -211.10804180663942 0.0
83.288 -258.7901831264578 0.0
72.788 -258.79018312645775 0.0
46.388 -213.0640418066394 0.0
51.638 -203.9707750669028 0.0
104.43799999999999 -203.97077506690283 0.0
109.68799999999999 -213.06404180663944 0.0
72.789 -148.65881687354224 0.0
83.289 -148.65881687354224 0.0
109.689 -194.38495819336057 0.0
104.439 -203.47822493309718 0.0
51.639 -203.47822493309718 0.0
46.389 -194.38495819336057 0.0
35.457 -213.30981687354222 0.0
45.957 -213.30981687354222 0.0
72.357 -259.03595819336056 0.0
67.107 -268.1292249330972 0.0
14.307000000000002 -268.1292249330972 0.0
9.057000000000002 -259.03595819336056 0.0
110.115 -213.30581687354223 0.0
120.615 -213.30581687354223 0.0
147.015 -259.03195819336054 0.0
141.765 -268.1252249330972 0.0
88.965 -268.1252249330972 0.0
83.715 -259.03195819336054 0.0
228.863 -11.539816873542227 0.0
239.363 -11.539816873542229 0.0
265.763 -57.265958193360575 0.0
260.513 -66.35922493309718 0.0
207.713 -66.35922493309718 0.0
202.463 -57.265958193360575 0.0
276.686 -57.017183126457766 0.0
266.186 -57.017183126457766 0.0
239.78599999999997 -11.291041806639413 0.0
245.03599999999997 -2.1977750669028078 0.0
297.83599999999996 -2.197775066902813 0.0
303.08599999999996 -11.29104180663942 0.0
202.037 -57.01818312645777 0.0
191.537 -57.01818312645777 0.0
165.137 -11.292041806639414 0.0
170.387 -2.198775066902809 0.0
223.187 -2.1987750669028143 0.0
228.437 -11.292041806639421 0.0
239.361 -121.67418312645779 0.0
228.861 -121.67418312645779 0.0
202.46099999999998 -75.94804180663942 0.0
207.71099999999998 -66.85477506690282 0.0
260.51099999999997 -66.85477506690282 0.0
265.76099999999997 -75.94804180663942 0.0
161.33 -123.62818312645777 0.0
150.83 -123.62818312645777 0.0
124.43 -77.90204180663942 0.0
129.68 -68.80877506690281 0.0
182.48000000000002 -68.80877506690281 0.0
187.73000000000002 -77.90204180663942 0.0
150.832 -13.491816873542225 0.0
161.332 -13.491816873542225 0.0
187.732 -59.21795819336057 0.0
182.482 -68.31122493309718 0.0
129.682 -68.31122493309718 0.0
124.43199999999999 -59.21795819336057 0.0
113.5 -78.15181687354223 0.0
124.0 -78.15181687354223 0.0
150.4 -123.87795819336057 0.0
145.15 -132.97122493309718 0.0
92.35 -132.97122493309718 0.0
87.1 -123.87795819336057 0.0
188.157 -78.14881687354223 0.0
198.657 -78.14881687354223 0.0
225.05700000000002 -123.87495819336058 0.0
219.80700000000002 -132.9682249330972 0.0
167.007 -132.9682249330972 0.0
161.757 -123.87495819336058 0.0
306.876 123.61818312645775 0.0
317.376 123.61818312645775 0.0
343.77599999999995 77.89204180663941 0.0
338.52599999999995 68.7987750669028 0.0
285.726 68.7987750669028 0.0
280.476 77.89204180663941 0.0
354.686 78.13381687354223 0.0
344.186 78.13381687354223 0.0
317.786 123.8599581933606 0.0
323.036 132.9532249330972 0.0
375.83599999999996 132.95322493309718 0.0
381.08599999999996 123.85995819336057 0.0
280.057 78.14181687354223 0.0
269.557 78.14181687354223 0.0
243.157 123.86795819336058 0.0
248.407 132.96122493309718 0.0
301.207 132.96122493309718 0.0
306.457 123.86795819336058 0.0
317.379 13.486816873542232 0.0
306.879 13.486816873542232 0.0
280.47900000000004 59.21295819336059 0.0
285.72900000000004 68.3062249330972 0.0
338.529 68.30622493309718 0.0
343.779 59.21295819336058 0.0
239.363 11.539816873542229 0.0
228.863 11.539816873542229 0.0
202.463 57.26595819336059 0.0
207.713 66.3592249330972 0.0
260.513 66.35922493309718 0.0
265.763 57.265958193360575 0.0
228.861 121.67418312645779 0.0
239.361 121.67418312645779 0.0
265.76099999999997 75.94804180663942 0.0
260.51099999999997 66.85477506690282 0.0
207.71099999999998 66.85477506690282 0.0
202.46099999999998 75.94804180663942 0.0
191.537 57.01818312645777 0.0
202.037 57.01818312645777 0.0
228.437 11.292041806639418 0.0
223.187 2.1987750669028117 0.0
170.387 2.1987750669028117 0.0
165.137 11.292041806639418 0.0
266.186 57.017183126457766 0.0
276.686 57.017183126457766 0.0
303.08599999999996 11.291041806639416 0.0
297.83599999999996 2.1977750669028104 0.0
245.03599999999997 2.1977750669028104 0.0
239.78599999999997 11.291041806639416 0.0
384.842 258.73518312645774 0.0
395.342 258.73518312645774 0.0
421.74199999999996 213.00904180663943 0.0
416.49199999999996 203.91577506690282 0.0
363.692 203.91577506690282 0.0
358.442 213.00904180663943 0.0
432.632 213.23381687354222 0.0
422.132 213.23381687354222 0.0
395.732 258.95995819336054 0.0
400.982 268.05322493309717 0.0
453.782 268.05322493309717 0.0
459.032 258.95995819336054 0.0
358.032 213.25981687354223 0.0
347.532 213.25981687354223 0.0
321.132 258.9859581933606 0.0
326.382 268.0792249330972 0.0
379.18199999999996 268.0792249330972 0.0
384.43199999999996 258.9859581933606 0.0
395.354 148.61581687354223 0.0
384.854 148.61581687354223 0.0
358.454 194.3419581933606 0.0
363.704 203.4352249330972 0.0
416.50399999999996 203.43522493309717 0.0
421.75399999999996 194.34195819336057 0.0
317.363 146.68381687354224 0.0
306.863 146.68381687354224 0.0
280.463 192.4099581933606 0.0
285.713 201.50322493309721 0.0
338.513 201.5032249330972 0.0
343.763 192.40995819336058 0.0
306.854 256.80718312645774 0.0
317.354 256.80718312645774 0.0
343.75399999999996 211.08104180663943 0.0
338.50399999999996 201.98777506690283 0.0
285.704 201.98777506690283 0.0
280.454 211.08104180663943 0.0
269.551 192.17118312645778 0.0
280.051 192.17118312645778 0.0
306.45099999999996 146.4450418066394 0.0
301.20099999999996 137.3517750669028 0.0
248.40099999999998 137.3517750669028 0.0
243.15099999999998 146.4450418066394 0.0
344.179 192.15918312645778 0.0
354.679 192.15918312645778 0.0
381.07899999999995 146.4330418066394 0.0
375.82899999999995 137.3397750669028 0.0
323.029 137.3397750669028 0.0
317.779 146.4330418066394 0.0
395.308 281.7648168735422 0.0
384.808 281.7648168735422 0.0
358.408 327.49095819336054 0.0
363.658 336.5842249330972 0.0
416.45799999999997 336.5842249330972 0.0
421.70799999999997 327.49095819336054 0.0
384.789 391.8681831264578 0.0
395.289 391.8681831264578 0.0
421.68899999999996 346.14204180663944 0.0
416.43899999999996 337.0487750669028 0.0
363.639 337.0487750669028 0.0
358.389 346.14204180663944 0.0
347.516 327.27118312645774 0.0
358.016 327.27118312645774 0.0
384.416 281.5450418066394 0.0
379.166 272.45177506690277 0.0
326.36600000000004 272.45177506690277 0.0
321.11600000000004 281.5450418066394 0.0
422.113 327.24118312645777 0.0
432.613 327.24118312645777 0.0
459.013 281.51504180663943 0.0
453.763 272.4217750669028 0.0
400.963 272.4217750669028 0.0
395.713 281.51504180663943 0.0
150.78 -416.90481687354225 0.0
161.28 -416.90481687354225 0.0
187.68 -462.6309581933606 0.0
182.43 -471.7242249330972 0.0
129.63 -471.7242249330972 0.0
124.38 -462.6309581933606 0.0
198.601 -462.39318312645776 0.0
188.101 -462.39318312645776 0.0
161.701 -416.6670418066394 0.0
166.951 -407.5737750669028 0.0
219.751 -407.5737750669028 0.0
225.001 -416.6670418066394 0.0
123.967 -462.4111831264578 0.0
113.467 -462.4111831264578 0.0
87.06700000000001 -416.68504180663945 0.0
92.31700000000001 -407.5917750669028 0.0
145.117 -407.5917750669028 0.0
150.367 -416.68504180663945 0.0
161.269 -526.9921831264578 0.0
150.769 -526.9921831264578 0.0
124.369 -481.26604180663935 0.0
129.619 -472.1727750669028 0.0
182.419 -472.1727750669028 0.0
187.669 -481.26604180663935 0.0
83.262 -528.9551831264578 0.0
72.762 -528.9551831264578 0.0
46.362 -483.22904180663943 0.0
51.612 -474.1357750669028 0.0
104.412 -474.1357750669028 0.0
109.662 -483.22904180663943 0.0
72.767 -418.86681687354223 0.0
83.267 -418.86681687354223 0.0
109.667 -464.5929581933606 0.0
104.417 -473.6862249330972 0.0
51.617 -473.6862249330972 0.0
46.367 -464.5929581933606 0.0
35.443 -483.45481687354226 0.0
45.943 -483.45481687354226 0.0
72.34299999999999 -529.1809581933607 0.0
67.09299999999999 -538.2742249330972 0.0
14.293 -538.2742249330972 0.0
9.042999999999997 -529.1809581933607 0.0
110.074 -483.44481687354227 0.0
120.574 -483.44481687354227 0.0
146.974 -529.1709581933607 0.0
141.724 -538.2642249330972 0.0
88.924 -538.2642249330972 0.0
83.674 -529.1709581933607 0.0
228.825 -281.8198168735422 0.0
239.325 -281.8198168735422 0.0
265.72499999999997 -327.54595819336055 0.0
260.47499999999997 -336.6392249330972 0.0
207.67499999999998 -336.6392249330972 0.0
202.42499999999998 -327.54595819336055 0.0
276.647 -327.29718312645775 0.0
266.147 -327.29718312645775 0.0
239.74699999999999 -281.5710418066394 0.0
244.99699999999999 -272.4777750669028 0.0
297.79699999999997 -272.4777750669028 0.0
303.04699999999997 -281.5710418066394 0.0
202.011 -327.3151831264578 0.0
191.511 -327.3151831264578 0.0
165.111 -281.58904180663944 0.0
170.361 -272.4957750669028 0.0
223.161 -272.4957750669028 0.0
228.411 -281.58904180663944 0.0
239.313 -391.92918312645776 0.0
228.813 -391.9291831264578 0.0
202.41299999999998 -346.20304180663936 0.0
207.66299999999998 -337.1097750669028 0.0
260.46299999999997 -337.1097750669028 0.0
265.71299999999997 -346.2030418066394 0.0
161.3 -393.8971831264578 0.0
150.8 -393.8971831264578 0.0
124.4 -348.17104180663944 0.0
129.65 -339.0777750669028 0.0
182.45000000000002 -339.0777750669028 0.0
187.70000000000002 -348.17104180663944 0.0
150.808 -283.78481687354224 0.0
161.308 -283.78481687354224 0.0
187.708 -329.5109581933606 0.0
182.458 -338.6042249330972 0.0
129.658 -338.6042249330972 0.0
124.40799999999999 -329.5109581933606 0.0
113.475 -348.41281687354217 0.0
123.975 -348.41281687354217 0.0
150.375 -394.1389581933606 0.0
145.125 -403.2322249330972 0.0
92.32499999999999 -403.2322249330972 0.0
87.07499999999999 -394.1389581933606 0.0
188.114 -348.3968168735422 0.0
198.614 -348.3968168735422 0.0
225.014 -394.12295819336055 0.0
219.764 -403.2162249330972 0.0
166.964 -403.2162249330972 0.0
161.714 -394.12295819336055 0.0
306.863 -146.68381687354224 0.0
317.363 -146.68381687354224 0.0
343.763 -192.4099581933606 0.0
338.513 -201.50322493309721 0.0
285.713 -201.50322493309721 0.0
280.463 -192.4099581933606 0.0
354.679 -192.15918312645778 0.0
344.179 -192.15918312645778 0.0
317.779 -146.4330418066394 0.0
323.029 -137.3397750669028 0.0
375.82899999999995 -137.33977506690283 0.0
381.07899999999995 -146.43304180663944 0.0
280.051 -192.17118312645778 0.0
269.551 -192.17118312645778 0.0
243.15099999999998 -146.4450418066394 0.0
248.40099999999998 -137.3517750669028 0.0
301.20099999999996 -137.35177506690283 0.0
306.45099999999996 -146.44504180663944 0.0
317.354 -256.80718312645774 0.0
306.854 -256.80718312645774 0.0
280.454 -211.0810418066394 0.0
285.704 -201.9877750669028 0.0
338.50399999999996 -201.98777506690283 0.0
343.75399999999996 -211.08104180663943 0.0
239.345 -258.77318312645775 0.0
228.845 -258.77318312645775 0.0
202.445 -213.0470418066394 0.0
207.695 -203.9537750669028 0.0
260.495 -203.95377506690284 0.0
265.745 -213.04704180663944 0.0
228.851 -148.64581687354223 0.0
239.351 -148.64581687354223 0.0
265.751 -194.3719581933606 0.0
260.501 -203.4652249330972 0.0
207.701 -203.4652249330972 0.0
202.451 -194.3719581933606 0.0
191.519 -213.29581687354224 0.0
202.019 -213.29581687354224 0.0
228.419 -259.02195819336055 0.0
223.169 -268.1152249330972 0.0
170.369 -268.1152249330972 0.0
165.119 -259.02195819336055 0.0
266.159 -213.28181687354223 0.0
276.659 -213.28181687354223 0.0
303.05899999999997 -259.00795819336054 0.0
297.80899999999997 -268.10122493309717 0.0
245.009 -268.10122493309717 0.0
239.759 -259.00795819336054 0.0
384.875 -11.532816873542231 0.0
395.375 -11.532816873542231 0.0
421.775 -57.258958193360584 0.0
416.525 -66.35222493309719 0.0
363.725 -66.35222493309719 0.0
358.475 -57.258958193360584 0.0
432.678 -57.01218312645777 0.0
422.178 -57.01218312645777 0.0
395.778 -11.286041806639414 0.0
401.028 -2.1927750669028088 0.0
453.828 -2.192775066902814 0.0
459.078 -11.286041806639421 0.0
358.069 -57.01518312645777 0.0
347.569 -57.01518312645777 0.0
321.16900000000004 -11.289041806639414 0.0
326.41900000000004 -2.195775066902809 0.0
379.219 -2.195775066902814 0.0
384.469 -11.289041806639421 0.0
395.371 -121.66018312645778 0.0
384.871 -121.66018312645778 0.0
358.471 -75.93404180663941 0.0
363.721 -66.84077506690281 0.0
416.52099999999996 -66.84077506690281 0.0
421.77099999999996 -75.93404180663941 0.0
317.376 -123.61818312645775 0.0
306.876 -123.61818312645775 0.0
280.476 -77.89204180663941 0.0
285.726 -68.7987750669028 0.0
338.52599999999995 -68.7987750669028 0.0
343.77599999999995 -77.89204180663941 0.0
306.879 -13.486816873542232 0.0
317.379 -13.486816873542232 0.0
343.779 -59.21295819336058 0.0
338.529 -68.30622493309718 0.0
285.72900000000004 -68.30622493309718 0.0
280.47900000000004 -59.21295819336058 0.0
269.557 -78.14181687354223 0.0
280.057 -78.14181687354223 0.0
306.457 -123.86795819336058 0.0
301.207 -132.96122493309718 0.0
248.407 -132.96122493309718 0.0
243.157 -123.86795819336058 0.0
344.186 -78.13381687354223 0.0
354.686 -78.13381687354223 0.0
381.08599999999996 -123.8599581933606 0.0
375.83599999999996 -132.9532249330972 0.0
323.036 -132.9532249330972 0.0
317.786 -123.8599581933606 0.0
462.84 123.59918312645777 0.0
473.34 123.59918312645777 0.0
499.73999999999995 77.87304180663942 0.0
494.48999999999995 68.77977506690281 0.0
441.69 68.77977506690281 0.0
436.44 77.87304180663942 0.0
510.623 78.10681687354223 0.0
500.123 78.10681687354223 0.0
473.723 123.83295819336058 0.0
478.973 132.9262249330972 0.0
531.773 132.9262249330972 0.0
537.023 123.83295819336058 0.0
436.043 78.12081687354222 0.0
425.543 78.12081687354222 0.0
399.14300000000003 123.84695819336059 0.0
404.39300000000003 132.9402249330972 0.0
457.193 132.94022493309717 0.0
462.443 123.84695819336056 0.0
473.345 13.476816873542226 0.0
462.845 13.476816873542226 0.0
436.44500000000005 59.20295819336059 0.0
441.69500000000005 68.29622493309719 0.0
494.495 68.29622493309718 0.0
499.745 59.20295819336057 0.0
395.375 11.532816873542231 0.0
384.875 11.532816873542231 0.0
358.475 57.258958193360584 0.0
363.725 66.35222493309719 0.0
416.525 66.35222493309719 0.0
421.775 57.258958193360584 0.0
384.871 121.66018312645778 0.0
395.371 121.66018312645778 0.0
421.77099999999996 75.93404180663941 0.0
416.52099999999996 66.84077506690281 0.0
363.721 66.84077506690281 0.0
358.471 75.93404180663941 0.0
347.569 57.01518312645777 0.0
358.069 57.01518312645777 0.0
384.469 11.289041806639418 0.0
379.219 2.1957750669028115 0.0
326.41900000000004 2.1957750669028115 0.0
321.16900000000004 11.289041806639418 0.0
422.178 57.01218312645777 0.0
432.678 57.01218312645777 0.0
459.078 11.286041806639417 0.0
453.828 2.1927750669028114 0.0
401.028 2.1927750669028114 0.0
395.778 11.286041806639417 0.0
473.32 146.64481687354223 0.0
462.82 146.64481687354223 0.0
436.42 192.3709581933606 0.0
441.67 201.4642249330972 0.0
494.46999999999997 201.46422493309717 0.0
499.71999999999997 192.37095819336056 0.0
462.806 256.75918312645774 0.0
473.306 256.75918312645774 0.0
499.70599999999996 211.03304180663943 0.0
494.45599999999996 201.93977506690283 0.0
441.656 201.93977506690283 0.0
436.406 211.03304180663943 0.0
425.533 192.14118312645778 0.0
436.033 192.14118312645778 0.0
462.433 146.41504180663944 0.0
457.183 137.32177506690283 0.0
404.38300000000004 137.32177506690283 0.0
399.13300000000004 146.41504180663944 0.0
500.112 192.12218312645777 0.0
510.612 192.12218312645777 0.0
537.0120000000001 146.39604180663943 0.0
531.7620000000001 137.30277506690283 0.0
478.96200000000005 137.30277506690283 0.0
473.71200000000005 146.39604180663943 0.0
384.808 -281.7648168735422 0.0
395.308 -281.7648168735422 0.0
421.70799999999997 -327.49095819336054 0.0
416.45799999999997 -336.5842249330972 0.0
363.658 -336.5842249330972 0.0
358.408 -327.49095819336054 0.0
432.613 -327.24118312645777 0.0
422.113 -327.24118312645777 0.0
395.713 -281.51504180663943 0.0
400.963 -272.4217750669028 0.0
453.763 -272.4217750669028 0.0
459.013 -281.51504180663943 0.0
358.016 -327.27118312645774 0.0
347.516 -327.27118312645774 0.0
321.11600000000004 -281.5450418066394 0.0
326.36600000000004 -272.45177506690277 0.0
379.166 -272.45177506690277 0.0
384.416 -281.5450418066394 0.0
395.289 -391.8681831264578 0.0
384.789 -391.8681831264578 0.0
358.389 -346.14204180663944 0.0
363.639 -337.0487750669028 0.0
416.43899999999996 -337.0487750669028 0.0
421.68899999999996 -346.14204180663944 0.0
317.31 -393.8511831264578 0.0
306.81 -393.8511831264578 0.0
280.41 -348.12504180663944 0.0
285.66 -339.0317750669028 0.0
338.46 -339.0317750669028 0.0
343.71 -348.12504180663944 0.0
306.826 -283.74381687354224 0.0
317.326 -283.74381687354224 0.0
343.726 -329.4699581933606 0.0
338.476 -338.5632249330972 0.0
285.67600000000004 -338.5632249330972 0.0
280.42600000000004 -329.4699581933606 0.0
269.493 -348.37081687354225 0.0
279.993 -348.37081687354225 0.0
306.393 -394.0969581933606 0.0
301.143 -403.1902249330972 0.0
248.343 -403.1902249330972 0.0
243.093 -394.0969581933606 0.0
344.104 -348.33981687354225 0.0
354.604 -348.33981687354225 0.0
381.00399999999996 -394.0659581933606 0.0
375.75399999999996 -403.1592249330972 0.0
322.954 -403.1592249330972 0.0
317.704 -394.0659581933606 0.0
462.82 -146.64481687354223 0.0
473.32 -146.64481687354223 0.0
499.71999999999997 -192.37095819336056 0.0
494.46999999999997 -201.46422493309717 0.0
441.67 -201.46422493309717 0.0
436.42 -192.37095819336056 0.0
510.612 -192.12218312645777 0.0
500.112 -192.12218312645777 0.0
473.71200000000005 -146.3960418066394 0.0
478.96200000000005 -137.3027750669028 0.0
531.7620000000001 -137.30277506690283 0.0
537.0120000000001 -146.39604180663943 0.0
436.033 -192.14118312645778 0.0
425.533 -192.14118312645778 0.0
399.13300000000004 -146.4150418066394 0.0
404.38300000000004 -137.3217750669028 0.0
457.183 -137.32177506690283 0.0
462.433 -146.41504180663944 0.0
473.306 -256.75918312645774 0.0
462.806 -256.75918312645774 0.0
436.406 -211.0330418066394 0.0
441.656 -201.9397750669028 0.0
494.45599999999996 -201.93977506690283 0.0
499.70599999999996 -211.03304180663943 0.0
395.342 -258.73518312645774 0.0
384.842 -258.73518312645774 0.0
358.442 -213.0090418066394 0.0
363.692 -203.9157750669028 0.0
416.49199999999996 -203.91577506690282 0.0
421.74199999999996 -213.00904180663943 0.0
384.854 -148.61581687354223 0.0
395.354 -148.61581687354223 0.0
421.75399999999996 -194.34195819336057 0.0
416.50399999999996 -203.43522493309717 0.0
363.704 -203.43522493309717 0.0
358.454 -194.34195819336057 0.0
347.532 -213.25981687354223 0.0
358.032 -213.25981687354223 0.0
384.43199999999996 -258.9859581933606 0.0
379.18199999999996 -268.0792249330972 0.0
326.382 -268.0792249330972 0.0
321.132 -258.9859581933606 0.0
422.132 -213.23381687354222 0.0
432.632 -213.23381687354222 0.0
459.032 -258.95995819336054 0.0
453.782 -268.05322493309717 0.0
400.982 -268.05322493309717 0.0
395.732 -258.95995819336054 0.0
473.34 -123.59918312645777 0.0
462.84 -123.59918312645777 0.0
436.44 -77.87304180663942 0.0
441.69 -68.77977506690281 0.0
494.48999999999995 -68.77977506690281 0.0
499.73999999999995 -77.87304180663942 0.0
462.845 -13.476816873542226 0.0
473.345 -13.476816873542226 0.0
499.745 -59.20295819336059 0.0
494.495 -68.29622493309719 0.0
441.69500000000005 -68.29622493309719 0.0
436.44500000000005 -59.20295819336059 0.0
425.543 -78.12081687354222 0.0
436.043 -78.12081687354222 0.0
462.443 -123.84695819336056 0.0
457.193 -132.94022493309717 0.0
404.39300000000003 -132.94022493309717 0.0
399.14300000000003 -123.84695819336056 0.0
500.123 -78.10681687354223 0.0
510.623 -78.10681687354223 0.0
537.023 -123.83295819336058 0.0
531.773 -132.9262249330972 0.0
478.973 -132.9262249330972 0.0
473.723 -123.83295819336058 0.0
6 0 1 2 3 4 5
6 6 7 8 9 10 11
6 12 13 14 15 16 17
6 18 19 20 21 22 23
6 24 25 26 27 28 29
6 30 31 32 33 34 35
6 36 37 38 39 40 41
6 42 43 44 45 46 47
6 48 49 50 51 52 53
6 54 55 56 57 58 59
6 60 61 62 63 64 65
6 66 67 68 69 70 71
6 72 73 74 75 76 77
6 78 79 80 81 82 83
6 84 85 86 87 88 89
6 90 91 92 93 94 95
6 96 97 98 99 100 101
6 102 103 104 105 106 107
6 108 109 110 111 112 113
6 114 115 116 117 118 119
6 120 121 122 123 124 125
6 126 127 128 129 130 131
6 132 133 134 135 136 137
6 138 139 140 141 142 143
6 144 145 146 147 148 149
6 150 151 152 153 154 155
6 156 157 158 159 160 161
6 162 163 164 165 166 167
6 168 169 170 171 172 173
6 174 175 176 177 178 179
6 180 181 182 183 184 185
6 186 187 188 189 190 191
6 192 193 194 195 196 197
6 198 199 200 201 202 203
6 204 205 206 207 208 209
6 210 211 212 213 214 215
6 216 217 218 219 220 221
6 222 223 224 225 226 227
6 228 229 230 231 232 233
6 234 235 236 237 238 239
6 240 241 242 243 244 245
6 246 247 248 249 250 251
6 252 253 254 255 256 257
6 258 259 260 261 262 263
6 264 265 266 267 268 269
6 270 271 272 273 274 275
6 276 277 278 279 280 281
6 282 283 284 285 286 287
6 288 289 290 291 292 293
6 294 295 296 297 298 299
6 300 301 302 303 304 305
6 306 307 308 309 310 311
6 312 313 314 315 316 317
6 318 319 320 321 322 323
6 324 325 326 327 328 329
6 330 331 332 333 334 335
6 336 337 338 339 340 341
6 342 343 344 345 346 347
6 348 349 350 351 352 353
6 354 355 356 357 358 359
6 360 361 362 363 364 365
6 366 367 368 369 370 371
6 372 373 374 375 376 377
6 378 379 380 381 382 383
6 384 385 386 387 388 389
6 390 391 392 393 394 395
6 396 397 398 399 400 401
6 402 403 404 405 406 407
6 408 409 410 411 412 413
6 414 415 416 417 418 419
6 420 421 422 423 424 425
6 426 427 428 429 430 431
6 432 433 434 435 436 437
6 438 439 440 441 442 443
6 444 445 446 447 448 449
6 450 451 452 453 454 455
6 456 457 458 459 460 461
6 462 463 464 465 466 467
6 468 469 470 471 472 473
6 474 475 476 477 478 479
6 480 481 482 483 484 485
6 486 487 488 489 490 491
6 492 493 494 495 496 497
6 498 499 500 501 502 503
6 504 505 506 507 508 509
6 510 511 512 513 514 515
6 516 517 518 519 520 521
6 522 523 524 525 526 527
6 528 529 530 531 532 533
6 534 535 536 537 538 539
6 540 541 542 543 544 545
6 546 547 548 549 550 551
6 552 553 554 555 556 557
6 558 559 560 561 562 563
6 564 565 566 567 568 569
6 570 571 572 573 574 575
6 576 577 578 579 580 581
6 582 583 584 585 586 587
6 588 589 590 591 592 593
6 594 595 596 597 598 599
6 600 601 602 603 604 605
6 606 607 608 609 610 611
6 612 613 614 615 616 617
6 618 619 620 621 622 623
6 624 625 626 627 628 629
6 630 631 632 633 634 635
6 636 637 638 639 640 641
6 642 643 644 645 646 647
6 648 649 650 651 652 653
6 654 655 656 657 658 659
6 660 661 662 663 664 665
6 666 667 668 669 670 671
6 672 673 674 675 676 677
6 678 679 680 681 682 683
6 684 685 686 687 688 689
6 690 691 692 693 694 695
6 696 697 698 699 700 701
6 702 703 704 705 706 707
6 708 709 710 711 712 713
6 714 715 716 717 718 719
6 720 721 722 723 724 725
6 726 727 728 729 730 731
6 732 733 734 735 736 737
6 738 739 740 741 742 743
6 744 745 746 747 748 749
6 750 751 752 753 754 755
6 756 757 758 759 760 761
6 762 763 764 765 766 767
6 768 769 770 771 772 773
6 774 775 776 777 778 779
6 780 781 782 783 784 785
6 786 787 788 789 790 791
6 792 793 794 795 796 797
6 798 799 800 801 802 803
6 804 805 806 807 808 809
6 810 811 812 813 814 815
6 816 817 818 819 820 821
6 822 823 824 825 826 827
6 828 829 830 831 832 833
6 834 835 836 837 838 839
6 840 841 842 843 844 845
6 846 847 848 849 850 851
6 852 853 854 855 856 857
6 858 859 860 861 862 863
6 864 865 866 867 868 869
6 870 871 872 873 874 875
6 876 877 878 879 880 881
6 882 883 884 885 886 887
6 888 889 890 891 892 893
6 894 895 896 897 898 899
6 900 901 902 903 904 905
6 906 907 908 909 910 911
6 912 913 914 915 916 917
6 918 919 920 921 922 923
6 924 925 926 927 928 929
6 930 931 932 933 934 935
6 936 937 938 939 940 941
6 942 943 944 945 946 947
6 948 949 950 951 952 953
6 954 955 956 957 958 959
6 960 961 962 963 964 965
6 966 967 968 969 970 971
6 972 973 974 975 976 977
6 978 979 980 981 982 983
6 984 985 986 987 988 989
6 990 991 992 993 994 995
6 996 997 998 999 1000 1001
6 1002 1003 1004 1005 1006 1007
6 1008 1009 1010 1011 1012 1013
6 1014 1015 1016 1017 1018 1019
6 1020 1021 1022 1023 1024 1025
6 1026 1027 1028 1029 1030 1031
6 1032 1033 1034 1035 1036 1037
6 1038 1039 1040 1041 1042 1043
6 1044 1045 1046 1047 1048 1049
6 1050 1051 1052 1053 1054 1055
6 1056 1057 1058 1059 1060 1061
6 1062 1063 1064 1065 1066 1067
6 1068 1069 1070 1071 1072 1073
6 1074 1075 1076 1077 1078 1079
6 1080 1081 1082 1083 1084 1085
6 1086 1087 1088 1089 1090 1091
6 1092 1093 1094 1095 1096 1097
6 1098 1099 1100 1101 1102 1103
6 1104 1105 1106 1107 1108 1109
6 1110 1111 1112 1113 1114 1115
6 1116 1117 1118 1119 1120 1121
6 1122 1123 1124 1125 1126 1127
6 1128 1129 1130 1131 1132 1133
6 1134 1135 1136 1137 1138 1139
6 1140 1141 1142 1143 1144 1145
6 1146 1147 1148 1149 1150 1151
6 1152 1153 1154 1155 1156 1157
6 1158 1159 1160 1161 1162 1163
6 1164 1165 1166 1167 1168 1169
6 1170 1171 1172 1173 1174 1175
6 1176 1177 1178 1179 1180 1181
6 1182 1183 1184 1185 1186 1187
6 1188 1189 1190 1191 1192 1193
6 1194 1195 1196 1197 1198 1199
6 1200 1201 1202 1203 1204 1205
6 1206 1207 1208 1209 1210 1211
6 1212 1213 1214 1215 1216 1217
6 1218 1219 1220 1221 1222 1223
6 1224 1225 1226 1227 1228 1229
6 1230 1231 1232 1233 1234 1235
6 1236 1237 1238 1239 1240 1241
6 1242 1243 1244 1245 1246 1247
6 1248 1249 1250 1251 1252 1253
6 1254 1255 1256 1257 1258 1259
6 1260 1261 1262 1263 1264 1265
6 1266 1267 1268 1269 1270 1271
6 1272 1273 1274 1275 1276 1277
6 1278 1279 1280 1281 1282 1283
6 1284 1285 1286 1287 1288 1289
6 1290 1291 1292 1293 1294 1295
6 1296 1297 1298 1299 1300 1301
6 1302 1303 1304 1305 1306 1307
6 1308 1309 1310 1311 1312 1313
6 1314 1315 1316 1317 1318 1319
6 1320 1321 1322 1323 1324 1325
6 1326 1327 1328 1329 1330 1331
6 1332 1333 1334 1335 1336 1337
6 1338 1339 1340 1341 1342 1343
6 1344 1345 1346 1347 1348 1349
6 1350 1351 1352 1353 1354 1355
6 1356 1357 1358 1359 1360 1361
6 1362 1363 1364 1365 1366 1367
6 1368 1369 1370 1371 1372 1373
6 1374 1375 1376 1377 1378 1379
6 1380 1381 1382 1383 1384 1385
6 1386 1387 1388 1389 1390 1391
6 1392 1393 1394 1395 1396 1397
6 1398 1399 1400 1401 1402 1403
6 1404 1405 1406 1407 1408 1409
6 1410 1411 1412 1413 1414 1415
6 1416 1417 1418 1419 1420 1421
6 1422 1423 1424 1425 1426 1427
6 1428 1429 1430 1431 1432 1433
6 1434 1435 1436 1437 1438 1439
6 1440 1441 1442 1443 1444 1445
6 1446 1447 1448 1449 1450 1451
6 1452 1453 1454 1455 1456 1457
6 1458 1459 1460 1461 1462 1463
6 1464 1465 1466 1467 1468 1469
6 1470 1471 1472 1473 1474 1475
6 1476 1477 1478 1479 1480 1481
6 1482 1483 1484 1485 1486 1487
6 1488 1489 1490 1491 1492 1493
6 1494 1495 1496 1497 1498 1499
6 1500 1501 1502 1503 1504 1505
6 1506 1507 1508 1509 1510 1511
6 1512 1513 1514 1515 1516 1517
6 1518 1519 1520 1521 1522 1523
6 1524 1525 1526 1527 1528 1529
6 1530 1531 1532 1533 1534 1535
6 1536 1537 1538 1539 1540 1541
6 1542 1543 1544 1545 1546 1547
6 1548 1549 1550 1551 1552 1553
6 1554 1555 1556 1557 1558 1559
6 1560 1561 1562 1563 1564 1565
6 1566 1567 1568 1569 1570 1571
6 1572 1573 1574 1575 1576 1577
6 1578 1579 1580 1581 1582 1583
6 1584 1585 1586 1587 1588 1589
6 1590 1591 1592 1593 1594 1595
6 1596 1597 1598 1599 1600 1601
6 1602 1603 1604 1605 1606 1607
6 1608 1609 1610 1611 1612 1613
6 1614 1615 1616 1617 1618 1619
6 1620 1621 1622 1623 1624 1625
6 1626 1627 1628 1629 1630 1631
6 1632 1633 1634 1635 1636 1637
6 1638 1639 1640 1641 1642 1643
6 1644 1645 1646 1647 1648 1649
6 1650 1651 1652 1653 1654 1655
6 1656 1657 1658 1659 1660 1661
6 1662 1663 1664 1665 1666 1667
6 1668 1669 1670 1671 1672 1673
6 1674 1675 1676 1677 1678 1679
6 1680 1681 1682 1683 1684 1685
6 1686 1687 1688 1689 1690 1691
6 1692 1693 1694 1695 1696 1697
6 1698 1699 1700 1701 1702 1703
6 1704 1705 1706 1707 1708 1709
6 1710 1711 1712 1713 1714 1715
6 1716 1717 1718 1719 1720 1721
6 1722 1723 1724 1725 1726 1727
6 1728 1729 1730 1731 1732 1733
6 1734 1735 1736 1737 1738 1739
6 1740 1741 1742 1743 1744 1745
6 1746 1747 1748 1749 1750 1751
6 1752 1753 1754 1755 1756 1757
6 1758 1759 1760 1761 1762 1763
6 1764 1765 1766 1767 1768 1769
6 1770 1771 1772 1773 1774 1775
6 1776 1777 1778 1779 1780 1781
6 1782 1783 1784 1785 1786 1787
6 1788 1789 1790 1791 1792 1793
6 1794 1795 1796 1797 1798 1799
6 1800 1801 1802 1803 1804 1805
6 1806 1807 1808 1809 1810 1811
6 1812 1813 1814 1815 1816 1817
6 1818 1819 1820 1821 1822 1823
6 1824 1825 1826 1827 1828 1829
6 1830 1831 1832 1833 1834 1835
6 1836 1837 1838 1839 1840 1841
6 1842 1843 1844 1845 1846 1847
6 1848 1849 1850 1851 1852 1853
6 1854 1855 1856 1857 1858 1859
6 1860 1861 1862 1863 1864 1865
6 1866 1867 1868 1869 1870 1871
6 1872 1873 1874 1875 1876 1877
6 1878 1879 1880 1881 1882 1883
6 1884 1885 1886 1887 1888 1889
6 1890 1891 1892 1893 1894 1895
6 1896 1897 1898 1899 1900 1901
6 1902 1903 1904 1905 1906 1907
6 1908 1909 1910 1911 1912 1913
6 1914 1915 1916 1917 1918 1919
6 1920 1921 1922 1923 1924 1925
6 1926 1927 1928 1929 1930 1931
6 1932 1933 1934 1935 1936 1937
6 1938 1939 1940 1941 1942 1943
6 1944 1945 1946 1947 1948 1949
6 1950 1951 1952 1953 1954 1955
6 1956 1957 1958 1959 1960 1961
6 1962 1963 1964 1965 1966 1967
6 1968 1969 1970 1971 1972 1973
6 1974 1975 1976 1977 1978 1979
6 1980 1981 1982 1983 1984 1985
6 1986 1987 1988 1989 1990 1991
6 1992 1993 1994 1995 1996 1997
6 1998 1999 2000 2001 2002 2003
6 2004 2005 2006 2007 2008 2009
6 2010 2011 2012 2013 2014 2015
