ply
format ascii 1.0
element vertex 216
property float x
property float y
property float z
element face 1
property list uchar int vertex_indices
end_header
-561.3822098452185 -152.91758767949918 0.0
-556.0832414531822 -139.7294583019418 0.0
-561.3932098452185 -128.9944123205008 0.0
-534.9587710276579 -83.29542930096095 0.0
-522.4994531958324 -82.60399870411263 0.0
-515.7778451772829 -72.48969615242265 0.0
-515.43772072724 -69.25362817492291 0.0
-520.9161017756053 -58.89874980696519 0.0
-494.5568409623507 -13.156362746402639 0.0
-481.1223002108501 -11.710884851042024 0.0
-474.6024158352745 0.4181138530706171 0.0
-481.1223002108501 11.710884851042024 0.0
-494.5568409623507 13.156362746402628 0.0
-520.9161017756053 58.898749806965185 0.0
-515.43772072724 69.25362817492291 0.0
-515.7778451772829 72.48969615242265 0.0
-522.4994531958324 82.60399870411263 0.0
-534.9587710276579 83.29542930096095 0.0
-561.3932098452185 128.99441232050083 0.0
-555.9093799368896 141.38364013251223 0.0
-561.5511017756053 152.5382501930348 0.0
-534.947771027658 198.61657069903904 0.0
-522.4872681504088 199.30800129588738 0.0
-515.7472319286288 209.45422243186428 0.0
-515.407107478586 212.69029040936405 0.0
-520.8711017756053 223.02025019303483 0.0
-494.5118409623506 268.7626372535976 0.0
-481.8004228509471 269.7900012958874 0.0
-475.0591753043018 279.9383205080757 0.0
-474.7190508542589 283.1743884855755 0.0
-480.18010177560535 293.4992501930348 0.0
-453.82084096235064 339.24163725359756 0.0
-441.10284550067786 340.2690012958874 0.0
-434.36319603024396 350.41455255888326 0.0
-434.0230715802011 353.65062053638303 0.0
-439.48110177560534 363.9702501930348 0.0
-413.12184096235063 409.71263725359756 0.0
-399.6729190130036 411.158115148958 0.0
-392.409368882868 421.6842249330972 0.0
-339.61566925205244 421.64082089207415 0.0
-332.7870202972256 411.196115148958 0.0
-320.6659053216352 410.43218312645774 0.0
-317.69332601972565 411.7556607010223 0.0
-311.4653307479476 421.67682089207415 0.0
-258.67163111713194 421.7202249330972 0.0
-250.7029391090129 410.80900129588736 0.0
-236.93903226165764 411.22711514895803 0.0
-230.41915343958158 422.5198765279861 0.0
-235.88420984521844 434.87658767949944 0.0
-209.4497710276578 480.5755706990393 0.0
-197.74406240594138 481.00859272352255 0.0
-195.11160755407465 482.9211831264578 0.0
-189.7131948914659 493.7993721833198 0.0
-195.34410177560534 504.9352501930348 0.0
-168.9848409623506 550.6776372535976 0.0
-155.51294935788897 552.123115148958 0.0
-148.67333074794755 562.5868208920741 0.0
-95.46666925205247 562.5868208920741 0.0
-89.25888123969604 552.7006607010223 0.0
-86.28630193778646 551.3771831264578 0.0
-74.1299079060047 552.141115148958 0.0
-66.88136888286785 562.6412249330972 0.0
-14.087669252052477 562.5978208920741 0.0
-7.87699448835017 552.7066607010224 0.0
-4.904415186440594 551.3831831264579 0.0
7.255556195610485 552.147115148958 0.0
14.500631117132167 562.6412249330972 0.0
67.29433074794753 562.5978208920741 0.0
73.50846961326502 552.7006607010223 0.0
76.4810489151746 551.3771831264578 0.0
88.63744294695636 552.141115148958 0.0
95.46666925205247 562.5868208920741 0.0
148.67333074794755 562.5868208920741 0.0
155.51294935788897 552.123115148958 0.0
168.9848409623506 550.6776372535976 0.0
195.34410177560534 504.9352501930348 0.0
189.7131948914659 493.7993721833198 0.0
195.11160755407465 482.9211831264578 0.0
197.74406240594138 481.00859272352255 0.0
209.4497710276578 480.5755706990393 0.0
235.88420984521844 434.87658767949944 0.0
230.41915343958158 422.5198765279861 0.0
237.66322669852434 410.8090012958874 0.0
250.7029391090129 410.80900129588736 0.0
258.67163111713194 421.7202249330972 0.0
311.4653307479476 421.67682089207415 0.0
317.69332601972565 411.7556607010223 0.0
320.6659053216352 410.43218312645774 0.0
332.7870202972256 411.196115148958 0.0
339.61566925205244 421.64082089207415 0.0
393.1938345103205 421.4754167603657 0.0
399.6729190130036 411.158115148958 0.0
413.1218409623506 409.7126372535976 0.0
439.48110177560534 363.9702501930348 0.0
434.0230715802011 353.65062053638303 0.0
434.36319603024396 350.41455255888326 0.0
441.10284550067786 340.2690012958874 0.0
453.8208409623506 339.2416372535976 0.0
480.18010177560535 293.4992501930348 0.0
474.7190508542589 283.1743884855755 0.0
475.0591753043018 279.9383205080757 0.0
481.8004228509471 269.7900012958874 0.0
494.5118409623506 268.7626372535976 0.0
520.8711017756053 223.02025019303483 0.0
515.4071074785859 212.69029040936408 0.0
515.7472319286287 209.45422243186428 0.0
522.4872681504087 199.30800129588738 0.0
534.947771027658 198.61657069903904 0.0
561.5511017756053 152.5382501930348 0.0
555.9093799368896 141.3836401325122 0.0
561.3932098452185 128.9944123205008 0.0
534.9587710276579 83.29542930096095 0.0
522.4994531958324 82.60399870411263 0.0
515.7778451772829 72.48969615242265 0.0
515.43772072724 69.25362817492291 0.0
520.9161017756053 58.89874980696517 0.0
494.5568409623507 13.156362746402639 0.0
481.1223002108501 11.710884851042024 0.0
474.6024158352745 0.4181138530706144 0.0
481.1223002108501 -11.710884851042024 0.0
494.5568409623507 -13.156362746402639 0.0
520.9161017756053 -58.89874980696517 0.0
515.43772072724 -69.25362817492291 0.0
515.7778451772829 -72.48969615242265 0.0
522.4994531958324 -82.60399870411263 0.0
534.9587710276579 -83.29542930096095 0.0
561.3932098452185 -128.9944123205008 0.0
555.9093799368896 -141.38364013251223 0.0
561.5511017756053 -152.53825019303483 0.0
534.947771027658 -198.61657069903904 0.0
522.4872681504088 -199.30800129588738 0.0
515.7472319286288 -209.45422243186428 0.0
515.407107478586 -212.69029040936405 0.0
520.8711017756053 -223.02025019303483 0.0
494.5118409623506 -268.7626372535976 0.0
481.8004228509471 -269.79000129588735 0.0
475.0591753043018 -279.9383205080757 0.0
474.7190508542589 -283.1743884855755 0.0
480.18010177560535 -293.4992501930348 0.0
453.8208409623506 -339.2416372535976 0.0
439.7572127710715 -341.24666070102234 0.0
433.8492100639086 -351.99643870581264 0.0
439.48110177560534 -363.9702501930348 0.0
413.1218409623506 -409.7126372535976 0.0
399.6729190130036 -411.158115148958 0.0
393.01677496652064 -421.5776421356411 0.0
339.61566925205244 -421.64082089207415 0.0
332.7870202972256 -411.196115148958 0.0
320.6659053216352 -410.43218312645774 0.0
317.69332601972565 -411.7556607010223 0.0
311.4653307479476 -421.67682089207415 0.0
258.67163111713194 -421.7202249330972 0.0
250.7029391090129 -410.80900129588736 0.0
236.93903226165764 -411.22711514895803 0.0
230.41915343958158 -422.5198765279861 0.0
235.88420984521844 -434.87658767949944 0.0
209.4497710276578 -480.5755706990393 0.0
197.74406240594138 -481.00859272352255 0.0
195.11160755407465 -482.9211831264578 0.0
189.7131948914659 -493.7993721833198 0.0
195.34410177560534 -504.9352501930348 0.0
168.9848409623506 -550.6776372535976 0.0
155.51294935788897 -552.123115148958 0.0
148.67333074794755 -562.5868208920741 0.0
95.46666925205247 -562.5868208920741 0.0
89.25888123969604 -552.7006607010223 0.0
86.28630193778646 -551.3771831264578 0.0
74.1299079060047 -552.141115148958 0.0
66.88136888286785 -562.6412249330972 0.0
14.08766925205248 -562.5978208920741 0.0
7.87699448835017 -552.7066607010224 0.0
4.904415186440594 -551.3831831264579 0.0
-7.255556195610486 -552.147115148958 0.0
-14.500631117132167 -562.6412249330972 0.0
-67.29433074794753 -562.5978208920741 0.0
-73.50846961326502 -552.7006607010223 0.0
-76.4810489151746 -551.3771831264578 0.0
-88.63744294695636 -552.141115148958 0.0
-95.46666925205247 -562.5868208920741 0.0
-148.67333074794755 -562.5868208920741 0.0
-155.51294935788897 -552.123115148958 0.0
-168.9848409623506 -550.6776372535976 0.0
-195.34410177560534 -504.9352501930348 0.0
-189.7131948914659 -493.7993721833198 0.0
-195.11160755407465 -482.9211831264578 0.0
-197.74406240594138 -481.00859272352255 0.0
-209.4497710276578 -480.5755706990393 0.0
-235.88420984521844 -434.87658767949944 0.0
-230.41915343958158 -422.5198765279861 0.0
-237.66322669852434 -410.8090012958874 0.0
-250.7029391090129 -410.80900129588736 0.0
-258.67163111713194 -421.7202249330972 0.0
-311.4653307479476 -421.67682089207415 0.0
-317.69332601972565 -411.7556607010223 0.0
-320.6659053216352 -410.43218312645774 0.0
-332.7870202972256 -411.196115148958 0.0
-339.61566925205244 -421.64082089207415 0.0
-392.409368882868 -421.6842249330972 0.0
-400.3971134498703 -410.7400012958874 0.0
-412.72583451032057 -410.1853749537263 0.0
-439.48110177560534 -363.9702501930348 0.0
-434.0230715802011 -353.65062053638303 0.0
-434.36319603024396 -350.41455255888326 0.0
-441.10284550067786 -340.2690012958874 0.0
-453.82084096235064 -339.24163725359756 0.0
-480.18010177560535 -293.4992501930348 0.0
-474.7190508542589 -283.1743884855755 0.0
-475.0591753043018 -279.9383205080757 0.0
-481.8004228509471 -269.7900012958874 0.0
-494.2677710276579 -269.0985706990392 0.0
-520.7022098452186 -223.39958767949918 0.0
-515.407107478586 -212.69029040936405 0.0
-515.7472319286288 -209.45422243186428 0.0
-522.4872681504088 -199.30800129588738 0.0
-534.947771027658 -198.61657069903904 0.0
-561.3822098452185 -152.91758767949918 0.0
216 0 1 2 3 4 5 6 7 8 9 10 11 12 13 14 15 16 17 18 19 20 21 22 23 24 25 26 27 28 29 30 31 32 33 34 35 36 37 38 39 40 41 42 43 44 45 46 47 48 49 50 51 52 53 54 55 56 57 58 59 60 61 62 63 64 65 66 67 68 69 70 71 72 73 74 75 76 77 78 79 80 81 82 83 84 85 86 87 88 89 90 91 92 93 94 95 96 97 98 99 100 101 102 103 104 105 106 107 108 109 110 111 112 113 114 115 116 117 118 119 120 121 122 123 124 125 126 127 128 129 130 131 132 133 134 135 136 137 138 139 140 141 142 143 144 145 146 147 148 149 150 151 152 153 154 155 156 157 158 159 160 161 162 163 164 165 166 167 168 169 170 171 172 173 174 175 176 177 178 179 180 181 182 183 184 185 186 187 188 189 190 191 192 193 194 195 196 197 198 199 200 201 202 203 204 205 206 207 208 209 210 211 212 213 214 215
