ply
format ascii 1.0
element vertex 2016
property float x
property float y
property float z
element face 336
property list uchar int vertex_indices
end_header
-493.58 127.49418312645778 0.0
-483.08 127.49418312645778 0.0
-456.68 81.76804180663942 0.0
-461.93 72.67477506690281 0.0
-514.73 72.67477506690281 0.0
-519.98 81.76804180663942 0.0
-442.412 83.96581687354222 0.0
-452.912 83.96581687354222 0.0
-479.31199999999995 129.6919581933606 0.0
-474.06199999999995 138.7852249330972 0.0
-421.262 138.78522493309717 0.0
-416.012 129.69195819336056 0.0
-523.732 83.94981687354223 0.0
-534.232 83.94981687354223 0.0
-560.632 129.6759581933606 0.0
-555.382 138.7692249330972 0.0
-502.582 138.76922493309718 0.0
-497.332 129.67595819336057 0.0
-483.086 13.474816873542231 0.0
-493.586 13.474816873542231 0.0
-519.986 59.20095819336059 0.0
-514.736 68.2942249330972 0.0
-461.93600000000004 68.29422493309718 0.0
-456.68600000000004 59.20095819336058 0.0
-412.211 268.4741831264578 0.0
-401.711 268.4741831264578 0.0
-375.31100000000004 222.7480418066394 0.0
-380.56100000000004 213.6547750669028 0.0
-433.361 213.6547750669028 0.0
-438.611 222.7480418066394 0.0
-361.028 224.94881687354223 0.0
-371.528 224.94881687354223 0.0
-397.928 270.67495819336057 0.0
-392.678 279.7682249330972 0.0
-339.87800000000004 279.7682249330972 0.0
-334.62800000000004 270.67495819336057 0.0
-442.37 224.91881687354226 0.0
-452.87 224.91881687354226 0.0
-479.27 270.6449581933606 0.0
-474.02 279.73822493309723 0.0
-421.22 279.73822493309723 0.0
-415.97 270.6449581933606 0.0
-401.725 154.45881687354222 0.0
-412.225 154.45881687354222 0.0
-438.625 200.1849581933606 0.0
-433.375 209.2782249330972 0.0
-380.57500000000005 209.27822493309716 0.0
-375.32500000000005 200.18495819336056 0.0
-483.058 154.43481687354222 0.0
-493.558 154.43481687354222 0.0
-519.958 200.16095819336059 0.0
-514.708 209.2542249330972 0.0
-461.908 209.25422493309716 0.0
-456.658 200.16095819336056 0.0
-493.541 268.4441831264578 0.0
-483.041 268.4441831264578 0.0
-456.641 222.71804180663943 0.0
-461.891 213.62477506690283 0.0
-514.691 213.62477506690283 0.0
-519.941 222.71804180663943 0.0
-534.221 197.96218312645777 0.0
-523.721 197.96218312645777 0.0
-497.321 152.2360418066394 0.0
-502.571 143.1427750669028 0.0
-555.371 143.1427750669028 0.0
-560.621 152.2360418066394 0.0
-452.902 197.98418312645776 0.0
-442.402 197.98418312645776 0.0
-416.002 152.2580418066394 0.0
-421.252 143.1647750669028 0.0
-474.05199999999996 143.1647750669028 0.0
-479.30199999999996 152.2580418066394 0.0
-330.803 409.43218312645774 0.0
-320.303 409.43218312645774 0.0
-293.903 363.7060418066394 0.0
-299.153 354.61277506690277 0.0
-351.953 354.61277506690277 0.0
-357.203 363.7060418066394 0.0
-279.612 365.9008168735422 0.0
-290.112 365.9008168735422 0.0
-316.512 411.62695819336057 0.0
-311.262 420.7202249330972 0.0
-258.462 420.7202249330972 0.0
-253.21200000000002 411.62695819336057 0.0
-360.969 365.8648168735422 0.0
-371.469 365.8648168735422 0.0
-397.86899999999997 411.59095819336056 0.0
-392.61899999999997 420.6842249330972 0.0
-339.819 420.6842249330972 0.0
-334.569 411.59095819336056 0.0
-320.322 295.43081687354226 0.0
-330.822 295.43081687354226 0.0
-357.222 341.1569581933606 0.0
-351.972 350.25022493309723 0.0
-299.172 350.25022493309723 0.0
-293.922 341.1569581933606 0.0
-401.673 295.3968168735422 0.0
-412.173 295.3968168735422 0.0
-438.573 341.12295819336055 0.0
-433.323 350.2162249330972 0.0
-380.523 350.2162249330972 0.0
-375.273 341.12295819336055 0.0
-412.151 409.3941831264578 0.0
-401.651 409.3941831264578 0.0
-375.25100000000003 363.66804180663945 0.0
-380.50100000000003 354.5747750669028 0.0
-433.301 354.5747750669028 0.0
-438.551 363.66804180663945 0.0
-452.85 338.9231831264578 0.0
-442.35 338.9231831264578 0.0
-415.95000000000005 293.19704180663945 0.0
-421.20000000000005 284.1037750669028 0.0
-474.0 284.1037750669028 0.0
-479.25 293.19704180663945 0.0
-371.51 338.95818312645775 0.0
-361.01 338.95818312645775 0.0
-334.61 293.2320418066394 0.0
-339.86 284.1387750669028 0.0
-392.65999999999997 284.1387750669028 0.0
-397.90999999999997 293.2320418066394 0.0
-493.558 -154.43481687354222 0.0
-483.058 -154.43481687354222 0.0
-456.658 -200.16095819336059 0.0
-461.908 -209.2542249330972 0.0
-514.708 -209.2542249330972 0.0
-519.958 -200.16095819336059 0.0
-442.402 -197.98418312645776 0.0
-452.902 -197.98418312645776 0.0
-479.30199999999996 -152.2580418066394 0.0
-474.05199999999996 -143.1647750669028 0.0
-421.252 -143.16477506690282 0.0
-416.002 -152.25804180663943 0.0
-523.721 -197.96218312645777 0.0
-534.221 -197.96218312645777 0.0
-560.621 -152.2360418066394 0.0
-555.371 -143.1427750669028 0.0
-502.571 -143.14277506690283 0.0
-497.321 -152.23604180663943 0.0
-483.041 -268.4441831264578 0.0
-493.541 -268.4441831264578 0.0
-519.941 -222.7180418066394 0.0
-514.691 -213.6247750669028 0.0
-461.891 -213.62477506690283 0.0
-456.641 -222.71804180663943 0.0
-412.249 -13.480816873542231 0.0
-401.749 -13.480816873542231 0.0
-375.34900000000005 -59.20695819336058 0.0
-380.59900000000005 -68.30022493309718 0.0
-433.399 -68.30022493309718 0.0
-438.649 -59.20695819336058 0.0
-361.07 -57.014183126457766 0.0
-371.57 -57.014183126457766 0.0
-397.96999999999997 -11.288041806639413 0.0
-392.71999999999997 -2.1947750669028077 0.0
-339.92 -2.194775066902813 0.0
-334.67 -11.28804180663942 0.0
-442.423 -57.01218312645777 0.0
-452.923 -57.01218312645777 0.0
-479.323 -11.286041806639414 0.0
-474.073 -2.1927750669028088 0.0
-421.273 -2.192775066902814 0.0
-416.023 -11.286041806639421 0.0
-401.744 -127.50618312645778 0.0
-412.244 -127.50618312645778 0.0
-438.644 -81.78004180663942 0.0
-433.394 -72.68677506690281 0.0
-380.59400000000005 -72.68677506690281 0.0
-375.34400000000005 -81.78004180663942 0.0
-483.08 -127.49418312645778 0.0
-493.58 -127.49418312645778 0.0
-519.98 -81.76804180663942 0.0
-514.73 -72.67477506690281 0.0
-461.93 -72.67477506690281 0.0
-456.68 -81.76804180663942 0.0
-493.586 -13.474816873542231 0.0
-483.086 -13.474816873542231 0.0
-456.68600000000004 -59.20095819336058 0.0
-461.93600000000004 -68.29422493309718 0.0
-514.736 -68.29422493309718 0.0
-519.986 -59.20095819336058 0.0
-534.232 -83.94981687354223 0.0
-523.732 -83.94981687354223 0.0
-497.332 -129.67595819336057 0.0
-502.582 -138.76922493309718 0.0
-555.382 -138.76922493309718 0.0
-560.632 -129.67595819336057 0.0
-452.912 -83.96581687354222 0.0
-442.412 -83.96581687354222 0.0
-416.012 -129.6919581933606 0.0
-421.262 -138.7852249330972 0.0
-474.06199999999995 -138.7852249330972 0.0
-479.31199999999995 -129.6919581933606 0.0
-330.879 127.51618312645778 0.0
-320.379 127.51618312645778 0.0
-293.97900000000004 81.79004180663942 0.0
-299.22900000000004 72.69677506690282 0.0
-352.029 72.69677506690282 0.0
-357.279 81.79004180663942 0.0
-279.685 83.98981687354222 0.0
-290.185 83.98981687354222 0.0
-316.585 129.7159581933606 0.0
-311.335 138.8092249330972 0.0
-258.53499999999997 138.80922493309717 0.0
-253.285 129.71595819336056 0.0
-361.062 83.97981687354223 0.0
-371.562 83.97981687354223 0.0
-397.962 129.7059581933606 0.0
-392.712 138.7992249330972 0.0
-339.91200000000003 138.79922493309718 0.0
-334.66200000000003 129.70595819336057 0.0
-320.383 13.485816873542227 0.0
-330.883 13.485816873542227 0.0
-357.28299999999996 59.21195819336059 0.0
-352.03299999999996 68.3052249330972 0.0
-299.233 68.30522493309718 0.0
-293.983 59.21195819336057 0.0
-401.749 13.480816873542231 0.0
-412.249 13.480816873542231 0.0
-438.649 59.20695819336059 0.0
-433.399 68.3002249330972 0.0
-380.59900000000005 68.30022493309718 0.0
-375.34900000000005 59.20695819336058 0.0
-412.244 127.50618312645778 0.0
-401.744 127.50618312645778 0.0
-375.34400000000005 81.78004180663942 0.0
-380.59400000000005 72.68677506690281 0.0
-433.394 72.68677506690281 0.0
-438.644 81.78004180663942 0.0
-452.923 57.01218312645777 0.0
-442.423 57.01218312645777 0.0
-416.023 11.286041806639417 0.0
-421.273 2.1927750669028114 0.0
-474.073 2.1927750669028114 0.0
-479.323 11.286041806639417 0.0
-371.57 57.014183126457766 0.0
-361.07 57.014183126457766 0.0
-334.67 11.288041806639416 0.0
-339.92 2.1947750669028103 0.0
-392.71999999999997 2.1947750669028103 0.0
-397.96999999999997 11.288041806639416 0.0
-249.472 268.51818312645776 0.0
-238.972 268.51818312645776 0.0
-212.572 222.7920418066394 0.0
-217.822 213.69877506690278 0.0
-270.622 213.69877506690278 0.0
-275.872 222.7920418066394 0.0
-198.27 224.9908168735422 0.0
-208.77 224.9908168735422 0.0
-235.17000000000002 270.7169581933606 0.0
-229.92000000000002 279.8102249330972 0.0
-177.12 279.8102249330972 0.0
-171.87 270.7169581933606 0.0
-279.659 224.97281687354223 0.0
-290.159 224.97281687354223 0.0
-316.55899999999997 270.69895819336057 0.0
-311.30899999999997 279.7922249330972 0.0
-258.509 279.7922249330972 0.0
-253.259 270.69895819336057 0.0
-238.98 154.49281687354224 0.0
-249.48 154.49281687354224 0.0
-275.88 200.2189581933606 0.0
-270.63 209.3122249330972 0.0
-217.82999999999998 209.31222493309718 0.0
-212.57999999999998 200.21895819336058 0.0
-320.364 154.47881687354223 0.0
-330.864 154.47881687354223 0.0
-357.26399999999995 200.2049581933606 0.0
-352.01399999999995 209.2982249330972 0.0
-299.214 209.29822493309717 0.0
-293.964 200.20495819336057 0.0
-330.853 268.49918312645775 0.0
-320.353 268.49918312645775 0.0
-293.95300000000003 222.77304180663944 0.0
-299.20300000000003 213.67977506690283 0.0
-352.003 213.67977506690283 0.0
-357.253 222.77304180663944 0.0
-371.553 198.00418312645778 0.0
-361.053 198.00418312645778 0.0
-334.653 152.27804180663944 0.0
-339.903 143.18477506690283 0.0
-392.703 143.18477506690283 0.0
-397.953 152.27804180663944 0.0
-290.179 198.01918312645776 0.0
-279.679 198.01918312645776 0.0
-253.27899999999997 152.29304180663942 0.0
-258.529 143.19977506690282 0.0
-311.32899999999995 143.19977506690282 0.0
-316.57899999999995 152.29304180663942 0.0
-168.05 409.48518312645785 0.0
-157.55 409.48518312645785 0.0
-131.15 363.7590418066394 0.0
-136.4 354.6657750669028 0.0
-189.20000000000002 354.6657750669028 0.0
-194.45000000000002 363.7590418066394 0.0
-116.848 365.94781687354225 0.0
-127.348 365.94781687354225 0.0
-153.748 411.6739581933606 0.0
-148.498 420.7672249330972 0.0
-95.69800000000001 420.7672249330972 0.0
-90.44800000000001 411.6739581933606 0.0
-198.238 365.92881687354225 0.0
-208.738 365.92881687354225 0.0
-235.138 411.6549581933606 0.0
-229.888 420.7482249330972 0.0
-177.088 420.7482249330972 0.0
-171.838 411.6549581933606 0.0
-157.559 295.47681687354225 0.0
-168.059 295.47681687354225 0.0
-194.459 341.2029581933606 0.0
-189.209 350.2962249330972 0.0
-136.409 350.2962249330972 0.0
-131.159 341.2029581933606 0.0
-238.949 295.45781687354224 0.0
-249.449 295.45781687354224 0.0
-275.849 341.1839581933606 0.0
-270.599 350.2772249330972 0.0
-217.799 350.2772249330972 0.0
-212.549 341.1839581933606 0.0
-249.435 409.46318312645775 0.0
-238.935 409.4631831264578 0.0
-212.535 363.73704180663935 0.0
-217.785 354.6437750669028 0.0
-270.585 354.6437750669028 0.0
-275.835 363.7370418066394 0.0
-290.146 338.98718312645775 0.0
-279.646 338.9871831264578 0.0
-253.246 293.26104180663935 0.0
-258.496 284.1677750669028 0.0
-311.296 284.1677750669028 0.0
-316.546 293.2610418066394 0.0
-208.761 339.00818312645777 0.0
-198.261 339.00818312645777 0.0
-171.861 293.2820418066394 0.0
-177.111 284.1887750669028 0.0
-229.911 284.1887750669028 0.0
-235.161 293.2820418066394 0.0
-86.635 550.3771831264578 0.0
-76.135 550.3771831264578 0.0
-49.73500000000001 504.6510418066394 0.0
-54.98500000000001 495.55777506690276 0.0
-107.785 495.55777506690276 0.0
-113.035 504.6510418066394 0.0
-35.44100000000001 506.82181687354216 0.0
-45.94100000000001 506.8218168735422 0.0
-72.34100000000001 552.5479581933606 0.0
-67.09100000000001 561.6412249330972 0.0
-14.291000000000004 561.6412249330972 0.0
-9.041000000000002 552.5479581933606 0.0
-116.82 506.8108168735422 0.0
-127.32 506.8108168735422 0.0
-153.72 552.5369581933606 0.0
-148.47 561.6302249330972 0.0
-95.66999999999999 561.6302249330972 0.0
-90.41999999999999 552.5369581933606 0.0
-76.141 436.3968168735422 0.0
-86.641 436.3968168735422 0.0
-113.041 482.12295819336055 0.0
-107.791 491.2162249330972 0.0
-54.99100000000001 491.2162249330972 0.0
-49.74100000000001 482.12295819336055 0.0
-157.527 436.38081687354224 0.0
-168.027 436.38081687354224 0.0
-194.427 482.1069581933606 0.0
-189.177 491.2002249330972 0.0
-136.37699999999998 491.2002249330972 0.0
-131.12699999999998 482.1069581933606 0.0
-168.014 550.3591831264579 0.0
-157.514 550.3591831264579 0.0
-131.114 504.6330418066394 0.0
-136.364 495.53977506690285 0.0
-189.16400000000002 495.53977506690285 0.0
-194.41400000000002 504.6330418066394 0.0
-208.723 479.9211831264578 0.0
-198.223 479.9211831264578 0.0
-171.823 434.19504180663944 0.0
-177.073 425.1017750669028 0.0
-229.87300000000002 425.1017750669028 0.0
-235.12300000000002 434.19504180663944 0.0
-127.34 479.94218312645785 0.0
-116.84 479.94218312645785 0.0
-90.44 434.2160418066394 0.0
-95.69 425.1227750669028 0.0
-148.49 425.1227750669028 0.0
-153.74 434.2160418066394 0.0
-412.173 -295.3968168735422 0.0
-401.673 -295.3968168735422 0.0
-375.273 -341.12295819336055 0.0
-380.523 -350.2162249330972 0.0
-433.323 -350.2162249330972 0.0
-438.573 -341.12295819336055 0.0
-361.01 -338.95818312645775 0.0
-371.51 -338.95818312645775 0.0
-397.90999999999997 -293.2320418066394 0.0
-392.65999999999997 -284.1387750669028 0.0
-339.86 -284.1387750669028 0.0
-334.61 -293.2320418066394 0.0
-442.35 -338.9231831264578 0.0
-452.85 -338.9231831264578 0.0
-479.25 -293.19704180663945 0.0
-474.0 -284.1037750669028 0.0
-421.20000000000005 -284.1037750669028 0.0
-415.95000000000005 -293.19704180663945 0.0
-401.651 -409.3941831264578 0.0
-412.151 -409.3941831264578 0.0
-438.551 -363.66804180663945 0.0
-433.301 -354.5747750669028 0.0
-380.50100000000003 -354.5747750669028 0.0
-375.25100000000003 -363.66804180663945 0.0
-330.864 -154.47881687354223 0.0
-320.364 -154.47881687354223 0.0
-293.964 -200.20495819336057 0.0
-299.214 -209.29822493309717 0.0
-352.01399999999995 -209.29822493309717 0.0
-357.26399999999995 -200.20495819336057 0.0
-279.679 -198.01918312645776 0.0
-290.179 -198.01918312645776 0.0
-316.57899999999995 -152.2930418066394 0.0
-311.32899999999995 -143.1997750669028 0.0
-258.529 -143.19977506690282 0.0
-253.27899999999997 -152.29304180663942 0.0
-361.053 -198.00418312645778 0.0
-371.553 -198.00418312645778 0.0
-397.953 -152.2780418066394 0.0
-392.703 -143.1847750669028 0.0
-339.903 -143.18477506690283 0.0
-334.653 -152.27804180663944 0.0
-320.353 -268.49918312645775 0.0
-330.853 -268.49918312645775 0.0
-357.253 -222.7730418066394 0.0
-352.003 -213.6797750669028 0.0
-299.20300000000003 -213.67977506690283 0.0
-293.95300000000003 -222.77304180663944 0.0
-401.711 -268.4741831264578 0.0
-412.211 -268.4741831264578 0.0
-438.611 -222.7480418066394 0.0
-433.361 -213.6547750669028 0.0
-380.56100000000004 -213.65477506690283 0.0
-375.31100000000004 -222.74804180663943 0.0
-412.225 -154.45881687354222 0.0
-401.725 -154.45881687354222 0.0
-375.32500000000005 -200.1849581933606 0.0
-380.57500000000005 -209.2782249330972 0.0
-433.375 -209.2782249330972 0.0
-438.625 -200.1849581933606 0.0
-452.87 -224.91881687354226 0.0
-442.37 -224.91881687354226 0.0
-415.97 -270.6449581933606 0.0
-421.22 -279.73822493309723 0.0
-474.02 -279.73822493309723 0.0
-479.27 -270.6449581933606 0.0
-371.528 -224.94881687354223 0.0
-361.028 -224.94881687354223 0.0
-334.62800000000004 -270.67495819336057 0.0
-339.87800000000004 -279.7682249330972 0.0
-392.678 -279.7682249330972 0.0
-397.928 -270.67495819336057 0.0
-249.492 -13.488816873542227 0.0
-238.992 -13.488816873542227 0.0
-212.59199999999998 -59.21495819336059 0.0
-217.84199999999998 -68.3082249330972 0.0
-270.642 -68.3082249330972 0.0
-275.892 -59.21495819336059 0.0
-198.291 -57.01818312645777 0.0
-208.791 -57.01818312645777 0.0
-235.191 -11.292041806639414 0.0
-229.941 -2.198775066902809 0.0
-177.141 -2.1987750669028143 0.0
-171.891 -11.292041806639421 0.0
-279.691 -57.017183126457766 0.0
-290.191 -57.017183126457766 0.0
-316.59099999999995 -11.291041806639413 0.0
-311.34099999999995 -2.1977750669028078 0.0
-258.54099999999994 -2.197775066902813 0.0
-253.29099999999997 -11.291041806639418 0.0
-238.99 -127.52318312645778 0.0
-249.49 -127.52318312645778 0.0
-275.89 -81.79704180663941 0.0
-270.64 -72.70377506690281 0.0
-217.84 -72.70377506690281 0.0
-212.59 -81.79704180663941 0.0
-320.379 -127.51618312645778 0.0
-330.879 -127.51618312645778 0.0
-357.279 -81.79004180663942 0.0
-352.029 -72.69677506690282 0.0
-299.22900000000004 -72.69677506690282 0.0
-293.97900000000004 -81.79004180663942 0.0
-330.883 -13.485816873542227 0.0
-320.383 -13.485816873542227 0.0
-293.983 -59.21195819336057 0.0
-299.233 -68.30522493309718 0.0
-352.03299999999996 -68.30522493309718 0.0
-357.28299999999996 -59.21195819336057 0.0
-371.562 -83.97981687354223 0.0
-361.062 -83.97981687354223 0.0
-334.66200000000003 -129.7059581933606 0.0
-339.91200000000003 -138.7992249330972 0.0
-392.712 -138.7992249330972 0.0
-397.962 -129.7059581933606 0.0
-290.185 -83.98981687354222 0.0
-279.685 -83.98981687354222 0.0
-253.285 -129.7159581933606 0.0
-258.53499999999997 -138.8092249330972 0.0
-311.335 -138.8092249330972 0.0
-316.585 -129.7159581933606 0.0
-168.085 127.52818312645778 0.0
-157.585 127.52818312645778 0.0
-131.185 81.80204180663942 0.0
-136.435 72.70877506690282 0.0
-189.235 72.70877506690282 0.0
-194.485 81.80204180663942 0.0
-116.877 84.00181687354223 0.0
-127.377 84.00181687354223 0.0
-153.777 129.7279581933606 0.0
-148.527 138.8212249330972 0.0
-95.727 138.82122493309717 0.0
-90.477 129.72795819336056 0.0
-198.287 83.99681687354223 0.0
-208.787 83.99681687354223 0.0
-235.187 129.7229581933606 0.0
-229.937 138.8162249330972 0.0
-177.137 138.81622493309717 0.0
-171.887 129.72295819336057 0.0
-157.586 13.491816873542225 0.0
-168.086 13.491816873542227 0.0
-194.48600000000002 59.21795819336059 0.0
-189.23600000000002 68.3112249330972 0.0
-136.436 68.31122493309718 0.0
-131.186 59.21795819336057 0.0
-238.992 13.488816873542225 0.0
-249.492 13.488816873542227 0.0
-275.892 59.21495819336059 0.0
-270.642 68.3082249330972 0.0
-217.84199999999998 68.30822493309718 0.0
-212.59199999999998 59.21495819336057 0.0
-249.49 127.52318312645778 0.0
-238.99 127.52318312645778 0.0
-212.59 81.79704180663941 0.0
-217.84 72.70377506690281 0.0
-270.64 72.70377506690281 0.0
-275.89 81.79704180663941 0.0
-290.191 57.017183126457766 0.0
-279.691 57.017183126457766 0.0
-253.29099999999997 11.291041806639416 0.0
-258.54099999999994 2.1977750669028104 0.0
-311.34099999999995 2.1977750669028104 0.0
-316.59099999999995 11.291041806639416 0.0
-208.791 57.01818312645777 0.0
-198.291 57.01818312645777 0.0
-171.891 11.292041806639418 0.0
-177.141 2.1987750669028117 0.0
-229.941 2.1987750669028117 0.0
-235.191 11.292041806639418 0.0
-86.664 268.53718312645776 0.0
-76.164 268.53718312645776 0.0
-49.764 222.8110418066394 0.0
-55.014 213.7177750669028 0.0
-107.814 213.7177750669028 0.0
-113.064 222.8110418066394 0.0
-35.45700000000001 225.00681687354222 0.0
-45.95700000000001 225.00681687354222 0.0
-72.357 270.73295819336056 0.0
-67.107 279.8262249330972 0.0
-14.307000000000002 279.8262249330972 0.0
-9.057000000000002 270.73295819336056 0.0
-116.867 225.00181687354223 0.0
-127.367 225.00181687354223 0.0
-153.767 270.72795819336056 0.0
-148.517 279.8212249330972 0.0
-95.71700000000001 279.8212249330972 0.0
-90.46700000000001 270.72795819336056 0.0
-76.167 154.50781687354223 0.0
-86.667 154.50781687354223 0.0
-113.06700000000001 200.2339581933606 0.0
-107.81700000000001 209.3272249330972 0.0
-55.017 209.32722493309717 0.0
-49.767 200.23395819336056 0.0
-157.578 154.50281687354223 0.0
-168.078 154.50281687354223 0.0
-194.478 200.2289581933606 0.0
-189.228 209.3222249330972 0.0
-136.428 209.32222493309717 0.0
-131.178 200.22895819336057 0.0
-168.073 268.5301831264578 0.0
-157.573 268.5301831264578 0.0
-131.173 222.8040418066394 0.0
-136.423 213.71077506690278 0.0
-189.223 213.71077506690278 0.0
-194.473 222.8040418066394 0.0
-208.783 198.02918312645778 0.0
-198.283 198.02918312645778 0.0
-171.88299999999998 152.3030418066394 0.0
-177.13299999999998 143.2097750669028 0.0
-229.933 143.2097750669028 0.0
-235.183 152.3030418066394 0.0
-127.375 198.03518312645778 0.0
-116.875 198.03518312645778 0.0
-90.475 152.30904180663944 0.0
-95.725 143.21577506690284 0.0
-148.525 143.21577506690284 0.0
-153.775 152.30904180663944 0.0
-5.250000000000001 409.5021831264578 0.0
5.250000000000001 409.5021831264578 0.0
31.65 363.77604180663945 0.0
26.4 354.6827750669028 0.0
-26.4 354.6827750669028 0.0
-31.65 363.77604180663945 0.0
45.949999999999996 365.9568168735422 0.0
35.449999999999996 365.9568168735422 0.0
9.05 411.68295819336055 0.0
14.300000000000004 420.7762249330972 0.0
67.1 420.7762249330972 0.0
72.35 411.68295819336055 0.0
-35.45000000000001 365.95681687354215 0.0
-45.95 365.9568168735422 0.0
-72.35 411.68295819336055 0.0
-67.1 420.7762249330972 0.0
-14.300000000000004 420.7762249330972 0.0
-9.050000000000002 411.6829581933606 0.0
5.249999999999997 295.49181687354223 0.0
-5.250000000000005 295.49181687354223 0.0
-31.65 341.2179581933606 0.0
-26.4 350.3112249330972 0.0
26.4 350.3112249330972 0.0
31.649999999999995 341.2179581933606 0.0
-76.157 295.48881687354225 0.0
-86.657 295.48881687354225 0.0
-113.05699999999999 341.2149581933606 0.0
-107.80699999999999 350.3082249330972 0.0
-55.007 350.3082249330972 0.0
-49.757 341.2149581933606 0.0
-86.653 409.4981831264578 0.0
-76.153 409.4981831264578 0.0
-49.75300000000001 363.77204180663944 0.0
-55.00300000000001 354.6787750669028 0.0
-107.803 354.6787750669028 0.0
-113.053 363.77204180663944 0.0
-127.362 339.0221831264578 0.0
-116.862 339.0221831264578 0.0
-90.46199999999999 293.29604180663944 0.0
-95.71199999999999 284.2027750669028 0.0
-148.512 284.2027750669028 0.0
-153.762 293.29604180663944 0.0
-45.955 339.02818312645775 0.0
-35.455 339.02818312645775 0.0
-9.055 293.3020418066394 0.0
-14.305 284.2087750669028 0.0
-67.10499999999999 284.2087750669028 0.0
-72.35499999999999 293.3020418066394 0.0
76.135 550.3771831264578 0.0
86.635 550.3771831264578 0.0
113.035 504.6510418066394 0.0
107.785 495.55777506690276 0.0
54.98500000000001 495.55777506690276 0.0
49.73500000000001 504.6510418066394 0.0
127.32 506.8108168735422 0.0
116.82 506.8108168735422 0.0
90.41999999999999 552.5369581933606 0.0
95.66999999999999 561.6302249330972 0.0
148.47 561.6302249330972 0.0
153.72 552.5369581933606 0.0
45.940999999999995 506.82181687354216 0.0
35.440999999999995 506.8218168735422 0.0
9.041 552.5479581933606 0.0
14.291000000000004 561.6412249330972 0.0
67.09100000000001 561.6412249330972 0.0
72.34100000000001 552.5479581933606 0.0
86.641 436.3968168735422 0.0
76.141 436.3968168735422 0.0
49.74100000000001 482.12295819336055 0.0
54.99100000000001 491.2162249330972 0.0
107.791 491.2162249330972 0.0
113.041 482.12295819336055 0.0
5.249999999999993 436.4028168735422 0.0
-5.250000000000003 436.40281687354224 0.0
-31.650000000000002 482.1289581933606 0.0
-26.4 491.2222249330972 0.0
26.4 491.2222249330972 0.0
31.65 482.12895819336063 0.0
-5.249999999999998 550.3831831264579 0.0
5.249999999999998 550.3831831264579 0.0
31.65 504.6570418066395 0.0
26.4 495.56377506690285 0.0
-26.4 495.56377506690285 0.0
-31.65 504.6570418066395 0.0
-45.948 479.95318312645776 0.0
-35.448 479.95318312645776 0.0
-9.048 434.2270418066394 0.0
-14.298000000000002 425.1337750669028 0.0
-67.098 425.1337750669028 0.0
-72.348 434.2270418066394 0.0
35.448 479.95318312645776 0.0
45.948 479.95318312645776 0.0
72.348 434.2270418066394 0.0
67.098 425.1337750669028 0.0
14.298000000000002 425.1337750669028 0.0
9.048 434.2270418066394 0.0
-249.449 -295.45781687354224 0.0
-238.949 -295.45781687354224 0.0
-212.549 -341.1839581933606 0.0
-217.799 -350.2772249330972 0.0
-270.599 -350.2772249330972 0.0
-275.849 -341.1839581933606 0.0
-198.261 -339.00818312645777 0.0
-208.761 -339.00818312645777 0.0
-235.161 -293.2820418066394 0.0
-229.911 -284.1887750669028 0.0
-177.111 -284.1887750669028 0.0
-171.861 -293.2820418066394 0.0
-279.646 -338.9871831264578 0.0
-290.146 -338.98718312645775 0.0
-316.546 -293.2610418066394 0.0
-311.296 -284.1677750669028 0.0
-258.496 -284.1677750669028 0.0
-253.246 -293.26104180663935 0.0
-238.935 -409.4631831264578 0.0
-249.435 -409.46318312645775 0.0
-275.835 -363.7370418066394 0.0
-270.585 -354.6437750669028 0.0
-217.785 -354.6437750669028 0.0
-212.535 -363.73704180663935 0.0
-320.303 -409.43218312645774 0.0
-330.803 -409.43218312645774 0.0
-357.203 -363.7060418066394 0.0
-351.953 -354.61277506690277 0.0
-299.153 -354.61277506690277 0.0
-293.903 -363.7060418066394 0.0
-330.822 -295.43081687354226 0.0
-320.322 -295.43081687354226 0.0
-293.922 -341.1569581933606 0.0
-299.172 -350.25022493309723 0.0
-351.972 -350.25022493309723 0.0
-357.222 -341.1569581933606 0.0
-371.469 -365.8648168735422 0.0
-360.969 -365.8648168735422 0.0
-334.569 -411.59095819336056 0.0
-339.819 -420.6842249330972 0.0
-392.61899999999997 -420.6842249330972 0.0
-397.86899999999997 -411.59095819336056 0.0
-290.112 -365.9008168735422 0.0
-279.612 -365.9008168735422 0.0
-253.21200000000002 -411.62695819336057 0.0
-258.462 -420.7202249330972 0.0
-311.262 -420.7202249330972 0.0
-316.512 -411.62695819336057 0.0
-168.078 -154.50281687354223 0.0
-157.578 -154.50281687354223 0.0
-131.178 -200.22895819336057 0.0
-136.428 -209.32222493309717 0.0
-189.228 -209.32222493309717 0.0
-194.478 -200.22895819336057 0.0
-116.875 -198.03518312645778 0.0
-127.375 -198.03518312645778 0.0
-153.775 -152.3090418066394 0.0
-148.525 -143.2157750669028 0.0
-95.725 -143.21577506690284 0.0
-90.475 -152.30904180663944 0.0
-198.283 -198.02918312645778 0.0
-208.783 -198.02918312645778 0.0
-235.183 -152.3030418066394 0.0
-229.933 -143.2097750669028 0.0
-177.13299999999998 -143.20977506690284 0.0
-171.88299999999998 -152.30304180663944 0.0
-157.573 -268.5301831264578 0.0
-168.073 -268.5301831264578 0.0
-194.473 -222.8040418066394 0.0
-189.223 -213.71077506690278 0.0
-136.423 -213.7107750669028 0.0
-131.173 -222.80404180663942 0.0
-238.972 -268.51818312645776 0.0
-249.472 -268.51818312645776 0.0
-275.872 -222.7920418066394 0.0
-270.622 -213.69877506690278 0.0
-217.822 -213.6987750669028 0.0
-212.572 -222.79204180663942 0.0
-249.48 -154.49281687354224 0.0
-238.98 -154.49281687354224 0.0
-212.57999999999998 -200.21895819336058 0.0
-217.82999999999998 -209.31222493309718 0.0
-270.63 -209.31222493309718 0.0
-275.88 -200.21895819336058 0.0
-290.159 -224.97281687354223 0.0
-279.659 -224.97281687354223 0.0
-253.259 -270.69895819336057 0.0
-258.509 -279.7922249330972 0.0
-311.30899999999997 -279.7922249330972 0.0
-316.55899999999997 -270.69895819336057 0.0
-208.77 -224.9908168735422 0.0
-198.27 -224.9908168735422 0.0
-171.87 -270.7169581933606 0.0
-177.12 -279.8102249330972 0.0
-229.92000000000002 -279.8102249330972 0.0
-235.17000000000002 -270.7169581933606 0.0
-86.67 -13.492816873542232 0.0
-76.17 -13.492816873542232 0.0
-49.77 -59.21895819336058 0.0
-55.02 -68.31222493309718 0.0
-107.82 -68.31222493309718 0.0
-113.07 -59.21895819336058 0.0
-35.46000000000001 -57.019183126457776 0.0
-45.96000000000001 -57.019183126457776 0.0
-72.36 -11.293041806639415 0.0
-67.11 -2.19977506690281 0.0
-14.310000000000002 -2.1997750669028155 0.0
-9.060000000000002 -11.293041806639422 0.0
-116.879 -57.019183126457776 0.0
-127.379 -57.019183126457776 0.0
-153.779 -11.293041806639415 0.0
-148.529 -2.19977506690281 0.0
-95.72900000000001 -2.1997750669028155 0.0
-90.47900000000001 -11.293041806639422 0.0
-76.169 -127.53018312645779 0.0
-86.669 -127.53018312645779 0.0
-113.06899999999999 -81.80404180663942 0.0
-107.81899999999999 -72.71077506690281 0.0
-55.019 -72.71077506690281 0.0
-49.769 -81.80404180663942 0.0
-157.585 -127.52818312645778 0.0
-168.085 -127.52818312645778 0.0
-194.485 -81.80204180663942 0.0
-189.235 -72.70877506690282 0.0
-136.435 -72.70877506690282 0.0
-131.185 -81.80204180663942 0.0
-168.086 -13.491816873542225 0.0
-157.586 -13.491816873542225 0.0
-131.186 -59.21795819336057 0.0
-136.436 -68.31122493309718 0.0
-189.23600000000002 -68.31122493309718 0.0
-194.48600000000002 -59.21795819336057 0.0
-208.787 -83.99681687354223 0.0
-198.287 -83.99681687354223 0.0
-171.887 -129.7229581933606 0.0
-177.137 -138.8162249330972 0.0
-229.937 -138.8162249330972 0.0
-235.187 -129.7229581933606 0.0
-127.377 -84.00181687354223 0.0
-116.877 -84.00181687354223 0.0
-90.477 -129.7279581933606 0.0
-95.727 -138.8212249330972 0.0
-148.527 -138.8212249330972 0.0
-153.777 -129.7279581933606 0.0
-5.250000000000001 127.53118312645776 0.0
5.250000000000001 127.53118312645776 0.0
31.65 81.80504180663942 0.0
26.4 72.71177506690282 0.0
-26.4 72.71177506690282 0.0
-31.65 81.80504180663942 0.0
45.959999999999994 84.00381687354223 0.0
35.459999999999994 84.00381687354223 0.0
9.060000000000002 129.7299581933606 0.0
14.310000000000002 138.8232249330972 0.0
67.11 138.82322493309718 0.0
72.36 129.72995819336057 0.0
-35.46000000000001 84.00381687354223 0.0
-45.96000000000001 84.00381687354223 0.0
-72.36 129.7299581933606 0.0
-67.11 138.8232249330972 0.0
-14.310000000000002 138.82322493309718 0.0
-9.060000000000006 129.72995819336057 0.0
5.249999999999996 13.49281687354223 0.0
-5.250000000000004 13.492816873542232 0.0
-31.65 59.21895819336059 0.0
-26.4 68.3122249330972 0.0
26.4 68.31222493309718 0.0
31.65 59.21895819336058 0.0
-76.17 13.492816873542232 0.0
-86.67 13.492816873542232 0.0
-113.07 59.21895819336059 0.0
-107.82 68.3122249330972 0.0
-55.02 68.31222493309718 0.0
-49.77 59.21895819336058 0.0
-86.669 127.53018312645779 0.0
-76.169 127.53018312645779 0.0
-49.769 81.80404180663942 0.0
-55.019 72.71077506690281 0.0
-107.81899999999999 72.71077506690281 0.0
-113.06899999999999 81.80404180663942 0.0
-127.379 57.019183126457776 0.0
-116.879 57.019183126457776 0.0
-90.47900000000001 11.293041806639419 0.0
-95.72900000000001 2.199775066902813 0.0
-148.529 2.199775066902813 0.0
-153.779 11.293041806639419 0.0
-45.96 57.019183126457776 0.0
-35.46 57.019183126457776 0.0
-9.060000000000002 11.293041806639419 0.0
-14.310000000000002 2.199775066902813 0.0
-67.11 2.199775066902813 0.0
-72.36 11.293041806639419 0.0
76.164 268.53718312645776 0.0
86.664 268.53718312645776 0.0
113.064 222.8110418066394 0.0
107.814 213.7177750669028 0.0
55.014 213.7177750669028 0.0
49.764 222.8110418066394 0.0
127.367 225.00181687354223 0.0
116.867 225.00181687354223 0.0
90.46700000000001 270.72795819336056 0.0
95.71700000000001 279.8212249330972 0.0
148.517 279.8212249330972 0.0
153.767 270.72795819336056 0.0
45.956999999999994 225.00681687354222 0.0
35.456999999999994 225.00681687354222 0.0
9.057000000000002 270.73295819336056 0.0
14.307000000000002 279.8262249330972 0.0
67.107 279.8262249330972 0.0
72.357 270.73295819336056 0.0
86.667 154.50781687354223 0.0
76.167 154.50781687354223 0.0
49.767 200.2339581933606 0.0
55.017 209.3272249330972 0.0
107.81700000000001 209.32722493309717 0.0
113.06700000000001 200.23395819336056 0.0
5.249999999999997 154.50981687354223 0.0
-5.250000000000004 154.50981687354223 0.0
-31.65 200.2359581933606 0.0
-26.4 209.3292249330972 0.0
26.4 209.32922493309718 0.0
31.649999999999995 200.23595819336057 0.0
-5.250000000000001 268.5401831264578 0.0
5.250000000000001 268.5401831264578 0.0
31.65 222.81404180663944 0.0
26.4 213.72077506690283 0.0
-26.4 213.72077506690283 0.0
-31.65 222.81404180663944 0.0
-45.959 198.03818312645777 0.0
-35.459 198.03818312645777 0.0
-9.059000000000005 152.31204180663943 0.0
-14.309000000000005 143.21877506690282 0.0
-67.10900000000001 143.21877506690282 0.0
-72.35900000000001 152.31204180663943 0.0
35.459 198.03818312645777 0.0
45.959 198.03818312645777 0.0
72.35900000000001 152.31204180663943 0.0
67.10900000000001 143.21877506690282 0.0
14.309000000000005 143.21877506690282 0.0
9.059000000000005 152.31204180663943 0.0
157.55 409.48518312645785 0.0
168.05 409.48518312645785 0.0
194.45000000000002 363.7590418066394 0.0
189.20000000000002 354.6657750669028 0.0
136.4 354.6657750669028 0.0
131.15 363.7590418066394 0.0
208.738 365.92881687354225 0.0
198.238 365.92881687354225 0.0
171.838 411.6549581933606 0.0
177.088 420.7482249330972 0.0
229.888 420.7482249330972 0.0
235.138 411.6549581933606 0.0
127.348 365.94781687354225 0.0
116.848 365.94781687354225 0.0
90.44800000000001 411.6739581933606 0.0
95.69800000000001 420.7672249330972 0.0
148.498 420.7672249330972 0.0
153.748 411.6739581933606 0.0
168.059 295.47681687354225 0.0
157.559 295.47681687354225 0.0
131.159 341.2029581933606 0.0
136.409 350.2962249330972 0.0
189.209 350.2962249330972 0.0
194.459 341.2029581933606 0.0
86.657 295.48881687354225 0.0
76.157 295.48881687354225 0.0
49.757 341.2149581933606 0.0
55.007 350.3082249330972 0.0
107.80699999999999 350.3082249330972 0.0
113.05699999999999 341.2149581933606 0.0
76.153 409.4981831264578 0.0
86.653 409.4981831264578 0.0
113.053 363.77204180663944 0.0
107.803 354.6787750669028 0.0
55.00300000000001 354.6787750669028 0.0
49.75300000000001 363.77204180663944 0.0
35.455 339.02818312645775 0.0
45.955 339.02818312645775 0.0
72.35499999999999 293.3020418066394 0.0
67.10499999999999 284.2087750669028 0.0
14.305 284.2087750669028 0.0
9.055 293.3020418066394 0.0
116.862 339.0221831264578 0.0
127.362 339.0221831264578 0.0
153.762 293.29604180663944 0.0
148.512 284.2027750669028 0.0
95.71199999999999 284.2027750669028 0.0
90.46199999999999 293.29604180663944 0.0
168.027 436.38081687354224 0.0
157.527 436.38081687354224 0.0
131.12699999999998 482.1069581933606 0.0
136.37699999999998 491.2002249330972 0.0
189.177 491.2002249330972 0.0
194.427 482.1069581933606 0.0
157.514 550.3591831264579 0.0
168.014 550.3591831264579 0.0
194.41400000000002 504.6330418066394 0.0
189.16400000000002 495.53977506690285 0.0
136.364 495.53977506690285 0.0
131.114 504.6330418066394 0.0
116.84 479.94218312645785 0.0
127.34 479.94218312645785 0.0
153.74 434.2160418066394 0.0
148.49 425.1227750669028 0.0
95.69 425.1227750669028 0.0
90.44 434.2160418066394 0.0
198.223 479.9211831264578 0.0
208.723 479.9211831264578 0.0
235.12300000000002 434.19504180663944 0.0
229.87300000000002 425.1017750669028 0.0
177.073 425.1017750669028 0.0
171.823 434.19504180663944 0.0
-168.027 -436.38081687354224 0.0
-157.527 -436.38081687354224 0.0
-131.12699999999998 -482.1069581933606 0.0
-136.37699999999998 -491.2002249330972 0.0
-189.177 -491.2002249330972 0.0
-194.427 -482.1069581933606 0.0
-116.84 -479.94218312645785 0.0
-127.34 -479.94218312645785 0.0
-153.74 -434.2160418066394 0.0
-148.49 -425.1227750669028 0.0
-95.69 -425.1227750669028 0.0
-90.44 -434.2160418066394 0.0
-198.223 -479.9211831264578 0.0
-208.723 -479.9211831264578 0.0
-235.12300000000002 -434.19504180663944 0.0
-229.87300000000002 -425.1017750669028 0.0
-177.073 -425.1017750669028 0.0
-171.823 -434.19504180663944 0.0
-157.514 -550.3591831264579 0.0
-168.014 -550.3591831264579 0.0
-194.41400000000002 -504.6330418066394 0.0
-189.16400000000002 -495.53977506690285 0.0
-136.364 -495.53977506690285 0.0
-131.114 -504.6330418066394 0.0
-86.657 -295.48881687354225 0.0
-76.157 -295.48881687354225 0.0
-49.757 -341.2149581933606 0.0
-55.007 -350.3082249330972 0.0
-107.80699999999999 -350.3082249330972 0.0
-113.05699999999999 -341.2149581933606 0.0
-35.455000000000005 -339.02818312645775 0.0
-45.955000000000005 -339.02818312645775 0.0
-72.35499999999999 -293.3020418066394 0.0
-67.10499999999999 -284.2087750669028 0.0
-14.305 -284.2087750669028 0.0
-9.055000000000003 -293.3020418066394 0.0
-116.862 -339.0221831264578 0.0
-127.362 -339.0221831264578 0.0
-153.762 -293.29604180663944 0.0
-148.512 -284.2027750669028 0.0
-95.71199999999999 -284.2027750669028 0.0
-90.46199999999999 -293.29604180663944 0.0
-76.153 -409.4981831264578 0.0
-86.653 -409.4981831264578 0.0
-113.053 -363.77204180663944 0.0
-107.803 -354.6787750669028 0.0
-55.00300000000001 -354.6787750669028 0.0
-49.75300000000001 -363.77204180663944 0.0
-157.55 -409.48518312645785 0.0
-168.05 -409.48518312645785 0.0
-194.45000000000002 -363.7590418066394 0.0
-189.20000000000002 -354.6657750669028 0.0
-136.4 -354.6657750669028 0.0
-131.15 -363.7590418066394 0.0
-168.059 -295.47681687354225 0.0
-157.559 -295.47681687354225 0.0
-131.159 -341.2029581933606 0.0
-136.409 -350.2962249330972 0.0
-189.209 -350.2962249330972 0.0
-194.459 -341.2029581933606 0.0
-208.738 -365.92881687354225 0.0
-198.238 -365.92881687354225 0.0
-171.838 -411.6549581933606 0.0
-177.088 -420.7482249330972 0.0
-229.888 -420.7482249330972 0.0
-235.138 -411.6549581933606 0.0
-127.348 -365.94781687354225 0.0
-116.848 -365.94781687354225 0.0
-90.44800000000001 -411.6739581933606 0.0
-95.69800000000001 -420.7672249330972 0.0
-148.498 -420.7672249330972 0.0
-153.748 -411.6739581933606 0.0
-5.250000000000001 -154.50981687354223 0.0
5.250000000000001 -154.50981687354223 0.0
31.65 -200.23595819336057 0.0
26.4 -209.32922493309718 0.0
-26.4 -209.32922493309718 0.0
-31.65 -200.23595819336057 0.0
45.958999999999996 -198.03818312645777 0.0
35.458999999999996 -198.03818312645777 0.0
9.059000000000005 -152.3120418066394 0.0
14.309000000000005 -143.2187750669028 0.0
67.10900000000001 -143.21877506690282 0.0
72.35900000000001 -152.31204180663943 0.0
-35.45900000000001 -198.03818312645777 0.0
-45.95900000000001 -198.03818312645777 0.0
-72.35900000000001 -152.3120418066394 0.0
-67.10900000000001 -143.2187750669028 0.0
-14.309000000000005 -143.21877506690282 0.0
-9.059000000000008 -152.31204180663943 0.0
5.249999999999997 -268.5401831264578 0.0
-5.250000000000004 -268.54018312645775 0.0
-31.65 -222.8140418066394 0.0
-26.4 -213.7207750669028 0.0
26.4 -213.72077506690283 0.0
31.649999999999995 -222.81404180663944 0.0
-76.164 -268.53718312645776 0.0
-86.664 -268.53718312645776 0.0
-113.064 -222.8110418066394 0.0
-107.814 -213.7177750669028 0.0
-55.014 -213.71777506690282 0.0
-49.76400000000001 -222.81104180663942 0.0
-86.667 -154.50781687354223 0.0
-76.167 -154.50781687354223 0.0
-49.767 -200.23395819336056 0.0
-55.017 -209.32722493309717 0.0
-107.81700000000001 -209.32722493309717 0.0
-113.06700000000001 -200.23395819336056 0.0
-127.367 -225.00181687354223 0.0
-116.867 -225.00181687354223 0.0
-90.46700000000001 -270.72795819336056 0.0
-95.71700000000001 -279.8212249330972 0.0
-148.517 -279.8212249330972 0.0
-153.767 -270.72795819336056 0.0
-45.957 -225.00681687354222 0.0
-35.457 -225.00681687354222 0.0
-9.057000000000002 -270.73295819336056 0.0
-14.307000000000002 -279.8262249330972 0.0
-67.107 -279.8262249330972 0.0
-72.357 -270.73295819336056 0.0
76.17 -13.492816873542232 0.0
86.67 -13.492816873542232 0.0
113.07 -59.21895819336058 0.0
107.82 -68.31222493309718 0.0
55.02 -68.31222493309718 0.0
49.77 -59.21895819336058 0.0
127.379 -57.019183126457776 0.0
116.879 -57.019183126457776 0.0
90.47900000000001 -11.293041806639415 0.0
95.72900000000001 -2.19977506690281 0.0
148.529 -2.1997750669028155 0.0
153.779 -11.293041806639422 0.0
45.959999999999994 -57.019183126457776 0.0
35.459999999999994 -57.019183126457776 0.0
9.060000000000002 -11.293041806639415 0.0
14.310000000000002 -2.19977506690281 0.0
67.11 -2.1997750669028155 0.0
72.36 -11.293041806639422 0.0
86.669 -127.53018312645779 0.0
76.169 -127.53018312645779 0.0
49.769 -81.80404180663942 0.0
55.019 -72.71077506690281 0.0
107.81899999999999 -72.71077506690281 0.0
113.06899999999999 -81.80404180663942 0.0
5.249999999999997 -127.53118312645776 0.0
-5.250000000000005 -127.53118312645776 0.0
-31.65 -81.80504180663942 0.0
-26.4 -72.71177506690282 0.0
26.4 -72.71177506690282 0.0
31.649999999999995 -81.80504180663942 0.0
-5.250000000000001 -13.492816873542232 0.0
5.250000000000001 -13.492816873542232 0.0
31.65 -59.21895819336058 0.0
26.4 -68.31222493309718 0.0
-26.4 -68.31222493309718 0.0
-31.65 -59.21895819336058 0.0
-45.96 -84.00381687354223 0.0
-35.46 -84.00381687354223 0.0
-9.060000000000002 -129.7299581933606 0.0
-14.310000000000002 -138.8232249330972 0.0
-67.11 -138.8232249330972 0.0
-72.36 -129.7299581933606 0.0
35.46 -84.00381687354223 0.0
45.96 -84.00381687354223 0.0
72.36 -129.7299581933606 0.0
67.11 -138.8232249330972 0.0
14.310000000000002 -138.8232249330972 0.0
9.060000000000002 -129.7299581933606 0.0
157.585 127.52818312645778 0.0
168.085 127.52818312645778 0.0
194.485 81.80204180663942 0.0
189.235 72.70877506690282 0.0
136.435 72.70877506690282 0.0
131.185 81.80204180663942 0.0
208.787 83.99681687354223 0.0
198.287 83.99681687354223 0.0
171.887 129.7229581933606 0.0
177.137 138.8162249330972 0.0
229.937 138.81622493309717 0.0
235.187 129.72295819336057 0.0
127.377 84.00181687354223 0.0
116.877 84.00181687354223 0.0
90.477 129.7279581933606 0.0
95.727 138.8212249330972 0.0
148.527 138.82122493309717 0.0
153.777 129.72795819336056 0.0
168.086 13.491816873542225 0.0
157.586 13.491816873542227 0.0
131.186 59.21795819336059 0.0
136.436 68.3112249330972 0.0
189.23600000000002 68.31122493309718 0.0
194.48600000000002 59.21795819336057 0.0
86.67 13.492816873542232 0.0
76.17 13.492816873542232 0.0
49.77 59.21895819336059 0.0
55.02 68.3122249330972 0.0
107.82 68.31222493309718 0.0
113.07 59.21895819336058 0.0
76.169 127.53018312645779 0.0
86.669 127.53018312645779 0.0
113.06899999999999 81.80404180663942 0.0
107.81899999999999 72.71077506690281 0.0
55.019 72.71077506690281 0.0
49.769 81.80404180663942 0.0
35.46 57.019183126457776 0.0
45.96 57.019183126457776 0.0
72.36 11.293041806639419 0.0
67.11 2.199775066902813 0.0
14.310000000000002 2.199775066902813 0.0
9.060000000000002 11.293041806639419 0.0
116.879 57.019183126457776 0.0
127.379 57.019183126457776 0.0
153.779 11.293041806639419 0.0
148.529 2.199775066902813 0.0
95.72900000000001 2.199775066902813 0.0
90.47900000000001 11.293041806639419 0.0
238.972 268.51818312645776 0.0
249.472 268.51818312645776 0.0
275.872 222.7920418066394 0.0
270.622 213.69877506690278 0.0
217.822 213.69877506690278 0.0
212.572 222.7920418066394 0.0
290.159 224.97281687354223 0.0
279.659 224.97281687354223 0.0
253.259 270.69895819336057 0.0
258.509 279.7922249330972 0.0
311.30899999999997 279.7922249330972 0.0
316.55899999999997 270.69895819336057 0.0
208.77 224.9908168735422 0.0
198.27 224.9908168735422 0.0
171.87 270.7169581933606 0.0
177.12 279.8102249330972 0.0
229.92000000000002 279.8102249330972 0.0
235.17000000000002 270.7169581933606 0.0
249.48 154.49281687354224 0.0
238.98 154.49281687354224 0.0
212.57999999999998 200.2189581933606 0.0
217.82999999999998 209.3122249330972 0.0
270.63 209.31222493309718 0.0
275.88 200.21895819336058 0.0
168.078 154.50281687354223 0.0
157.578 154.50281687354223 0.0
131.178 200.2289581933606 0.0
136.428 209.3222249330972 0.0
189.228 209.32222493309717 0.0
194.478 200.22895819336057 0.0
157.573 268.5301831264578 0.0
168.073 268.5301831264578 0.0
194.473 222.8040418066394 0.0
189.223 213.71077506690278 0.0
136.423 213.71077506690278 0.0
131.173 222.8040418066394 0.0
116.875 198.03518312645778 0.0
127.375 198.03518312645778 0.0
153.775 152.30904180663944 0.0
148.525 143.21577506690284 0.0
95.725 143.21577506690284 0.0
90.475 152.30904180663944 0.0
198.283 198.02918312645778 0.0
208.783 198.02918312645778 0.0
235.183 152.3030418066394 0.0
229.933 143.2097750669028 0.0
177.13299999999998 143.2097750669028 0.0
171.88299999999998 152.3030418066394 0.0
320.303 409.43218312645774 0.0
330.803 409.43218312645774 0.0
357.203 363.7060418066394 0.0
351.953 354.61277506690277 0.0
299.153 354.61277506690277 0.0
293.903 363.7060418066394 0.0
371.469 365.8648168735422 0.0
360.969 365.8648168735422 0.0
334.569 411.59095819336056 0.0
339.819 420.6842249330972 0.0
392.61899999999997 420.6842249330972 0.0
397.86899999999997 411.59095819336056 0.0
290.112 365.9008168735422 0.0
279.612 365.9008168735422 0.0
253.21200000000002 411.62695819336057 0.0
258.462 420.7202249330972 0.0
311.262 420.7202249330972 0.0
316.512 411.62695819336057 0.0
330.822 295.43081687354226 0.0
320.322 295.43081687354226 0.0
293.922 341.1569581933606 0.0
299.172 350.25022493309723 0.0
351.972 350.25022493309723 0.0
357.222 341.1569581933606 0.0
249.449 295.45781687354224 0.0
238.949 295.45781687354224 0.0
212.549 341.1839581933606 0.0
217.799 350.2772249330972 0.0
270.599 350.2772249330972 0.0
275.849 341.1839581933606 0.0
238.935 409.4631831264578 0.0
249.435 409.46318312645775 0.0
275.835 363.7370418066394 0.0
270.585 354.6437750669028 0.0
217.785 354.6437750669028 0.0
212.535 363.73704180663935 0.0
198.261 339.00818312645777 0.0
208.761 339.00818312645777 0.0
235.161 293.2820418066394 0.0
229.911 284.1887750669028 0.0
177.111 284.1887750669028 0.0
171.861 293.2820418066394 0.0
279.646 338.9871831264578 0.0
290.146 338.98718312645775 0.0
316.546 293.2610418066394 0.0
311.296 284.1677750669028 0.0
258.496 284.1677750669028 0.0
253.246 293.26104180663935 0.0
-5.249999999999998 -436.40281687354224 0.0
5.249999999999998 -436.40281687354224 0.0
31.65 -482.1289581933606 0.0
26.4 -491.2222249330972 0.0
-26.4 -491.2222249330972 0.0
-31.65 -482.1289581933606 0.0
45.94799999999999 -479.9531831264578 0.0
35.44799999999999 -479.95318312645776 0.0
9.047999999999998 -434.2270418066394 0.0
14.298000000000002 -425.1337750669028 0.0
67.098 -425.1337750669028 0.0
72.348 -434.22704180663936 0.0
-35.44800000000001 -479.9531831264578 0.0
-45.94800000000001 -479.95318312645776 0.0
-72.348 -434.2270418066394 0.0
-67.098 -425.1337750669028 0.0
-14.298000000000002 -425.1337750669028 0.0
-9.048 -434.22704180663936 0.0
5.249999999999993 -550.3831831264579 0.0
-5.250000000000003 -550.3831831264579 0.0
-31.650000000000002 -504.6570418066395 0.0
-26.4 -495.56377506690285 0.0
26.4 -495.56377506690285 0.0
31.65 -504.6570418066394 0.0
-76.135 -550.3771831264578 0.0
-86.635 -550.3771831264578 0.0
-113.035 -504.6510418066394 0.0
-107.785 -495.55777506690276 0.0
-54.98500000000001 -495.55777506690276 0.0
-49.73500000000001 -504.6510418066394 0.0
-86.641 -436.3968168735422 0.0
-76.141 -436.3968168735422 0.0
-49.74100000000001 -482.12295819336055 0.0
-54.99100000000001 -491.2162249330972 0.0
-107.791 -491.2162249330972 0.0
-113.041 -482.12295819336055 0.0
-127.32 -506.8108168735422 0.0
-116.82 -506.8108168735422 0.0
-90.41999999999999 -552.5369581933606 0.0
-95.66999999999999 -561.6302249330972 0.0
-148.47 -561.6302249330972 0.0
-153.72 -552.5369581933606 0.0
-45.941 -506.82181687354216 0.0
-35.441 -506.8218168735422 0.0
-9.041000000000002 -552.5479581933606 0.0
-14.291000000000004 -561.6412249330972 0.0
-67.09100000000001 -561.6412249330972 0.0
-72.34100000000001 -552.5479581933606 0.0
76.157 -295.48881687354225 0.0
86.657 -295.48881687354225 0.0
113.05699999999999 -341.2149581933606 0.0
107.80699999999999 -350.3082249330972 0.0
55.007 -350.3082249330972 0.0
49.757 -341.2149581933606 0.0
127.362 -339.0221831264578 0.0
116.862 -339.0221831264578 0.0
90.46199999999999 -293.29604180663944 0.0
95.71199999999999 -284.2027750669028 0.0
148.512 -284.2027750669028 0.0
153.762 -293.29604180663944 0.0
45.95499999999999 -339.02818312645775 0.0
35.45499999999999 -339.02818312645775 0.0
9.055 -293.3020418066394 0.0
14.305 -284.2087750669028 0.0
67.10499999999999 -284.2087750669028 0.0
72.35499999999999 -293.3020418066394 0.0
86.653 -409.4981831264578 0.0
76.153 -409.4981831264578 0.0
49.75300000000001 -363.77204180663944 0.0
55.00300000000001 -354.6787750669028 0.0
107.803 -354.6787750669028 0.0
113.053 -363.77204180663944 0.0
5.249999999999997 -409.5021831264578 0.0
-5.250000000000005 -409.5021831264578 0.0
-31.65 -363.77604180663945 0.0
-26.4 -354.6827750669028 0.0
26.4 -354.6827750669028 0.0
31.649999999999995 -363.77604180663945 0.0
-5.250000000000001 -295.49181687354223 0.0
5.250000000000001 -295.49181687354223 0.0
31.65 -341.2179581933606 0.0
26.4 -350.3112249330972 0.0
-26.4 -350.3112249330972 0.0
-31.65 -341.2179581933606 0.0
-45.95 -365.9568168735422 0.0
-35.45 -365.9568168735422 0.0
-9.050000000000002 -411.68295819336055 0.0
-14.300000000000004 -420.7762249330972 0.0
-67.1 -420.7762249330972 0.0
-72.35 -411.68295819336055 0.0
35.45 -365.9568168735422 0.0
45.95 -365.9568168735422 0.0
72.35 -411.68295819336055 0.0
67.1 -420.7762249330972 0.0
14.300000000000004 -420.7762249330972 0.0
9.050000000000002 -411.68295819336055 0.0
157.578 -154.50281687354223 0.0
168.078 -154.50281687354223 0.0
194.478 -200.22895819336057 0.0
189.228 -209.32222493309717 0.0
136.428 -209.32222493309717 0.0
131.178 -200.22895819336057 0.0
208.783 -198.02918312645778 0.0
198.283 -198.02918312645778 0.0
171.88299999999998 -152.3030418066394 0.0
177.13299999999998 -143.2097750669028 0.0
229.933 -143.20977506690284 0.0
235.183 -152.30304180663944 0.0
127.375 -198.03518312645778 0.0
116.875 -198.03518312645778 0.0
90.475 -152.3090418066394 0.0
95.725 -143.2157750669028 0.0
148.525 -143.21577506690284 0.0
153.775 -152.30904180663944 0.0
168.073 -268.5301831264578 0.0
157.573 -268.5301831264578 0.0
131.173 -222.8040418066394 0.0
136.423 -213.71077506690278 0.0
189.223 -213.7107750669028 0.0
194.473 -222.80404180663942 0.0
86.664 -268.53718312645776 0.0
76.164 -268.53718312645776 0.0
49.764 -222.8110418066394 0.0
55.014 -213.7177750669028 0.0
107.814 -213.71777506690282 0.0
113.064 -222.81104180663942 0.0
76.167 -154.50781687354223 0.0
86.667 -154.50781687354223 0.0
113.06700000000001 -200.23395819336056 0.0
107.81700000000001 -209.32722493309717 0.0
55.017 -209.32722493309717 0.0
49.767 -200.23395819336056 0.0
35.457 -225.00681687354222 0.0
45.957 -225.00681687354222 0.0
72.357 -270.73295819336056 0.0
67.107 -279.8262249330972 0.0
14.307000000000002 -279.8262249330972 0.0
9.057000000000002 -270.73295819336056 0.0
116.867 -225.00181687354223 0.0
127.367 -225.00181687354223 0.0
153.767 -270.72795819336056 0.0
148.517 -279.8212249330972 0.0
95.71700000000001 -279.8212249330972 0.0
90.46700000000001 -270.72795819336056 0.0
238.992 -13.488816873542227 0.0
249.492 -13.488816873542227 0.0
275.892 -59.21495819336059 0.0
270.642 -68.3082249330972 0.0
217.84199999999998 -68.3082249330972 0.0
212.59199999999998 -59.21495819336059 0.0
290.191 -57.017183126457766 0.0
279.691 -57.017183126457766 0.0
253.29099999999997 -11.291041806639413 0.0
258.54099999999994 -2.1977750669028078 0.0
311.34099999999995 -2.197775066902813 0.0
316.59099999999995 -11.29104180663942 0.0
208.791 -57.01818312645777 0.0
198.291 -57.01818312645777 0.0
171.891 -11.292041806639414 0.0
177.141 -2.198775066902809 0.0
229.941 -2.1987750669028143 0.0
235.191 -11.292041806639421 0.0
249.49 -127.52318312645778 0.0
238.99 -127.52318312645778 0.0
212.59 -81.79704180663941 0.0
217.84 -72.70377506690281 0.0
270.64 -72.70377506690281 0.0
275.89 -81.79704180663941 0.0
168.085 -127.52818312645778 0.0
157.585 -127.52818312645778 0.0
131.185 -81.80204180663942 0.0
136.435 -72.70877506690282 0.0
189.235 -72.70877506690282 0.0
194.485 -81.80204180663942 0.0
157.586 -13.491816873542225 0.0
168.086 -13.491816873542225 0.0
194.48600000000002 -59.21795819336057 0.0
189.23600000000002 -68.31122493309718 0.0
136.436 -68.31122493309718 0.0
131.186 -59.21795819336057 0.0
116.877 -84.00181687354223 0.0
127.377 -84.00181687354223 0.0
153.777 -129.7279581933606 0.0
148.527 -138.8212249330972 0.0
95.727 -138.8212249330972 0.0
90.477 -129.7279581933606 0.0
198.287 -83.99681687354223 0.0
208.787 -83.99681687354223 0.0
235.187 -129.7229581933606 0.0
229.937 -138.8162249330972 0.0
177.137 -138.8162249330972 0.0
171.887 -129.7229581933606 0.0
320.379 127.51618312645778 0.0
330.879 127.51618312645778 0.0
357.279 81.79004180663942 0.0
352.029 72.69677506690282 0.0
299.22900000000004 72.69677506690282 0.0
293.97900000000004 81.79004180663942 0.0
371.562 83.97981687354223 0.0
361.062 83.97981687354223 0.0
334.66200000000003 129.7059581933606 0.0
339.91200000000003 138.7992249330972 0.0
392.712 138.79922493309718 0.0
397.962 129.70595819336057 0.0
290.185 83.98981687354222 0.0
279.685 83.98981687354222 0.0
253.285 129.7159581933606 0.0
258.53499999999997 138.8092249330972 0.0
311.335 138.80922493309717 0.0
316.585 129.71595819336056 0.0
330.883 13.485816873542227 0.0
320.383 13.485816873542227 0.0
293.983 59.21195819336059 0.0
299.233 68.3052249330972 0.0
352.03299999999996 68.30522493309718 0.0
357.28299999999996 59.21195819336057 0.0
249.492 13.488816873542225 0.0
238.992 13.488816873542227 0.0
212.59199999999998 59.21495819336059 0.0
217.84199999999998 68.3082249330972 0.0
270.642 68.30822493309718 0.0
275.892 59.21495819336057 0.0
238.99 127.52318312645778 0.0
249.49 127.52318312645778 0.0
275.89 81.79704180663941 0.0
270.64 72.70377506690281 0.0
217.84 72.70377506690281 0.0
212.59 81.79704180663941 0.0
198.291 57.01818312645777 0.0
208.791 57.01818312645777 0.0
235.191 11.292041806639418 0.0
229.941 2.1987750669028117 0.0
177.141 2.1987750669028117 0.0
171.891 11.292041806639418 0.0
279.691 57.017183126457766 0.0
290.191 57.017183126457766 0.0
316.59099999999995 11.291041806639416 0.0
311.34099999999995 2.1977750669028104 0.0
258.54099999999994 2.1977750669028104 0.0
253.29099999999997 11.291041806639416 0.0
401.711 268.4741831264578 0.0
412.211 268.4741831264578 0.0
438.611 222.7480418066394 0.0
433.361 213.6547750669028 0.0
380.56100000000004 213.6547750669028 0.0
375.31100000000004 222.7480418066394 0.0
452.87 224.91881687354226 0.0
442.37 224.91881687354226 0.0
415.97 270.6449581933606 0.0
421.22 279.73822493309723 0.0
474.02 279.73822493309723 0.0
479.27 270.6449581933606 0.0
371.528 224.94881687354223 0.0
361.028 224.94881687354223 0.0
334.62800000000004 270.67495819336057 0.0
339.87800000000004 279.7682249330972 0.0
392.678 279.7682249330972 0.0
397.928 270.67495819336057 0.0
412.225 154.45881687354222 0.0
401.725 154.45881687354222 0.0
375.32500000000005 200.1849581933606 0.0
380.57500000000005 209.2782249330972 0.0
433.375 209.27822493309716 0.0
438.625 200.18495819336056 0.0
330.864 154.47881687354223 0.0
320.364 154.47881687354223 0.0
293.964 200.2049581933606 0.0
299.214 209.2982249330972 0.0
352.01399999999995 209.29822493309717 0.0
357.26399999999995 200.20495819336057 0.0
320.353 268.49918312645775 0.0
330.853 268.49918312645775 0.0
357.253 222.77304180663944 0.0
352.003 213.67977506690283 0.0
299.20300000000003 213.67977506690283 0.0
293.95300000000003 222.77304180663944 0.0
279.679 198.01918312645776 0.0
290.179 198.01918312645776 0.0
316.57899999999995 152.29304180663942 0.0
311.32899999999995 143.19977506690282 0.0
258.529 143.19977506690282 0.0
253.27899999999997 152.29304180663942 0.0
361.053 198.00418312645778 0.0
371.553 198.00418312645778 0.0
397.953 152.27804180663944 0.0
392.703 143.18477506690283 0.0
339.903 143.18477506690283 0.0
334.653 152.27804180663944 0.0
412.173 295.3968168735422 0.0
401.673 295.3968168735422 0.0
375.273 341.12295819336055 0.0
380.523 350.2162249330972 0.0
433.323 350.2162249330972 0.0
438.573 341.12295819336055 0.0
401.651 409.3941831264578 0.0
412.151 409.3941831264578 0.0
438.551 363.66804180663945 0.0
433.301 354.5747750669028 0.0
380.50100000000003 354.5747750669028 0.0
375.25100000000003 363.66804180663945 0.0
361.01 338.95818312645775 0.0
371.51 338.95818312645775 0.0
397.90999999999997 293.2320418066394 0.0
392.65999999999997 284.1387750669028 0.0
339.86 284.1387750669028 0.0
334.61 293.2320418066394 0.0
442.35 338.9231831264578 0.0
452.85 338.9231831264578 0.0
479.25 293.19704180663945 0.0
474.0 284.1037750669028 0.0
421.20000000000005 284.1037750669028 0.0
415.95000000000005 293.19704180663945 0.0
157.527 -436.38081687354224 0.0
168.027 -436.38081687354224 0.0
194.427 -482.1069581933606 0.0
189.177 -491.2002249330972 0.0
136.37699999999998 -491.2002249330972 0.0
131.12699999999998 -482.1069581933606 0.0
208.723 -479.9211831264578 0.0
198.223 -479.9211831264578 0.0
171.823 -434.19504180663944 0.0
177.073 -425.1017750669028 0.0
229.87300000000002 -425.1017750669028 0.0
235.12300000000002 -434.19504180663944 0.0
127.34 -479.94218312645785 0.0
116.84 -479.94218312645785 0.0
90.44 -434.2160418066394 0.0
95.69 -425.1227750669028 0.0
148.49 -425.1227750669028 0.0
153.74 -434.2160418066394 0.0
168.014 -550.3591831264579 0.0
157.514 -550.3591831264579 0.0
131.114 -504.6330418066394 0.0
136.364 -495.53977506690285 0.0
189.16400000000002 -495.53977506690285 0.0
194.41400000000002 -504.6330418066394 0.0
86.635 -550.3771831264578 0.0
76.135 -550.3771831264578 0.0
49.73500000000001 -504.6510418066394 0.0
54.98500000000001 -495.55777506690276 0.0
107.785 -495.55777506690276 0.0
113.035 -504.6510418066394 0.0
76.141 -436.3968168735422 0.0
86.641 -436.3968168735422 0.0
113.041 -482.12295819336055 0.0
107.791 -491.2162249330972 0.0
54.99100000000001 -491.2162249330972 0.0
49.74100000000001 -482.12295819336055 0.0
35.441 -506.8218168735422 0.0
45.941 -506.82181687354216 0.0
72.34100000000001 -552.5479581933606 0.0
67.09100000000001 -561.6412249330972 0.0
14.291000000000004 -561.6412249330972 0.0
9.041000000000002 -552.5479581933606 0.0
116.82 -506.8108168735422 0.0
127.32 -506.8108168735422 0.0
153.72 -552.5369581933606 0.0
148.47 -561.6302249330972 0.0
95.66999999999999 -561.6302249330972 0.0
90.41999999999999 -552.5369581933606 0.0
238.949 -295.45781687354224 0.0
249.449 -295.45781687354224 0.0
275.849 -341.1839581933606 0.0
270.599 -350.2772249330972 0.0
217.799 -350.2772249330972 0.0
212.549 -341.1839581933606 0.0
290.146 -338.98718312645775 0.0
279.646 -338.9871831264578 0.0
253.246 -293.26104180663935 0.0
258.496 -284.1677750669028 0.0
311.296 -284.1677750669028 0.0
316.546 -293.2610418066394 0.0
208.761 -339.00818312645777 0.0
198.261 -339.00818312645777 0.0
171.861 -293.2820418066394 0.0
177.111 -284.1887750669028 0.0
229.911 -284.1887750669028 0.0
235.161 -293.2820418066394 0.0
249.435 -409.46318312645775 0.0
238.935 -409.4631831264578 0.0
212.535 -363.73704180663935 0.0
217.785 -354.6437750669028 0.0
270.585 -354.6437750669028 0.0
275.835 -363.7370418066394 0.0
168.05 -409.48518312645785 0.0
157.55 -409.48518312645785 0.0
131.15 -363.7590418066394 0.0
136.4 -354.6657750669028 0.0
189.20000000000002 -354.6657750669028 0.0
194.45000000000002 -363.7590418066394 0.0
157.559 -295.47681687354225 0.0
168.059 -295.47681687354225 0.0
194.459 -341.2029581933606 0.0
189.209 -350.2962249330972 0.0
136.409 -350.2962249330972 0.0
131.159 -341.2029581933606 0.0
116.848 -365.94781687354225 0.0
127.348 -365.94781687354225 0.0
153.748 -411.6739581933606 0.0
148.498 -420.7672249330972 0.0
95.69800000000001 -420.7672249330972 0.0
90.44800000000001 -411.6739581933606 0.0
198.238 -365.92881687354225 0.0
208.738 -365.92881687354225 0.0
235.138 -411.6549581933606 0.0
229.888 -420.7482249330972 0.0
177.088 -420.7482249330972 0.0
171.838 -411.6549581933606 0.0
320.364 -154.47881687354223 0.0
330.864 -154.47881687354223 0.0
357.26399999999995 -200.20495819336057 0.0
352.01399999999995 -209.29822493309717 0.0
299.214 -209.29822493309717 0.0
293.964 -200.20495819336057 0.0
371.553 -198.00418312645778 0.0
361.053 -198.00418312645778 0.0
334.653 -152.2780418066394 0.0
339.903 -143.1847750669028 0.0
392.703 -143.18477506690283 0.0
397.953 -152.27804180663944 0.0
290.179 -198.01918312645776 0.0
279.679 -198.01918312645776 0.0
253.27899999999997 -152.2930418066394 0.0
258.529 -143.1997750669028 0.0
311.32899999999995 -143.19977506690282 0.0
316.57899999999995 -152.29304180663942 0.0
330.853 -268.49918312645775 0.0
320.353 -268.49918312645775 0.0
293.95300000000003 -222.7730418066394 0.0
299.20300000000003 -213.6797750669028 0.0
352.003 -213.67977506690283 0.0
357.253 -222.77304180663944 0.0
249.472 -268.51818312645776 0.0
238.972 -268.51818312645776 0.0
212.572 -222.7920418066394 0.0
217.822 -213.69877506690278 0.0
270.622 -213.6987750669028 0.0
275.872 -222.79204180663942 0.0
238.98 -154.49281687354224 0.0
249.48 -154.49281687354224 0.0
275.88 -200.21895819336058 0.0
270.63 -209.31222493309718 0.0
217.82999999999998 -209.31222493309718 0.0
212.57999999999998 -200.21895819336058 0.0
198.27 -224.9908168735422 0.0
208.77 -224.9908168735422 0.0
235.17000000000002 -270.7169581933606 0.0
229.92000000000002 -279.8102249330972 0.0
177.12 -279.8102249330972 0.0
171.87 -270.7169581933606 0.0
279.659 -224.97281687354223 0.0
290.159 -224.97281687354223 0.0
316.55899999999997 -270.69895819336057 0.0
311.30899999999997 -279.7922249330972 0.0
258.509 -279.7922249330972 0.0
253.259 -270.69895819336057 0.0
401.749 -13.480816873542231 0.0
412.249 -13.480816873542231 0.0
438.649 -59.20695819336058 0.0
433.399 -68.30022493309718 0.0
380.59900000000005 -68.30022493309718 0.0
375.34900000000005 -59.20695819336058 0.0
452.923 -57.01218312645777 0.0
442.423 -57.01218312645777 0.0
416.023 -11.286041806639414 0.0
421.273 -2.1927750669028088 0.0
474.073 -2.192775066902814 0.0
479.323 -11.286041806639421 0.0
371.57 -57.014183126457766 0.0
361.07 -57.014183126457766 0.0
334.67 -11.288041806639413 0.0
339.92 -2.1947750669028077 0.0
392.71999999999997 -2.194775066902813 0.0
397.96999999999997 -11.28804180663942 0.0
412.244 -127.50618312645778 0.0
401.744 -127.50618312645778 0.0
375.34400000000005 -81.78004180663942 0.0
380.59400000000005 -72.68677506690281 0.0
433.394 -72.68677506690281 0.0
438.644 -81.78004180663942 0.0
330.879 -127.51618312645778 0.0
320.379 -127.51618312645778 0.0
293.97900000000004 -81.79004180663942 0.0
299.22900000000004 -72.69677506690282 0.0
352.029 -72.69677506690282 0.0
357.279 -81.79004180663942 0.0
320.383 -13.485816873542227 0.0
330.883 -13.485816873542227 0.0
357.28299999999996 -59.21195819336057 0.0
352.03299999999996 -68.30522493309718 0.0
299.233 -68.30522493309718 0.0
293.983 -59.21195819336057 0.0
279.685 -83.98981687354222 0.0
290.185 -83.98981687354222 0.0
316.585 -129.7159581933606 0.0
311.335 -138.8092249330972 0.0
258.53499999999997 -138.8092249330972 0.0
253.285 -129.7159581933606 0.0
361.062 -83.97981687354223 0.0
371.562 -83.97981687354223 0.0
397.962 -129.7059581933606 0.0
392.712 -138.7992249330972 0.0
339.91200000000003 -138.7992249330972 0.0
334.66200000000003 -129.7059581933606 0.0
483.08 127.49418312645778 0.0
493.58 127.49418312645778 0.0
519.98 81.76804180663942 0.0
514.73 72.67477506690281 0.0
461.93 72.67477506690281 0.0
456.68 81.76804180663942 0.0
534.232 83.94981687354223 0.0
523.732 83.94981687354223 0.0
497.332 129.6759581933606 0.0
502.582 138.7692249330972 0.0
555.382 138.76922493309718 0.0
560.632 129.67595819336057 0.0
452.912 83.96581687354222 0.0
442.412 83.96581687354222 0.0
416.012 129.6919581933606 0.0
421.262 138.7852249330972 0.0
474.06199999999995 138.78522493309717 0.0
479.31199999999995 129.69195819336056 0.0
493.586 13.474816873542231 0.0
483.086 13.474816873542231 0.0
456.68600000000004 59.20095819336059 0.0
461.93600000000004 68.2942249330972 0.0
514.736 68.29422493309718 0.0
519.986 59.20095819336058 0.0
412.249 13.480816873542231 0.0
401.749 13.480816873542231 0.0
375.34900000000005 59.20695819336059 0.0
380.59900000000005 68.3002249330972 0.0
433.399 68.30022493309718 0.0
438.649 59.20695819336058 0.0
401.744 127.50618312645778 0.0
412.244 127.50618312645778 0.0
438.644 81.78004180663942 0.0
433.394 72.68677506690281 0.0
380.59400000000005 72.68677506690281 0.0
375.34400000000005 81.78004180663942 0.0
361.07 57.014183126457766 0.0
371.57 57.014183126457766 0.0
397.96999999999997 11.288041806639416 0.0
392.71999999999997 2.1947750669028103 0.0
339.92 2.1947750669028103 0.0
334.67 11.288041806639416 0.0
442.423 57.01218312645777 0.0
452.923 57.01218312645777 0.0
479.323 11.286041806639417 0.0
474.073 2.1927750669028114 0.0
421.273 2.1927750669028114 0.0
416.023 11.286041806639417 0.0
493.558 154.43481687354222 0.0
483.058 154.43481687354222 0.0
456.658 200.16095819336059 0.0
461.908 209.2542249330972 0.0
514.708 209.25422493309716 0.0
519.958 200.16095819336056 0.0
483.041 268.4441831264578 0.0
493.541 268.4441831264578 0.0
519.941 222.71804180663943 0.0
514.691 213.62477506690283 0.0
461.891 213.62477506690283 0.0
456.641 222.71804180663943 0.0
442.402 197.98418312645776 0.0
452.902 197.98418312645776 0.0
479.30199999999996 152.2580418066394 0.0
474.05199999999996 143.1647750669028 0.0
421.252 143.1647750669028 0.0
416.002 152.2580418066394 0.0
523.721 197.96218312645777 0.0
534.221 197.96218312645777 0.0
560.621 152.2360418066394 0.0
555.371 143.1427750669028 0.0
502.571 143.1427750669028 0.0
497.321 152.2360418066394 0.0
401.673 -295.3968168735422 0.0
412.173 -295.3968168735422 0.0
438.573 -341.12295819336055 0.0
433.323 -350.2162249330972 0.0
380.523 -350.2162249330972 0.0
375.273 -341.12295819336055 0.0
452.85 -338.9231831264578 0.0
442.35 -338.9231831264578 0.0
415.95000000000005 -293.19704180663945 0.0
421.20000000000005 -284.1037750669028 0.0
474.0 -284.1037750669028 0.0
479.25 -293.19704180663945 0.0
371.51 -338.95818312645775 0.0
361.01 -338.95818312645775 0.0
334.61 -293.2320418066394 0.0
339.86 -284.1387750669028 0.0
392.65999999999997 -284.1387750669028 0.0
397.90999999999997 -293.2320418066394 0.0
412.151 -409.3941831264578 0.0
401.651 -409.3941831264578 0.0
375.25100000000003 -363.66804180663945 0.0
380.50100000000003 -354.5747750669028 0.0
433.301 -354.5747750669028 0.0
438.551 -363.66804180663945 0.0
330.803 -409.43218312645774 0.0
320.303 -409.43218312645774 0.0
293.903 -363.7060418066394 0.0
299.153 -354.61277506690277 0.0
351.953 -354.61277506690277 0.0
357.203 -363.7060418066394 0.0
320.322 -295.43081687354226 0.0
330.822 -295.43081687354226 0.0
357.222 -341.1569581933606 0.0
351.972 -350.25022493309723 0.0
299.172 -350.25022493309723 0.0
293.922 -341.1569581933606 0.0
279.612 -365.9008168735422 0.0
290.112 -365.9008168735422 0.0
316.512 -411.62695819336057 0.0
311.262 -420.7202249330972 0.0
258.462 -420.7202249330972 0.0
253.21200000000002 -411.62695819336057 0.0
360.969 -365.8648168735422 0.0
371.469 -365.8648168735422 0.0
397.86899999999997 -411.59095819336056 0.0
392.61899999999997 -420.6842249330972 0.0
339.819 -420.6842249330972 0.0
334.569 -411.59095819336056 0.0
483.058 -154.43481687354222 0.0
493.558 -154.43481687354222 0.0
519.958 -200.16095819336059 0.0
514.708 -209.2542249330972 0.0
461.908 -209.2542249330972 0.0
456.658 -200.16095819336059 0.0
534.221 -197.96218312645777 0.0
523.721 -197.96218312645777 0.0
497.321 -152.2360418066394 0.0
502.571 -143.1427750669028 0.0
555.371 -143.14277506690283 0.0
560.621 -152.23604180663943 0.0
452.902 -197.98418312645776 0.0
442.402 -197.98418312645776 0.0
416.002 -152.2580418066394 0.0
421.252 -143.1647750669028 0.0
474.05199999999996 -143.16477506690282 0.0
479.30199999999996 -152.25804180663943 0.0
493.541 -268.4441831264578 0.0
483.041 -268.44418312645774 0.0
456.641 -222.7180418066394 0.0
461.891 -213.6247750669028 0.0
514.691 -213.62477506690283 0.0
519.941 -222.71804180663943 0.0
412.211 -268.4741831264578 0.0
401.711 -268.4741831264578 0.0
375.31100000000004 -222.7480418066394 0.0
380.56100000000004 -213.6547750669028 0.0
433.361 -213.65477506690283 0.0
438.611 -222.74804180663943 0.0
401.725 -154.45881687354222 0.0
412.225 -154.45881687354222 0.0
438.625 -200.1849581933606 0.0
433.375 -209.2782249330972 0.0
380.57500000000005 -209.2782249330972 0.0
375.32500000000005 -200.1849581933606 0.0
361.028 -224.94881687354223 0.0
371.528 -224.94881687354223 0.0
397.928 -270.67495819336057 0.0
392.678 -279.7682249330972 0.0
339.87800000000004 -279.7682249330972 0.0
334.62800000000004 -270.67495819336057 0.0
442.37 -224.91881687354226 0.0
452.87 -224.91881687354226 0.0
479.27 -270.6449581933606 0.0
474.02 -279.73822493309723 0.0
421.22 -279.73822493309723 0.0
415.97 -270.6449581933606 0.0
493.58 -127.49418312645778 0.0
483.08 -127.49418312645778 0.0
456.68 -81.76804180663942 0.0
461.93 -72.67477506690281 0.0
514.73 -72.67477506690281 0.0
519.98 -81.76804180663942 0.0
483.086 -13.474816873542231 0.0
493.586 -13.474816873542231 0.0
519.986 -59.20095819336058 0.0
514.736 -68.29422493309718 0.0
461.93600000000004 -68.29422493309718 0.0
456.68600000000004 -59.20095819336058 0.0
442.412 -83.96581687354222 0.0
452.912 -83.96581687354222 0.0
479.31199999999995 -129.6919581933606 0.0
474.06199999999995 -138.7852249330972 0.0
421.262 -138.7852249330972 0.0
416.012 -129.6919581933606 0.0
523.732 -83.94981687354223 0.0
534.232 -83.94981687354223 0.0
560.632 -129.67595819336057 0.0
555.382 -138.76922493309718 0.0
502.582 -138.76922493309718 0.0
497.332 -129.67595819336057 0.0
6 0 1 2 3 4 5
6 6 7 8 9 10 11
6 12 13 14 15 16 17
6 18 19 20 21 22 23
6 24 25 26 27 28 29
6 30 31 32 33 34 35
6 36 37 38 39 40 41
6 42 43 44 45 46 47
6 48 49 50 51 52 53
6 54 55 56 57 58 59
6 60 61 62 63 64 65
6 66 67 68 69 70 71
6 72 73 74 75 76 77
6 78 79 80 81 82 83
6 84 85 86 87 88 89
6 90 91 92 93 94 95
6 96 97 98 99 100 101
6 102 103 104 105 106 107
6 108 109 110 111 112 113
6 114 115 116 117 118 119
6 120 121 122 123 124 125
6 126 127 128 129 130 131
6 132 133 134 135 136 137
6 138 139 140 141 142 143
6 144 145 146 147 148 149
6 150 151 152 153 154 155
6 156 157 158 159 160 161
6 162 163 164 165 166 167
6 168 169 170 171 172 173
6 174 175 176 177 178 179
6 180 181 182 183 184 185
6 186 187 188 189 190 191
6 192 193 194 195 196 197
6 198 199 200 201 202 203
6 204 205 206 207 208 209
6 210 211 212 213 214 215
6 216 217 218 219 220 221
6 222 223 224 225 226 227
6 228 229 230 231 232 233
6 234 235 236 237 238 239
6 240 241 242 243 244 245
6 246 247 248 249 250 251
6 252 253 254 255 256 257
6 258 259 260 261 262 263
6 264 265 266 267 268 269
6 270 271 272 273 274 275
6 276 277 278 279 280 281
6 282 283 284 285 286 287
6 288 289 290 291 292 293
6 294 295 296 297 298 299
6 300 301 302 303 304 305
6 306 307 308 309 310 311
6 312 313 314 315 316 317
6 318 319 320 321 322 323
6 324 325 326 327 328 329
6 330 331 332 333 334 335
6 336 337 338 339 340 341
6 342 343 344 345 346 347
6 348 349 350 351 352 353
6 354 355 356 357 358 359
6 360 361 362 363 364 365
6 366 367 368 369 370 371
6 372 373 374 375 376 377
6 378 379 380 381 382 383
6 384 385 386 387 388 389
6 390 391 392 393 394 395
6 396 397 398 399 400 401
6 402 403 404 405 406 407
6 408 409 410 411 412 413
6 414 415 416 417 418 419
6 420 421 422 423 424 425
6 426 427 428 429 430 431
6 432 433 434 435 436 437
6 438 439 440 441 442 443
6 444 445 446 447 448 449
6 450 451 452 453 454 455
6 456 457 458 459 460 461
6 462 463 464 465 466 467
6 468 469 470 471 472 473
6 474 475 476 477 478 479
6 480 481 482 483 484 485
6 486 487 488 489 490 491
6 492 493 494 495 496 497
6 498 499 500 501 502 503
6 504 505 506 507 508 509
6 510 511 512 513 514 515
6 516 517 518 519 520 521
6 522 523 524 525 526 527
6 528 529 530 531 532 533
6 534 535 536 537 538 539
6 540 541 542 543 544 545
6 546 547 548 549 550 551
6 552 553 554 555 556 557
6 558 559 560 561 562 563
6 564 565 566 567 568 569
6 570 571 572 573 574 575
6 576 577 578 579 580 581
6 582 583 584 585 586 587
6 588 589 590 591 592 593
6 594 595 596 597 598 599
6 600 601 602 603 604 605
6 606 607 608 609 610 611
6 612 613 614 615 616 617
6 618 619 620 621 622 623
6 624 625 626 627 628 629
6 630 631 632 633 634 635
6 636 637 638 639 640 641
6 642 643 644 645 646 647
6 648 649 650 651 652 653
6 654 655 656 657 658 659
6 660 661 662 663 664 665
6 666 667 668 669 670 671
6 672 673 674 675 676 677
6 678 679 680 681 682 683
6 684 685 686 687 688 689
6 690 691 692 693 694 695
6 696 697 698 699 700 701
6 702 703 704 705 706 707
6 708 709 710 711 712 713
6 714 715 716 717 718 719
6 720 721 722 723 724 725
6 726 727 728 729 730 731
6 732 733 734 735 736 737
6 738 739 740 741 742 743
6 744 745 746 747 748 749
6 750 751 752 753 754 755
6 756 757 758 759 760 761
6 762 763 764 765 766 767
6 768 769 770 771 772 773
6 774 775 776 777 778 779
6 780 781 782 783 784 785
6 786 787 788 789 790 791
6 792 793 794 795 796 797
6 798 799 800 801 802 803
6 804 805 806 807 808 809
6 810 811 812 813 814 815
6 816 817 818 819 820 821
6 822 823 824 825 826 827
6 828 829 830 831 832 833
6 834 835 836 837 838 839
6 840 841 842 843 844 845
6 846 847 848 849 850 851
6 852 853 854 855 856 857
6 858 859 860 861 862 863
6 864 865 866 867 868 869
6 870 871 872 873 874 875
6 876 877 878 879 880 881
6 882 883 884 885 886 887
6 888 889 890 891 892 893
6 894 895 896 897 898 899
6 900 901 902 903 904 905
6 906 907 908 909 910 911
6 912 913 914 915 916 917
6 918 919 920 921 922 923
6 924 925 926 927 928 929
6 930 931 932 933 934 935
6 936 937 938 939 940 941
6 942 943 944 945 946 947
6 948 949 950 951 952 953
6 954 955 956 957 958 959
6 960 961 962 963 964 965
6 966 967 968 969 970 971
6 972 973 974 975 976 977
6 978 979 980 981 982 983
6 984 985 986 987 988 989
6 990 991 992 993 994 995
6 996 997 998 999 1000 1001
6 1002 1003 1004 1005 1006 1007
6 1008 1009 1010 1011 1012 1013
6 1014 1015 1016 1017 1018 1019
6 1020 1021 1022 1023 1024 1025
6 1026 1027 1028 1029 1030 1031
6 1032 1033 1034 1035 1036 1037
6 1038 1039 1040 1041 1042 1043
6 1044 1045 1046 1047 1048 1049
6 1050 1051 1052 1053 1054 1055
6 1056 1057 1058 1059 1060 1061
6 1062 1063 1064 1065 1066 1067
6 1068 1069 1070 1071 1072 1073
6 1074 1075 1076 1077 1078 1079
6 1080 1081 1082 1083 1084 1085
6 1086 1087 1088 1089 1090 1091
6 1092 1093 1094 1095 1096 1097
6 1098 1099 1100 1101 1102 1103
6 1104 1105 1106 1107 1108 1109
6 1110 1111 1112 1113 1114 1115
6 1116 1117 1118 1119 1120 1121
6 1122 1123 1124 1125 1126 1127
6 1128 1129 1130 1131 1132 1133
6 1134 1135 1136 1137 1138 1139
6 1140 1141 1142 1143 1144 1145
6 1146 1147 1148 1149 1150 1151
6 1152 1153 1154 1155 1156 1157
6 1158 1159 1160 1161 1162 1163
6 1164 1165 1166 1167 1168 1169
6 1170 1171 1172 1173 1174 1175
6 1176 1177 1178 1179 1180 1181
6 1182 1183 1184 1185 1186 1187
6 1188 1189 1190 1191 1192 1193
6 1194 1195 1196 1197 1198 1199
6 1200 1201 1202 1203 1204 1205
6 1206 1207 1208 1209 1210 1211
6 1212 1213 1214 1215 1216 1217
6 1218 1219 1220 1221 1222 1223
6 1224 1225 1226 1227 1228 1229
6 1230 1231 1232 1233 1234 1235
6 1236 1237 1238 1239 1240 1241
6 1242 1243 1244 1245 1246 1247
6 1248 1249 1250 1251 1252 1253
6 1254 1255 1256 1257 1258 1259
6 1260 1261 1262 1263 1264 1265
6 1266 1267 1268 1269 1270 1271
6 1272 1273 1274 1275 1276 1277
6 1278 1279 1280 1281 1282 1283
6 1284 1285 1286 1287 1288 1289
6 1290 1291 1292 1293 1294 1295
6 1296 1297 1298 1299 1300 1301
6 1302 1303 1304 1305 1306 1307
6 1308 1309 1310 1311 1312 1313
6 1314 1315 1316 1317 1318 1319
6 1320 1321 1322 1323 1324 1325
6 1326 1327 1328 1329 1330 1331
6 1332 1333 1334 1335 1336 1337
6 1338 1339 1340 1341 1342 1343
6 1344 1345 1346 1347 1348 1349
6 1350 1351 1352 1353 1354 1355
6 1356 1357 1358 1359 1360 1361
6 1362 1363 1364 1365 1366 1367
6 1368 1369 1370 1371 1372 1373
6 1374 1375 1376 1377 1378 1379
6 1380 1381 1382 1383 1384 1385
6 1386 1387 1388 1389 1390 1391
6 1392 1393 1394 1395 1396 1397
6 1398 1399 1400 1401 1402 1403
6 1404 1405 1406 1407 1408 1409
6 1410 1411 1412 1413 1414 1415
6 1416 1417 1418 1419 1420 1421
6 1422 1423 1424 1425 1426 1427
6 1428 1429 1430 1431 1432 1433
6 1434 1435 1436 1437 1438 1439
6 1440 1441 1442 1443 1444 1445
6 1446 1447 1448 1449 1450 1451
6 1452 1453 1454 1455 1456 1457
6 1458 1459 1460 1461 1462 1463
6 1464 1465 1466 1467 1468 1469
6 1470 1471 1472 1473 1474 1475
6 1476 1477 1478 1479 1480 1481
6 1482 1483 1484 1485 1486 1487
6 1488 1489 1490 1491 1492 1493
6 1494 1495 1496 1497 1498 1499
6 1500 1501 1502 1503 1504 1505
6 1506 1507 1508 1509 1510 1511
6 1512 1513 1514 1515 1516 1517
6 1518 1519 1520 1521 1522 1523
6 1524 1525 1526 1527 1528 1529
6 1530 1531 1532 1533 1534 1535
6 1536 1537 1538 1539 1540 1541
6 1542 1543 1544 1545 1546 1547
6 1548 1549 1550 1551 1552 1553
6 1554 1555 1556 1557 1558 1559
6 1560 1561 1562 1563 1564 1565
6 1566 1567 1568 1569 1570 1571
6 1572 1573 1574 1575 1576 1577
6 1578 1579 1580 1581 1582 1583
6 1584 1585 1586 1587 1588 1589
6 1590 1591 1592 1593 1594 1595
6 1596 1597 1598 1599 1600 1601
6 1602 1603 1604 1605 1606 1607
6 1608 1609 1610 1611 1612 1613
6 1614 1615 1616 1617 1618 1619
6 1620 1621 1622 1623 1624 1625
6 1626 1627 1628 1629 1630 1631
6 1632 1633 1634 1635 1636 1637
6 1638 1639 1640 1641 1642 1643
6 1644 1645 1646 1647 1648 1649
6 1650 1651 1652 1653 1654 1655
6 1656 1657 1658 1659 1660 1661
6 1662 1663 1664 1665 1666 1667
6 1668 1669 1670 1671 1672 1673
6 1674 1675 1676 1677 1678 1679
6 1680 1681 1682 1683 1684 1685
6 1686 1687 1688 1689 1690 1691
6 1692 1693 1694 1695 1696 1697
6 1698 1699 1700 1701 1702 1703
6 1704 1705 1706 1707 1708 1709
6 1710 1711 1712 1713 1714 1715
6 1716 1717 1718 1719 1720 1721
6 1722 1723 1724 1725 1726 1727
6 1728 1729 1730 1731 1732 1733
6 1734 1735 1736 1737 1738 1739
6 1740 1741 1742 1743 1744 1745
6 1746 1747 1748 1749 1750 1751
6 1752 1753 1754 1755 1756 1757
6 1758 1759 1760 1761 1762 1763
6 1764 1765 1766 1767 1768 1769
6 1770 1771 1772 1773 1774 1775
6 1776 1777 1778 1779 1780 1781
6 1782 1783 1784 1785 1786 1787
6 1788 1789 1790 1791 1792 1793
6 1794 1795 1796 1797 1798 1799
6 1800 1801 1802 1803 1804 1805
6 1806 1807 1808 1809 1810 1811
6 1812 1813 1814 1815 1816 1817
6 1818 1819 1820 1821 1822 1823
6 1824 1825 1826 1827 1828 1829
6 1830 1831 1832 1833 1834 1835
6 1836 1837 1838 1839 1840 1841
6 1842 1843 1844 1845 1846 1847
6 1848 1849 1850 1851 1852 1853
6 1854 1855 1856 1857 1858 1859
6 1860 1861 1862 1863 1864 1865
6 1866 1867 1868 1869 1870 1871
6 1872 1873 1874 1875 1876 1877
6 1878 1879 1880 1881 1882 1883
6 1884 1885 1886 1887 1888 1889
6 1890 1891 1892 1893 1894 1895
6 1896 1897 1898 1899 1900 1901
6 1902 1903 1904 1905 1906 1907
6 1908 1909 1910 1911 1912 1913
6 1914 1915 1916 1917 1918 1919
6 1920 1921 1922 1923 1924 1925
6 1926 1927 1928 1929 1930 1931
6 1932 1933 1934 1935 1936 1937
6 1938 1939 1940 1941 1942 1943
6 1944 1945 1946 1947 1948 1949
6 1950 1951 1952 1953 1954 1955
6 1956 1957 1958 1959 1960 1961
6 1962 1963 1964 1965 1966 1967
6 1968 1969 1970 1971 1972 1973
6 1974 1975 1976 1977 1978 1979
6 1980 1981 1982 1983 1984 1985
6 1986 1987 1988 1989 1990 1991
6 1992 1993 1994 1995 1996 1997
6 1998 1999 2000 2001 2002 2003
6 2004 2005 2006 2007 2008 2009
6 2010 2011 2012 2013 2014 2015
