ply
format ascii 1.0
element vertex 217
property float x
property float y
property float z
element face 1
property list uchar int vertex_indices
end_header
-537.7732098452186 -147.07758767949917 0.0
-532.4733754277785 -133.8879583019418 0.0
-537.7842098452186 -123.15141232050081 0.0
-511.34977102765777 -77.45242930096072 0.0
-501.13477487145104 -76.76099870411264 0.0
-496.6623121767988 -70.54233012701899 0.0
-496.32218772675594 -67.30626214951917 0.0
-500.6751017756053 -58.900749806965095 0.0
-474.3158409623507 -13.158362746402625 0.0
-460.8784549113885 -11.71288485104202 0.0
-454.3574158352745 0.41811385307061755 0.0
-460.8784549113885 11.712884851042022 0.0
-474.3158409623507 13.158362746402625 0.0
-500.6751017756053 58.90074980696507 0.0
-496.32218772675594 67.30626214951917 0.0
-496.6623121767988 70.54233012701899 0.0
-501.13477487145104 76.76099870411264 0.0
-511.34977102765777 77.45242930096072 0.0
-537.7842098452186 123.15141232050081 0.0
-532.2995139114859 135.54214013251223 0.0
-537.9421017756054 146.69825019303482 0.0
-511.3387710276579 192.77657069903915 0.0
-501.1234351254889 193.46800129588738 0.0
-496.63512157787557 199.714124355653 0.0
-496.2949971278327 202.9501923331528 0.0
-500.63610177560525 211.33525019303497 0.0
-474.2768409623506 257.0776372535975 0.0
-461.5624228509471 258.10500129588735 0.0
-454.82080927889797 268.2539544826719 0.0
-454.4806848288551 271.49002246017164 0.0
-459.7742098452182 282.1965876794999 0.0
-433.3397710276579 327.8955706990392 0.0
-423.9073122847903 328.32859272352255 0.0
-421.27485743292357 330.24118312645777 0.0
-418.1098110380207 337.2510683357425 0.0
-422.6191017756053 346.4442501930348 0.0
-396.2598409623506 392.18663725359755 0.0
-382.8084963632728 393.632115148958 0.0
-375.544368882868 404.1592249330972 0.0
-322.75066925205243 404.11582089207417 0.0
-317.0443892205302 395.615115148958 0.0
-309.4216496469846 394.8511831264578 0.0
-306.44907034507503 396.17466070102233 0.0
-301.34633074794755 404.1468208920742 0.0
-248.55263111713194 404.1902249330972 0.0
-240.58162970793614 393.27500129588736 0.0
-226.816186962196 393.69311514895804 0.0
-220.2949987390432 404.98814447717854 0.0
-225.76220984521842 417.3485876794994 0.0
-199.32777102765777 463.0475706990393 0.0
-189.87238408156003 463.48059272352253 0.0
-187.2399292296933 465.39318312645776 0.0
-184.09042984017432 472.37614013251226 0.0
-188.59910177560533 481.5682501930347 0.0
-162.2398409623506 527.3106372535975 0.0
-148.76752670815821 528.756115148958 0.0
-141.92733074794754 539.2208208920741 0.0
-88.72066925205249 539.2208208920741 0.0
-83.013811870261 530.7191151489579 0.0
-75.36010264160079 529.9551831264578 0.0
-72.38752333969121 531.2786607010223 0.0
-67.29633074794751 539.2308208920741 0.0
-14.502631117132163 539.2742249330972 0.0
-7.255824144802823 528.7771151489579 0.0
4.904683135632928 528.0131831264578 0.0
7.877262437542504 529.3366607010223 0.0
14.502631117132163 539.2742249330972 0.0
67.29633074794751 539.2308208920741 0.0
72.38752333969121 531.2786607010223 0.0
75.36010264160079 529.9551831264578 0.0
83.013811870261 530.7191151489579 0.0
88.72066925205249 539.2208208920741 0.0
141.5143688828678 539.2642249330972 0.0
149.4917211450249 528.3380012958874 0.0
161.6667749665205 527.8856003290017 0.0
188.59910177560533 481.5682501930347 0.0
184.09042984017432 472.37614013251226 0.0
187.2399292296933 465.39318312645776 0.0
189.87238408156003 463.48059272352253 0.0
199.32777102765777 463.0475706990393 0.0
225.76220984521842 417.3485876794994 0.0
220.2949987390432 404.98814447717854 0.0
226.816186962196 393.69311514895804 0.0
240.58162970793614 393.27500129588736 0.0
248.55263111713194 404.1902249330972 0.0
301.34633074794755 404.1468208920742 0.0
306.44907034507503 396.17466070102233 0.0
309.4216496469846 394.8511831264578 0.0
317.0443892205302 395.615115148958 0.0
322.75066925205243 404.11582089207417 0.0
375.544368882868 404.1592249330972 0.0
383.5326908001395 393.2140012958874 0.0
396.0157710276579 392.5225706990392 0.0
422.6191017756053 346.4442501930348 0.0
418.1098110380207 337.2510683357425 0.0
421.27485743292357 330.24118312645777 0.0
423.9073122847903 328.32859272352255 0.0
433.3397710276579 327.8955706990391 0.0
459.7742098452182 282.1965876794999 0.0
454.4806848288551 271.49002246017164 0.0
454.82080927889797 268.2539544826719 0.0
461.5624228509471 258.10500129588735 0.0
474.2768409623506 257.0776372535975 0.0
500.63610177560525 211.33525019303497 0.0
496.2949971278327 202.95019233315278 0.0
496.63512157787557 199.71412435565296 0.0
501.1234351254889 193.46800129588735 0.0
511.3387710276579 192.77657069903915 0.0
537.9421017756054 146.69825019303482 0.0
532.2995139114859 135.54214013251223 0.0
537.7842098452186 123.15141232050081 0.0
511.34977102765777 77.45242930096072 0.0
501.13477487145104 76.76099870411264 0.0
496.6623121767988 70.54233012701899 0.0
496.32218772675594 67.30626214951917 0.0
500.6751017756053 58.90074980696505 0.0
474.3158409623507 13.158362746402636 0.0
460.8784549113885 11.71288485104202 0.0
454.3574158352745 0.4181138530706144 0.0
460.8784549113885 -11.712884851042022 0.0
474.3158409623507 -13.158362746402625 0.0
500.6751017756053 -58.90074980696507 0.0
496.32218772675594 -67.30626214951917 0.0
496.6623121767988 -70.54233012701899 0.0
501.13477487145104 -76.76099870411264 0.0
511.34977102765777 -77.45242930096072 0.0
537.9531017756053 -123.53074980696518 0.0
532.2995139114859 -134.705912426371 0.0
537.9421017756054 -146.69825019303482 0.0
511.3387710276579 -192.77657069903915 0.0
501.1234351254889 -193.46800129588735 0.0
496.63512157787557 -199.71412435565296 0.0
496.2949971278327 -202.95019233315278 0.0
500.4672098452183 -211.7145876794997 0.0
474.0327710276579 -257.41357069903916 0.0
462.3577226599793 -257.8465927235225 0.0
459.72526780811256 -259.75918312645774 0.0
454.3068233125626 -270.6720683357425 0.0
459.7742098452182 -282.1965876794999 0.0
433.3397710276579 -327.8955706990391 0.0
423.9073122847903 -328.32859272352255 0.0
421.27485743292357 -330.24118312645777 0.0
418.1098110380207 -337.2510683357425 0.0
422.6191017756053 -346.4442501930348 0.0
396.0157710276579 -392.5225706990392 0.0
383.5326908001395 -393.2140012958874 0.0
375.544368882868 -404.1592249330972 0.0
322.75066925205243 -404.11582089207417 0.0
317.0443892205302 -395.615115148958 0.0
309.4216496469846 -394.8511831264578 0.0
306.44907034507503 -396.17466070102233 0.0
301.34633074794755 -404.1468208920742 0.0
248.55263111713194 -404.1902249330972 0.0
240.58162970793614 -393.27500129588736 0.0
226.816186962196 -393.69311514895804 0.0
220.2949987390432 -404.98814447717854 0.0
225.76220984521842 -417.3485876794994 0.0
199.32777102765777 -463.0475706990393 0.0
189.87238408156003 -463.48059272352253 0.0
187.2399292296933 -465.39318312645776 0.0
184.09042984017432 -472.37614013251226 0.0
188.59910177560533 -481.5682501930347 0.0
162.2398409623506 -527.3106372535975 0.0
148.76752670815821 -528.756115148958 0.0
141.92733074794754 -539.2208208920741 0.0
88.72066925205249 -539.2208208920741 0.0
83.013811870261 -530.7191151489579 0.0
75.36010264160079 -529.9551831264578 0.0
72.38752333969121 -531.2786607010223 0.0
67.29633074794751 -539.2308208920741 0.0
14.502631117132163 -539.2742249330972 0.0
7.877262437542507 -529.3366607010223 0.0
4.90468313563293 -528.0131831264578 0.0
-7.255824144802823 -528.7771151489579 0.0
-14.502631117132163 -539.2742249330972 0.0
-67.29633074794751 -539.2308208920741 0.0
-72.38752333969121 -531.2786607010223 0.0
-75.36010264160079 -529.9551831264578 0.0
-83.013811870261 -530.7191151489579 0.0
-88.72066925205249 -539.2208208920741 0.0
-141.92733074794754 -539.2208208920741 0.0
-148.76752670815821 -528.756115148958 0.0
-162.2398409623506 -527.3106372535975 0.0
-188.59910177560533 -481.5682501930347 0.0
-184.09042984017432 -472.37614013251226 0.0
-187.2399292296933 -465.39318312645776 0.0
-189.87238408156003 -463.48059272352253 0.0
-199.32777102765777 -463.0475706990393 0.0
-225.76220984521842 -417.3485876794994 0.0
-220.2949987390432 -404.98814447717854 0.0
-227.5403813990627 -393.2750012958874 0.0
-240.58162970793614 -393.27500129588736 0.0
-248.55263111713194 -404.1902249330972 0.0
-301.34633074794755 -404.1468208920742 0.0
-306.44907034507503 -396.17466070102233 0.0
-309.4216496469846 -394.8511831264578 0.0
-317.0443892205302 -395.615115148958 0.0
-322.75066925205243 -404.11582089207417 0.0
-375.544368882868 -404.1592249330972 0.0
-383.5326908001395 -393.2140012958874 0.0
-395.86383451032054 -392.6593749537263 0.0
-422.6191017756053 -346.4442501930348 0.0
-418.1098110380207 -337.2510683357425 0.0
-421.27485743292357 -330.24118312645777 0.0
-423.9073122847903 -328.32859272352255 0.0
-433.3397710276579 -327.8955706990392 0.0
-459.7742098452182 -282.1965876794999 0.0
-454.3068233125626 -270.6720683357425 0.0
-459.72526780811256 -259.75918312645774 0.0
-462.3577226599793 -257.8465927235225 0.0
-474.2768409623506 -257.0776372535975 0.0
-500.63610177560525 -211.33525019303494 0.0
-496.2949971278327 -202.95019233315278 0.0
-496.63512157787557 -199.71412435565296 0.0
-501.1234351254889 -193.46800129588735 0.0
-511.3387710276579 -192.77657069903915 0.0
-537.7732098452186 -147.07758767949917 0.0
217 0 1 2 3 4 5 6 7 8 9 10 11 12 13 14 15 16 17 18 19 20 21 22 23 24 25 26 27 28 29 30 31 32 33 34 35 36 37 38 39 40 41 42 43 44 45 46 47 48 49 50 51 52 53 54 55 56 57 58 59 60 61 62 63 64 65 66 67 68 69 70 71 72 73 74 75 76 77 78 79 80 81 82 83 84 85 86 87 88 89 90 91 92 93 94 95 96 97 98 99 100 101 102 103 104 105 106 107 108 109 110 111 112 113 114 115 116 117 118 119 120 121 122 123 124 125 126 127 128 129 130 131 132 133 134 135 136 137 138 139 140 141 142 143 144 145 146 147 148 149 150 151 152 153 154 155 156 157 158 159 160 161 162 163 164 165 166 167 168 169 170 171 172 173 174 175 176 177 178 179 180 181 182 183 184 185 186 187 188 189 190 191 192 193 194 195 196 197 198 199 200 201 202 203 204 205 206 207 208 209 210 211 212 213 214 215 216
